<svg version="1.0" xmlns="http://www.w3.org/2000/svg" width="533.333" height="533.333" viewBox="0 0 400 400"><path d="M1 1.1c0 .5.5.7 1 .4.6-.3 1-.8 1-1.1C3 .2 2.6 0 2 0c-.5 0-1 .5-1 1.1zM10.2 2.6c-.1 1.7-.4 4.7-.7 6.5L9 12.5l1.1-3.4c.5-1.8.8-4.7.6-6.5l-.4-3.1-.1 3.1zM12.4 3.5c0 1.9.2 3.5.6 3.5.3 0 .6 2 .8 4.5.1 2.5-.2 4.5-.8 4.5-.5 0-1.1-1-1.1-2.3-.1-1.7-.2-1.8-.6-.4-.6 2.5 1.7 5.3 2.9 3.5.6-.8.8.5.7 3.7-.4 11.2.1 30.5.9 30.5C17.5 51 15.2.9 13.5.3c-.7-.2-1.1 1.2-1.1 3.2z"/><path d="M22 1.5c0 .8-.4 1.5-1 1.5s-1 3.5-1 8.6c0 4.7-.4 9.3-.9 10.3-.9 1.7.2 43.9 1.4 53.1.6 4.4.5 4.6-2.7 5.7-4.1 1.4-11.1 2.7-8.4 1.5 2-.8 2-.9 0-1.4-1.2-.3-2.1 0-2.2.6 0 .6-.2 2-.4 3.1-.5 3.1 7.3 2.7 10.8-.6 1.8-1.6 2.8-2 3.1-1.2.9 2.5 2.3 1.2 2.3-2.1 0-1.9.4-3.8 1-4.1.6-.4 1 3.7 1 11.7l.1 12.3 2.1-4.5c1.1-2.5 2.4-4.6 2.9-4.8.4-.2.6-.9.3-1.7-.3-.7-.1-1.6.4-1.9.6-.3.8-1.6.4-2.8-.3-1.5-.2-1.9.7-1.4.9.6 1.1-1.4.7-8.6-.2-5.1-.5-16-.5-24.1-.1-9.6-.5-14.6-1.1-14.2-.6.4-1-.9-.9-3.2.1-3.8.1-3.8.9-.8.5 2.1.8.4.9-5.8.1-5.7-.3-8.6-.9-8.2-.6.4-1-.6-1-2.2 0-2.3.2-2.5 1.1-1.3.9 1.2.9 1.1.3-.5-.6-1.7-.8-3.9-1.3-12.8C30-.6 22-.8 22 1.5zm1.6 47.2c.5 17.5.4 26.2-.3 26.6-1.6 1-3.5-49.6-1.9-52.1.4-.7 1-1.2 1.2-.9.2.2.7 12.1 1 26.4zm7.1-20.5c-.3.8-.6.5-.6-.6-.1-1.1.2-1.7.5-1.3.3.3.4 1.2.1 1.9zM55 7c-.1 4.1-.3 8.6-.5 10-.9 7.4-1.6 42.4-.9 41.7.5-.5.9-3.9 1-7.5 0-3.7.4-7.6.8-8.7.6-1.6.6-1.7-.3-.5-.7.9-1.1 1-1.1.3 0-.6.5-1.5 1.1-1.8.5-.4.9-3.2.8-6.3-.2-3.2.1-10 .5-15.2.4-5.2.3-11.8-.2-14.5l-1-5L55 7zM142.6 4.2c-1.3 8.5-5.3 23.2-6.5 23.6-.6.2-1.8-.2-2.6-.8-1.2-1-1.5-1-1.6.1-.1.8-.5.3-.9-1.1-.7-2.3-.8-2.3-.9-.3-.1 2-.3 2.1-2.7.8-1.7-.9-3.5-1-5.5-.5-1.6.5-2.9.6-2.9.2 0-.4-.5 0-1 .8-.6 1-1 1.1-1 .2 0-1.5-5.6-1.7-6.5-.2-.4.6-1.1.8-1.6.5-.5-.4-.9-.2-.9.2 0 .8-2.3 1.3-6.7 1.6-.7 0-1.3.5-1.3 1.1 0 .6-.5.4-1-.4-.8-1.3-1.1-1.1-1.6.7C97 32 96.3 33 95.8 33s-.6-.6-.2-1.3c.5-.7.1-.6-1 .3-1 .8-3 1.6-4.5 1.8-1.4.2-2.8.7-2.9 1.3-.2.5-.8.7-1.2.4-.5-.3-1.6.5-2.4 1.7-.9 1.2-1.6 1.9-1.6 1.5 0-.4-1.6.8-3.5 2.7-1.9 2-3.5 3-3.6 2.3 0-.7-.5-.2-1.1 1-.6 1.3-1.7 2.3-2.5 2.3-.7 0-1.3.9-1.3 2s-.7 2-1.5 2-1.5.9-1.5 1.9c0 1.1-.9 2.3-2 2.6-1.4.4-2 1.5-2 3.5 0 2.7-.2 2.9-3 2.3-2.7-.5-3-.3-3 2.2 0 2-.4 2.6-1.5 2.1-1-.3-1.4.1-1.3 1.2.3 3.5-.2 5.2-1.6 5.2-.8 0-1.6-.6-1.8-1.2-.3-.9-.9-.8-2.2.5-1.7 1.6-1.6 1.7.3 1.7 2.5 0 2.7 1.3.6 3-1.2 1-1.5 1-1.5 0 0-.8-.3-1.1-.6-.8-.3.4 0 1.7.7 3 1.1 2.1 1.1 2.2-.4.9-1.5-1.2-1.7-1.1-1.7.9 0 1.3-.5 2-1.2 1.7-.7-.2-1.2-1.1-1-2.1.2-.9-.1-1.6-.6-1.6-.8 0-1.2 1.5-1.3 5.4 0 1.8 0 1.8-1.5 0-1.4-1.8-1.5-1.8-.9.3.4 1.4.2 2.3-.4 2.3-.6 0-1.1.6-1.1 1.4 0 .8-.7 1.6-1.5 2-.9.3-1.5 1.8-1.5 3.5 0 1.6-.4 3.3-1 3.6-.6.3-1-.4-1-1.7 0-2.2-.1-2.1-1.8.7-1.7 2.6-1.7 3.1-.4 3.6 1.3.5 1.3.7-.2 1.2-1.1.5-1.6 1.3-1.2 2.3.3.8.2 2.3-.4 3.3-1.3 2.5-2.2 11.1-2.2 20.9 0 7.7.8 11.4 1.9 8.4.3-.6.9-1 1.3-.7.5.3.7 1.2.4 2-.4.8-1 1.2-1.5.9-.5-.3-.9.2-.9 1 0 1 .6 1.3 1.5 1 .8-.4 1.5-1.2 1.5-2s.5-1.4 1.1-1.4c.6 0 .8.7.5 1.6-.4.9-.2 2.2.3 2.8.7.8.4 1.7-.9 2.9-1.9 1.6-2 1.6-2-.3 0-1.1-.5-2-1.1-2-1.1 0-.2 4.3 1.1 4.8.4.1.5 1.3.3 2.6-.4 1.7 0 2.5 1.4 2.9 1.6.4 1.6.5.1.6-3 .2-2 2.6 1.6 3.7 3.4 1 3.4 1 4-2.5.6-3.9-.9-6.5-2.4-4.1-1.4 2.2-2.3.5-1-1.9.6-1.2 1.7-2.1 2.6-2.1.8 0 1.7-.7 2-1.5.4-.8 1-1.2 1.5-.9.5.3.9-.3.9-1.3s.6-2.7 1.3-3.8c1.8-2.7 3.8-11.2 5.3-22.5.7-5.2 2.3-13.6 3.6-18.5 1.4-5 2.3-9.6 2-10.3-.2-.6.1-1.2.6-1.2.6 0 1.3-.9 1.7-1.9.3-1.1 2.2-3.7 4.1-5.8 2-2.1 5-5.8 6.7-8.3 5.4-7.9 9-11.1 19.8-17.5.9-.6 2.3-1.6 3-2.2.8-.6 3.9-1.6 6.9-2.2 3-.6 10.9-2.2 17.5-3.6 14.6-3.1 16.8-3.1 21.2-.3 2 1.1 5.6 2.3 8.1 2.5 3.3.3 5.1 1.1 7.1 3.2 1.4 1.5 2.6 3.4 2.6 4.1 0 .7.6 1.5 1.3 1.7.6.3 1.2 0 1.2-.6s.5-1.1 1-1.1c2 0 .9 2.1-1.7 3.1-2.1.8-2.4 1.2-1.3 2.2 1 .9 1.3.9 1.7-.1.3-.6 1.1-1.2 1.9-1.2.8 0 1.1.6.8 1.5-.4.9 0 1.5 1 1.5.9 0 1.6.4 1.6 1s-.9.6-2.6 0c-3.3-1.3-3.4-1.3-3.4.5 0 1 1 1.5 3 1.5 1.8 0 3 .5 3 1.3 0 .7 1.4 1.7 3.2 2.2 2.4.8 3.2 1.6 3.4 3.8.2 1.9-.1 2.5-.9 2-.7-.4-.6.1.2 1.1 1 1.2 1.6 1.4 2.2.5.9-1.5 1.6 1.7 1.1 4.8-.5 2.7-2.7 3-4.1.5-.6-.9-1.1-1.1-1.1-.5 0 .7-1.1 1.3-2.4 1.3-1.3 0-2.7.7-3 1.6-.4 1-1.2 1.4-2.2 1-1-.4-1.8.1-2.1 1.3-.4 1.7-3.6 3.1-7 3.3-.5 0-2 .9-3.5 2-1.6 1.1-2.8 1.6-2.8 1.2 0-.3-.6-.1-1.4.5-1.1.9-2.5.9-6.2 0-3.6-.9-4.9-1-5.2-.1-.5 1.7-3.9 1.5-4.6-.3-.3-.8-.3-2.2 0-3 .4-.8.1-1.5-.5-1.5s-1.1-1.2-1.1-2.6c0-1.4-.4-2.2-1-1.9-.5.3-7.1.7-14.7.9-11.9.3-13.8.6-15 2.2-.7 1-1.1 2.5-.8 3.2.3.9 0 1.2-.9.9-1-.4-1.3-.1-.9.9.4 1.1 1.4 1.3 3.4.9 1.9-.4 2.9-.3 2.9.5 0 .9.4.9 1.3.2s2.1-.3 4.3 1.8l3.1 2.7-7.1.7c-3.9.4-7.3 1.1-7.4 1.6-.2.6-.8.8-1.2.5-1.7-1.1-15.9 8.1-16 10.2 0 .7-.4 1.3-.8 1.3-1.3 0-3.2 4.8-3.2 8 0 3.1.9 3.6 3.8 2.1.9-.5 4-1.9 6.8-3.2 2.9-1.3 5.1-2.9 5-3.7-.2-2.8 6.6-7 12.4-7.6 5.3-.5 5.3-.3.2 1.5-2 .8-2.1 1.1-1 2.9.9 1.4 2.4 2 5 2 3.3 0 3.8.3 3.8 2.4 0 1.7-.8 2.7-2.7 3.4-2.7 1-2.7 1 1.2 1.1 3.8.1 10.5-2.9 10.5-4.7 0-.4 1.6-.6 3.5-.4 4 .5 4.3-.3 1.4-3.4l-2.1-2.3 2.2.6c1.4.4 2.1.2 1.7-.4-.4-.5.4-1.5 1.6-2 7.4-3.5 12.2-5.4 16.3-6.3 4.7-1.1 4.7-1.1 8.6 2.8 2.2 2.2 3.9 5 4 6.5.1 1.5.6 2.7 1 2.7.3 0 .8 1.5 1 3.2.2 2.2 1 3.6 2.4 4.2 2.5 1.1 6.7 7.3 5.9 8.6-.4.6-1.5 1-2.7 1-2.4 0-12.7 5.7-13.4 7.4-.5 1.3-4.8 1.5-6 .3-1.1-1.1-9.4-.8-13 .5-3.3 1.2-5.4 4.3-5.4 7.9 0 1.3-.4 1.8-1.1 1.3-.9-.5-1 .4-.4 3.2.4 2.1.9 4.3 1.2 4.7.8 1.3 13.3-1 13.3-2.4 0-1.3 6.8-1.1 7.2.1.2.6 1.2 1.2 2.3 1.2 1.6.2 2 .9 1.9 3.5-.2 2.9.2 3.4 3 4.1 3.6 1 4.3.8 2.8-1.1-.7-.8-.9-1.7-.5-2 .3-.4-.2-.7-1.3-.8-1.5-.1-1.3-.3.6-.9 4.4-1.4 7-1.1 7 .7 0 1.5.2 1.6 1 .3.5-.8 1.2-1.1 1.7-.7.4.4.2 1.7-.5 2.7-1.1 1.8-.9 2 1.8 2 1.7 0 4.7.9 6.7 2 2.1 1.1 4.3 2 4.9 2 .6 0 1.9.9 2.9 2 1.4 1.6 1.5 2 .4 2-.8 0-2.3-.6-3.4-1.4-3.5-2.3-7.1-2.7-8.6-.9-1.2 1.4-1.1 1.5 1.1.9 1.9-.6 2.1-.5 1 .3-.8.6-2.4.8-3.6.5-1.2-.3-2.6.1-3.3 1-.8.9-1.9 1.6-2.6 1.6-.7 0-1.8.6-2.4 1.4-.8.9-2.6 1.3-4.9 1.1-2-.1-4 .2-4.3.7-.8 1.2-6.1 2-13.4 1.9-5.1 0-6.4.3-8.7 2.6-1.9 1.9-4 2.7-6.8 2.9-4.1.2-10.4 3.9-9.5 5.5.4.5-.1.9-.9.9-1.5 0-2.1 1.8-1.6 4.9.1.8-.6 2.1-1.6 2.8-1 .7-1.3 1.3-.7 1.3.7 0 1.8.7 2.7 1.5 1.5 1.5 4.6 1.1 4.6-.6 0-.6.8-1.9 1.9-3 1.3-1.5 2.5-1.8 4.5-1.3 1.9.4 2.6.2 2.6-.8 0-2.6 11.1-5.7 26-7.4 3.5-.4 4.2-.2 3 .6-1.1.8.1.9 5 .4 7.7-.8 15.2-.6 16 .4.3.4 2.8.7 5.5.7 2.8 0 5.5.3 6.2.8.7.5 2.1.6 3.1.3 1.2-.4 2.5 0 3.3 1 1.2 1.5 1.1 1.6-1.1.9-2.2-.7-2.3-.6-1.1.9 1.2 1.4 1 1.6-1.3 1.6-1.5 0-2.9-.7-3.2-1.5-.4-.8-1-1.2-1.5-.9-.5.3-.9 0-.9-.5 0-.6-.5-1.1-1-1.1-.7 0-.9 1.9-.7 5 .3 2.9.1 5-.5 5s-2.4.6-4.1 1.4c-3.6 1.6-21.6 3-38.2 3.1-9.9 0-11 .2-11.3 1.9-.2 1.1 0 1.6.6 1.2.6-.3 1.3-.2 1.7.4.3.5.2 1-.3 1s-.6 2-.2 4.5c.7 4.6-.2 6.7-2.6 5.8-1.6-.6-1.9 1.3-.4 2.2.6.4.8 1.4.6 2.3-.4 1.2.5 2.2 3.2 3.4 3.7 1.7 5.8 1.8 9.7.5 5.2-1.7 23.8-2.8 25-1.5.1.1.5 1.9.8 3.9.2 2 .7 4.1.9 4.5.3.5-.3 1.8-1.3 2.8-1.8 1.8-1.9 1.8-1.9.2 0-1.5-.3-1.6-1.5-.6-.8.7-1.5 2-1.5 2.9 0 1.3-.2 1.3-.9.3-.6-1.1-1.8-.5-4.9 2.5-3 2.9-4.6 3.7-6.7 3.5-1.5-.2-3.2.1-3.8.7-.6.6-1.9 1.1-3 1.1-1 0-1.5.4-1.2 1 .4.6-.6.7-2.5.4-1.9-.4-3-.2-3 .5 0 1.5-3.7 1.4-4.3-.2-.4-.9-.8-.9-1.4-.1-.8 1.1-3.3 1.8-6 1.5-.7 0-1.3-.8-1.3-1.6 0-1.3-.3-1.3-2-.3-1.5 1-2.2 1-3.2 0-.9-.9-.7-1.2 1-1.2 1.2 0 2.2-.5 2.2-1.1 0-.7-1.2-.9-3.5-.5-2.9.6-3.5.4-3.5-1.1s-.2-1.6-1-.3-1.1 1.3-2.6-.1c-1.5-1.5-1.8-1.4-4.5 1.2-1.6 1.6-3.5 2.9-4.2 2.8-.9 0-.9-.2.1-.6.6-.2 1.2-1.3 1.2-2.4 0-1.7-.3-1.8-2-.9-1.6.9-2.2.8-2.6-.5-.3-.8-1.6-1.5-2.8-1.5-1.1 0-3-.7-4-1.5-1.4-1.1-2.2-1.2-2.7-.4-1 1.6-5.9.2-5.9-1.7 0-.8-.5-1.2-1.1-.9-.6.4-.8 1.2-.6 1.9.3.7-.9 1-3.9.7-4-.3-4.4-.1-4.5 2-.1 2.4-.1 2.4-.8-.1-.6-2.2-.8-2.3-1.4-.6-.7 1.7 1 8.3 2.3 9.6.9.8 6 13.4 6 14.7 0 .7.5 1.3 1.1 1.3.7 0 .9 1 .5 2.5s-.2 2.5.5 2.5c.6 0 .8 1.1.4 2.9-.5 2.2-.2 3 1.2 3.5 1.7.7 1.7.8.1 1.7-1 .6-1.8 1.9-1.8 2.9 0 3.1-3.8 6.3-6.6 5.6-1.4-.4-2.4-.2-2.4.5 0 .6-.7.4-1.5-.5-.8-.8-1.5-1.9-1.5-2.5 0-.6-.4-1.9-1-2.9-.5-.9-1.4-5.1-1.9-9.2-.8-6.7-.9-6-.8 7.6.1 12.4.4 15.1 1.5 14.6.9-.3 1.3.2 1.1 1.4-.1 1 .4 3.2 1.1 4.9.7 1.6 1.4 4.3 1.6 5.9.2 1.6 1.1 4 1.9 5.3.9 1.3 1.7 4.3 1.8 6.8.2 3.6.6 4.5 2.1 4.5s1.6.3.6 1.5c-.7.8-1.7 1.2-2.4.8-1.4-.9-5.2-1.5-4.4-.7.3.3 1.4.7 2.4.8 1 .2 1.8 1.2 1.9 2.4.1 1.2.5 2.5 1 2.9.4.5.4-.2.1-1.4-.7-2-.5-2.2 1.5-1.4 1.3.4 2.5 1.4 2.7 2.2.3 1.1.1 1.1-.7-.1-1.3-1.9-1.4-.9-.1 2.4.7 1.9.6 2.6-.3 2.6-.6 0-.3.7.7 1.5 2.5 1.9 3.1 1.3 1.6-1.5-1.6-2.9-.6-3.6 2.4-1.7 2 1.4 5.4 7.7 4 7.7-.3 0-1-1.4-1.5-3-1.4-3.7-3-4-2-.3.7 2.8-.3 4.7-4.2 8.2-1 .9-2.8 3.4-3.9 5.5s-3.1 5.1-4.4 6.5c-1.3 1.4-2.4 3.2-2.4 3.9 0 .7-1 1.6-2.3 2.1-1.3.5-3.4 2.5-4.8 4.5-1.3 2-2.9 3.6-3.5 3.6-.6 0-3.2 1.1-5.8 2.5-2.6 1.4-5.6 2.5-6.7 2.5-1.1 0-3.4 1.6-5.3 3.5-1.8 1.9-3.6 3.2-3.9 2.9-.3-.3-2.7-.8-5.4-1.1-2.6-.3-5.2-1-5.6-1.6-.6-.8-.7-.5-.3.5.4 1.5-.1 1.8-3.2 1.9-2 .1-4 .1-4.4 0-.5 0-.8.4-.8.9 0 .6-.7 1-1.5 1-2.3 0-1.8-1.3 1.5-4.2 1.9-1.7 2.8-3.2 2.4-4.2-.7-1.9.7-2.1 2.6-.4 1.2 1.1 1.2 1 .2-.3-.6-.9-.8-2-.4-2.4.4-.5.1-.5-.5-.1-2.6 1.5-5.2 1.4-5.7-.1-.4-1-1.4-1.3-3-.9-2 .5-2.5.2-2.9-1.6-.3-1.3-.4-.4-.4 1.9s.3 4 .5 3.8c.6-.6 3.1 2.7 3.2 4 0 .5-.5.3-1-.5-.8-1.2-1-1-1 .8 0 1.3-.4 2-1 1.7-.6-.3-1-.1-1 .4 0 .6.9 1.1 1.9 1.1 1.3 0 2.1.9 2.6 3 .8 3.7-.1 5.3-2.6 4.5-1.6-.5-1.9-.1-1.9 2.9v3.5l15.3-.1c10.1 0 15.4-.4 15.9-1.2.6-.8.8-.8.8 0s5.6 1.2 18 1.3c15.7.2 18 0 18-1.3 0-.9.7-1.6 1.5-1.6s1.5.7 1.5 1.5c0 1.3 1 1.6 4.9 1.4 2.8-.2 4.8-.6 4.5-1.1-.3-.4 0-.8.5-.8.6 0 1.1.4 1.1 1 0 1.3 59.8 1.2 62.2-.1 1.2-.6 1.8-.6 1.8.1 0 .6 3.3 1 8.5 1 5.3 0 8.5-.4 8.5-1.1 0-.5.5-.7 1.2-.3.7.5 3.5.8 6.3.9 4.8 0 5.1-.1 4.7-2.2-.3-1.8-.1-2.2 1.1-1.7.9.3 1.3 1.2 1.1 1.9-.7 1.8 1.5 3 2.9 1.6.8-.8.7-1.1-.4-1.1-2.1 0-2-8.4.2-8.8 1-.2 1.6.4 1.6 1.5-.1 7 .4 9.7 1.4 8.3.7-1.1 1.2-1.2 1.5-.3.3.7 1.2.9 2 .6 1.2-.4 1.1-.8-.6-2-1.1-.8-1.7-1.9-1.4-2.5.4-.7 1-.5 1.6.5.5.9 1.5 1.4 2.3 1.1.9-.4 1.5 0 1.5.7 0 1.1.2 1.1 1-.1.8-1.2 1.3-1.3 3-.2 1.1.7 2 .8 2 .4 0-.5-1.1-1.4-2.4-2-1.9-.8-2.6-.8-3 .1-.2.7-.5.2-.5-1.1-.1-1.6.3-2.1 1.2-1.5 1.9 1.2 4.5 1.4 5.2.3.4-.6.3-.9-.2-.8-.8.3-1.3-.5-1.3-2.3 0-.6.7-.3 1.6.5.8.9 1.2 2.1.9 2.6-.4.6-.1 1.7.5 2.5.8 1 .9 1.5.2 1.5-.6 0-.9.6-.6 1.3.6 1.6 3.4 1.8 5.1.5.7-.5 1.4-.5 1.7.1.4.5 3.3 1 6.6 1s5.8-.5 5.5-.9c-.3-.5-1.2-.7-1.9-.4-.7.3-1.6-.2-2-1.2-.5-1.3-.2-1.5 1.4-1.1 1.8.5 1.9.3.5-2.4-1.8-3.3-1.8-3.9-.4-3.9.5 0 .7.5.4 1.1-.4.6.3 1.3 1.4 1.6 1.5.4 2.1 1.2 1.9 2.6-.2 1.1.3 2.2 1 2.4.6.3 1.2 0 1.2-.6s1-1.1 2.3-1.1c1.8 0 1.9-.2.7-1s-.9-1 1.3-1c2.4 0 3.2.9 2.8 3.2 0 .5.4.8.9.8.6 0 1-.9 1-2s-.4-2-1-2c-.5 0-1-.7-1-1.5 0-2.3 2.4-1.8 3.6.7.7 1.7.6 2.9-.3 4.4-1.3 2.1-1.2 2.1 3.7 2.1 4.5-.1 4.9-.3 4.4-2-.4-1.3-.2-1.7.5-1.3.6.4 1.1 1.5 1.2 2.4 0 1.4.2 1.3.9-.3s.9-1.6.9-.4c.1 1.4 1.2 1.7 5.6 1.8 3.1 0 5.5-.4 5.5-1s-1-.9-2.2-.7c-1.5.2-2.3-.2-2.3-1.2-.1-2.1 1.7-3.1 3.2-1.8 1 .8 1.3.6 1.3-.7 0-2 3.1-1.7 3.8.4.3.8 0 1.1-.6.7-.5-.3-1.3.1-1.6 1-.4 1.2-.2 1.5.9 1 .9-.3 1.5 0 1.5.8s1.7 1.3 5.1 1.5c4.4.2 5.4-.1 6.8-2.1.9-1.3 1.6-2.6 1.6-3 0-1.8 1.5-1.7 2.5.1 1.2 2.3 3.6 2.8 4.3.8.4-.9.6-.9.6 0 .1.7.5 1.3 1.1 1.3.5 0 .7-.6.4-1.4-.3-.8.3-1.9 1.3-2.4 1.4-.7 2.3-.4 4 1.3 1.2 1.3 1.9 2.6 1.6 2.9-.4.3-.1.6.5.6.7 0 1.2-.9 1.2-2.1 0-1.1.5-1.7 1-1.4.6.3 1 1.7 1 3.1 0 2.2.4 2.4 3.4 2.2 2.9-.2 3.5-.7 4-3 .3-1.5 1-2.8 1.6-2.8 1.3 0 1.3 1.7 0 2.5-.6.3-1 1.3-1 2 0 1.1 1.4 1.4 5.8 1.3 6.6-.2 10.9-2.9 6.5-4.1-1.6-.4-1.6-.5-.1-.6.9 0 2 .3 2.3.9.3.5 1.1 1 1.6 1 .6 0 .7-.6.3-1.2-2-3.1-1.1-4.6 2.3-4.3 2.7.2 3.2.1 2.3-1-.9-1.1-.7-1.4.9-1.2 1.2.1 2 .6 1.7 1.2-.2.7.2 1.2.9 1.2.9 0 1.1-.7.5-2.1-.4-1.2-1.4-2.1-2.2-2-1 .1-1.3-.7-1-2.7.3-1.7 0-2.9-.7-2.9-.6 0-1.1-.6-1.1-1.3 0-.8.7-1.4 1.5-1.4.9 0 1.4.6 1.1 1.3-.2.6.5 1.4 1.6 1.7 1.2.4 1.7 1 1.3 1.7-.6.9-1 .9-1.6-.1-.7-1.1-.9-1.1-.9.2 0 .9.7 2.2 1.5 2.9.8.7 1.5.9 1.5.6 0-.4.7 0 1.6.9 2 2 3.2 1.1 1.4-1-1.1-1.3-1-1.4.4-.9 2 .8 2 2.3.1 4.8-1.3 1.7-1.5 1.7-1.5.4 0-.9-.5-2-1.2-2.4-.8-.5-.9-.2-.5 1 .9 2.4-1.4 4.9-2.8 2.9-.8-1.1-1.3-1.1-3.3.2-2.3 1.7-2.9 4.9-1.1 6.1.6.3 1.6.1 2.2-.5 1.2-1.2 3.1-1.5 2.4-.3-.3.4 2.4.8 5.9 1 5.5.2 6.3 0 5.7-1.4-.3-.9 0-2 .8-2.6 1-.7.8-.8-.9-.5-1.5.4-2 .1-1.5-.6.4-.7.9-2.1 1-3.1.5-3.2 1.3-3.2 1.3 0 0 2.3.2 2.6 1.1 1.4.8-1.2 1-.8.7 1.7-.3 1.8-.1 3 .4 2.7.4-.3.8-1.4.8-2.6 0-1.7.5-2 2.8-1.6 2.5.4 2.8.2 2.4-2.3-.3-1.8-.9-2.6-1.8-2.2-1.7.6-3.1-4.4-1.5-6 .8-.8 1.1-.8 1.1.1 0 .7.5 1.2 1.1 1.2 2.7 0-.1-2.5-3-2.6-1.8-.1-3 .1-2.7.4.3.3 0 1.2-.7 2-1 1.3-.9 1.4.2.8.9-.6 1.2-.4.9.5-.9 2.6-3 1.4-4.2-2.3l-1.3-3.6 3.5.5c3.1.5 3.4.4 2.9-1.2-.4-1-.2-2.4.4-3.1.6-.7.7-1.9.3-2.6-.6-1-.4-1 .9 0 .9.8 1.9 2.2 2.2 3.3.4 1.1 1.1 1.7 1.6 1.3.6-.4.1-1.6-1.2-3.1-1.9-1.9-2.1-2.6-1-3.2.8-.5 1-1.4.6-2.2-.6-1.1-.5-1.1.5-.2.9.9 1.7.9 3.1 0 2.4-1.5 4.5.4 3.4 3-1.3 2.9-1.2 5.1 0 4.7.7-.3 1.9.6 2.9 2 2.7 4.2 1.8 8.8-1.2 6.3-1.3-1-1.4-.9-.7.2.6 1.1.4 1.3-.7.9-1-.4-1.4 0-1.2 1.5.1 1.2.3 2.6.3 3.2.1.5.6.3 1.1-.5.5-.8 1-1 1-.4 0 .5-.9 2-2 3.1-1.6 1.7-1.6 2.2-.5 2.7.8.3 1.3 1.1 1.1 1.8-.1.7-.1 1 .1.5.8-1.3 4.6-.7 6 1 .8 1 1.2 1.2.8.6-.3-.7 0-1.3.7-1.4.7 0 .3-.5-.9-1.1-2.7-1.3-2.9-2.3-.8-3.2 2.1-.8 1.9-2.3-.4-2.9-1-.2-2.4-1.4-3-2.6-1-1.8-.9-2 .8-1.3 1.1.4 3.1 1.7 4.4 2.9 1.4 1.2 2.8 1.9 3.1 1.6.3-.3.4.4.1 1.6-.2 1.1 0 2.1.6 2.1.5 0 .9-.4.9-1 0-.5.7-.7 1.5-.4.8.4 1.5 1 1.5 1.6 0 .5-.4.6-1 .3-.5-.3-1-.1-1 .6s-.3 1-.6.6c-.6-.5-3.4 1.6-3.4 2.6 0 .2 2.1.4 4.7.5 4.2 0 4.5-.1 2.6-1.1-1.9-1.1-2-1.4-.8-3.1 1.4-1.9 4.5-1.6 4.5.4 0 .6-.6.8-1.2.4-.9-.6-.9-.3 0 .9.8.9 1.7 1.6 2 1.5.4-.1 1.8.2 3.1.6 1.4.5 2.7.4 3.4-.3.8-.8.2-1.3-2.1-1.7-1.8-.4-3.5-1.1-3.8-1.6-.8-1.3 1.6-2.9 3-2.1.5.4.7-.1.3-1-.8-2.1.6-2.2 2.3-.2 1.4 1.7 3.5 2.1 2.5.5-.3-.5-.2-1 .4-1 .6 0 1.4 1.3 1.8 3 .6 2.3 1.1 2.7 2.3 2 .8-.5 1-1 .4-1-.7 0-.9-1.1-.6-2.6.4-2.2.6-2.4 1.4-1 .5.9 1.6 1.6 2.3 1.6.8 0 1.5.4 1.5 1 0 .5-.7 1-1.6 1-.8 0-1.3.4-.9 1 .9 1.5 3.5-.1 3.5-2.2 0-1.8.2-1.9 1.7-.7 1.4 1.2 1.3.9-.2-1.6-2.4-3.9-3-4.4-2.2-2.3.8 2.2.8 2.2-3.7.3-2-.8-3.6-2-3.6-2.5 0-1.2.2-1.2 3.4 0 1.4.5 2.6.6 2.6.1 0-1.4-5.2-2-7.7-.8-2.7 1.2-4.5.1-2.3-1.4 1.2-.8 1-.9-.6-.4-2.8.7-5.4-.3-4.8-2 .3-.7 0-1.6-.7-2.1-.8-.5-1-.3-.4.6 1 1.7-3.3.3-5.7-1.8-2.8-2.4-2.1-3.5 1.7-3 3.4.4 4.6-.4 2.4-1.8-.8-.4-.7-.9.2-1.5 1.1-.7 1.2-1.2.2-2.9-1.7-2.7-1.6-3.5.2-2 1.1.9 1.5.9 1.5.1 0-.6-.8-1.5-1.7-1.8-1-.4-2.4-1.3-3.1-2-.7-.7-1.9-1.3-2.5-1.3-.8 0-.7.4.1 1.2.7.7 1.2 1.9 1.2 2.7 0 1-.7.8-2.7-1s-2.5-2-2-.6c.6 1.5.4 1.6-1.3.7-1.1-.6-2-1.7-2-2.5 0-.9-.6-1.2-1.6-.8-1.3.5-1.3.7-.2 1.4 1.4.9 1 1.1-3.7 1.5-3.9.3-15.5-1.7-15.5-2.8 0-.4-.7-.8-1.6-.8-1.2 0-1.4-.3-.6-1.3.6-.6 1.1-1.7 1.2-2.2 0-.6 1.2-.9 2.6-.8 2.1.2 2.3-.1 1.4-1.7-.5-1-1-2.9-1-4.2 0-3.7-2.4-9.3-3.9-9.3-.8 0-1.6-.5-1.8-1.2-.3-.7.4-1 1.9-.7 1.3.2 1.7.2 1.1-.2-.7-.3-1.3-1.7-1.3-3 0-2.4-2-3.5-2-1.2-.1 1.9-2.1-1.9-2.6-4.7-.3-1.8 0-2.5 1.1-2.5 1 0 1.5 1 1.5 2.7v2.7l2-2.2c2.4-2.5 2.5-3.2.5-3.2-1.9 0-3.9-3.6-2.4-4.5.6-.4 1.3-.4 1.6-.1.4.3.1.6-.6.6-.9 0-.9.3.1 1.3.7.8 2 1.2 3 .9 1.2-.3 1.8.1 1.8 1.1 0 .9 1.6 2.4 3.5 3.3 4.2 2 5.2 3.3 3.4 4.5-.9.5-1.9-.1-3.2-1.9-1.7-2.5-1.8-2.5-1.4-.5.6 2.8-1.3 3.1-2 .3-.3-1.1-1-2-1.5-2-.6 0-.8.9-.5 2 .3 1.1.1 2-.4 2s-.9.7-.9 1.5.5 1.5 1.1 1.5c.5 0 .7-.4.4-1-.3-.6.1-.7.9-.4 1.9.7 2.1 2 .3 2.8-.6.3.5.3 2.6 0 3.8-.6 4.2-.3 3.8 3.8-.1 1 .8 2.3 2.2 2.9 3 1.4 4.8 4.9 3.6 7.1-.6 1.2-.3 1.7 1.2 2.1 1.5.4 2 1.2 1.7 2.4-.4 1.3.1 1.9 1.3 2 1.1.1 1.9-.3 1.9-.9 0-.7 1.5-.9 4-.5 2.2.3 4.2.1 4.6-.4.3-.5-.3-.6-1.3-.2-1.5.5-1.6.4-.5-.8 1-1.1 1.6-1.1 3.2-.1 2.2 1.3 2.4 1 2.2-3.6-.1-2.3 1.4-3 2.1-.9.2.6.3.4.2-.5-.2-1 .1-1.8.5-1.8s.6-.9.3-2c-.6-2.2.4-2.5 2.7-1 1 .6 1.1 1 .3 1-.7 0-1.3.9-1.3 1.9 0 1.1.6 1.8 1.6 1.7 1.1-.1 1.7.8 2 2.7.2 2.3-.1 2.7-1.3 2.3-1.3-.5-1.5.1-1.1 3.9.3 2.5.2 4.5-.2 4.5-1.1 0-2.1-3-1.4-4.1.7-1.2-.7-1.1-2.6.1-1.2.8-1.2 1-.1 1 .8 0 1.1.3.7.7-.3.4.7 2.1 2.4 3.8 2.4 2.5 3.1 4.2 3.3 7.8.2 3.7.6 4.7 2 4.7.9 0 1.7-.5 1.7-1 0-1.9 1.7-1 2.8 1.5.6 1.4 1.6 2.5 2.2 2.5.6 0 .9-.4.6-.9-.3-.5.3-1.1 1.3-1.4 1.4-.3 2.7.6 4.5 3.2 1.6 2.2 2.6 3 2.6 1.9 0-.9-.7-2.3-1.5-3.2-.8-.8-1.5-1.7-1.5-2 0-.9 3.4.6 4.6 2.1 1.5 1.8.7 13.5-1.1 14.8-.9.8-.2 1.1 2.6 1.1l3.9.1v-6.1c-.1-3.4-.9-8.5-2-11.6-1.1-3-1.9-6.4-2-7.5 0-1.2-.4-2.5-.9-3-.5-.6-1.8-4.2-2.9-8-1.2-3.9-4.1-13-6.6-20.3-2.5-7.4-4.6-14-4.6-14.8 0-.8-.8-3.3-1.9-5.7-1-2.3-2.6-6.9-3.5-10.2-.9-3.3-2.1-6.9-2.6-8-1.4-3.1-8.3-24.1-15-45.5-3.4-10.7-6.7-21.1-7.5-23-.8-1.9-1.7-4.6-2.1-6-.3-1.4-1.2-3.9-1.9-5.5-1.2-2.7-5-14.1-18.4-55.5-2.2-6.9-4.7-14.3-5.5-16.5-.8-2.2-1.5-4.9-1.5-6 0-1.4.4-1.1 1.1 1 .5 1.6 1.3 3.9 1.8 5s4.3 12.3 8.5 25c4.2 12.6 8.1 24 8.7 25.2 1.8 3.6 2 2 .4-2.3-.8-2.2-4.4-13.4-8.1-24.9-3.6-11.6-7.5-23.6-8.7-26.7-1.9-5.5-1.9-5.8-.2-8.7 1-1.7 2.2-3.1 2.6-3.1.4 0 .8-.5.8-1.2 0-.6-1.3.1-3 1.7-2.7 2.6-3 2.7-3.6.9-.3-1-1.1-3.5-1.9-5.4-3.8-10.6-3.9-11-1.3-13.8 1.3-1.5 3.7-4.4 5.4-6.6 1.6-2.1 4.8-6.4 7.2-9.4 4.6-6.1 5-7.2 2.6-7.2-2.3 0-5.5 4.2-4.3 5.6.6.8.4 1.4-.6 1.8-.8.3-1.5 0-1.5-.7s-.8.4-1.7 2.3c-1 1.9-2.1 3.8-2.6 4.1-.5.4-.6 1.2-.3 1.8.4.7-.1 1.1-1.3 1.1-1 0-2.2-.6-2.4-1.3-.3-.6-.4.3-.3 2 .2 1.8 0 3-.5 2.8-1.1-.8-3.9 3.6-3.9 6.1 0 1.2-.5 2.4-1.2 2.6-1.1.4-.3 5.2 1.6 9.9.4 1 .1 2.3-.8 3.2-.9.9-1.6 1.8-1.6 2.2 0 .3-3.1 4.4-7 9-3.8 4.5-8.3 10.4-10 12.9-1.8 2.7-3.6 4.3-4.2 3.9-.8-.4-.9 0-.5 1.1.5 1.4.3 1.7-.8 1.3-.8-.4-1.7-.1-2.1.5-.4.7-.3.8.4.4 2.1-1.3 1.3 1-1.2 3.3-1.5 1.4-2.6 1.9-3.1 1.2-.3-.6-1.1-1.1-1.6-1.1-.6 0-.3.7.6 1.6 1.5 1.6 1.4 1.9-1.5 4.5-1.7 1.6-3.7 2.9-4.5 2.9-2.2 0-2.7 1.8-1.5 5.3.9 2.8 6.5 22.5 14.5 51.7 4.2 15.3 7.4 26.4 9.4 32.5 1 3.3 1.5 6.2 1 6.3-.5.2-.7.8-.3 1.3.3.5-.1.9-.8 1-.7 0 .5.7 2.6 1.5 4.8 1.7 5.5 1.3 2.2-1.4-1.4-1-2.3-2.2-2-2.4.4-.5-5.4-22.6-9.2-35-.8-2.6-1.4-5.6-1.4-6.7 0-3.6 1.9-2.3 3 2.1.6 2.4 2.4 8.6 4 13.8 1.6 5.2 4 13.7 5.4 18.9 1.4 5.1 2.8 9.6 3.2 10 .4.3.3-.4 0-1.6-.9-2.9.2-5.1 1.6-3.2.7 1 .8.5.4-1.4-.8-3.5 1.1-3.6 2-.1.4 1.4.9 2.2 1.3 1.6 1.3-1.9 18.3-4 20.7-2.4.7.4 1.9 2.3 2.8 4.2.9 1.9 1.4 2.6 1 1.5-2.4-8.5-1.1-9.7 1.8-1.7 1.6 4.1 1.7 4.3 1.2 1.2-.3-1.9-.8-4.6-1.1-6-.4-2-.2-2.2.6-1 .9 1.3 1.1 1.3 1.1.1 0-1.1.4-1 1.6.5.8 1 1.2 1.2.8.4-.4-.8-.4-1.2.1-.8.8.8 5.3 14 9.9 29.3 1.5 4.9 4.1 13.5 5.7 19 1.7 5.5 3.9 12.5 4.9 15.5 3.5 10 4 13.5 1.9 14.8-2.6 1.7-3.4 1.5-1.8-.4 1.1-1.3 1.1-1.7-.1-2.5-4.5-2.6-4.6-2.8-3.2-4.9 1.1-1.8.9-2.2-1.8-3.8-1.6-.9-3-2-3-2.4 0-.4-.7-.5-1.6-.1-1.2.4-1.5.2-1.2-.8.3-.8 1.2-1.3 1.9-1.1.8.2.3-.8-1-2.2-2.9-3.1-3.4-3.2-2.6-.6.5 1.4.2 2-.9 2-.9 0-1.6.5-1.6 1.2 0 .6-1.1.1-2.4-1.1-1.4-1.4-2.2-3-1.9-4 .4-1.3.3-1.4-.5-.1-.8 1-.7 1.9.1 2.9 1 1.1.9 1.3-.3.8-.8-.4-2.3-1-3.2-1.3-1-.4-1.8-1.5-1.8-2.6s-.8-2.2-1.9-2.5c-2-.5-3.8-3.3-2.1-3.3.6 0 1 .5 1 1.1 0 .8.4.9 1.3 0 .8-.6 1.7-.8 2-.4.4.3.7.1.7-.6 0-.8-.7-1-1.9-.6-1.5.4-1.8 0-1.8-2 0-2.9 1.3-3.4 2-.8.2 1 .4.2.4-1.7 0-4.4-1.2-6-4.2-5.4-1.8.3-2.3.1-1.9-1 .3-.8.1-1.7-.5-2.1-.7-.4-1.1.3-1.1 1.7 0 1.7-.3 1.9-.9.9-.6-.9-1-1-1.6-.2-.3.7-1.5.9-2.6.6-1.6-.6-1.8-.2-1.3 2.4.4 1.8.2 3.7-.6 4.6-1.4 1.7-.5 3.6 1.5 2.9.8-.4 1.8.1 2.1 1 .3.9 1 1.6 1.6 1.6.5 0 .6-.5.2-1.2-.4-.7-.3-.8.4-.4 1.4.8-.2 4.6-1.9 4.6-.9 0-1.6-.5-5.2-3.5-2.1-1.8-7.3-3.6-9.8-3.4-4.3.4-5.4-.1-6.6-2.6-.9-2-.8-2.7.4-3.4 1-.5 1.2-1.1.5-1.5-.6-.3-1.8.4-2.6 1.6-1.8 2.5-2.1 1.7-.6-1.3.6-1 1.9-1.9 3-1.9 1 0 2.2-.5 2.5-1 .3-.6.1-1-.4-1-.6 0-1.1-.5-1.1-1 0-.6.9-1 2-1s2 .7 2 1.5.5 1.5 1 1.5c.6 0 1 .7 1 1.5s.5 1.5 1.1 1.5c.5 0 .7-.5.3-1.2-.4-.6-.3-.8.4-.4.5.3 1.2 0 1.5-.6.2-.7.8-.9 1.3-.5s.4 1.1-.2 1.5c-1.4.9-2.4 6.2-1.3 6.2.5 0 .9-.5.9-1.2 0-.6.7-.3 1.5.8 1.3 1.7 1.4 1.6.8-1.8-.4-2.5-.2-3.8.6-3.8.6 0 1.1-.7 1.1-1.5 0-1.8 2.1-2 3.9-.3 1.1 1.1 1.3 1 .9-.1-.2-.8-1.3-1.9-2.3-2.5-1-.6-2.7-1.9-3.8-3-1.5-1.4-1.6-2-.7-3 1-.8 1.1-.8.7 0-.4.7.2 1.4 1.4 1.7 1.2.3 1.8 1 1.4 1.6-.3.6 0 1.1.8 1.1.9 0 1.4-1.1 1.4-3.3.1-1.7-.1-2.7-.4-2.1-.7 1.9-5.2-.7-6.6-3.9-.8-1.9-1.8-2.6-2.9-2.3-1 .2-2.1 0-2.4-.5-.9-1.6-2.4-1-3.3 1.3-.5 1.4-.5 2.8.2 3.6.8 1 .7 1.6-.2 2.2-1.1.6-1.1.9 0 1.3s-9.4.2-10.9-.2c-.2-.1-.2-.9 0-1.8.2-1-.5-1.9-1.6-2.1-2.1-.5-4.6-2.6-4.6-3.9 0-1.8 7.5-1.2 9.3.8 1.9 2.1 6.7 2.6 6.7.7 0-.6.7-1.9 1.6-2.9 2.2-2.4 1-5.4-2.7-6.9-1.9-.8-2.6-1.6-1.9-2 .7-.4.8-1 .3-1.3-.5-.3-1.4.3-2.1 1.4-1 1.5-1 1.9.2 1.9.9 0 1.4.8 1.3 2-.1 1.8-.2 1.8-2.1.2-1.1-.9-1.6-1.1-1.1-.3.6 1 .2 1.2-1.6.7-1.3-.3-1.8-.3-1.1 0 .6.3 1.2 1 1.2 1.5 0 .6-.4.7-1 .4-.5-.3-1-.1-1 .5 0 .7-.6.8-1.9 0-2.5-1.3-3.4-1.3-2.6 0 .8 1.3-1.1 1.3-3.8-.2-1.9-.9-2-.9-1.1.3 1.3 1.6 2.7 6.9 1.9 6.9-.3 0-1.1-1.4-1.7-3.1-.6-1.8-1.3-2.6-1.8-2-.4.7-1.1.2-2-1.3-.7-1.4-1.7-2.3-2.2-2-.4.3-.8.1-.8-.4 0-.9 2.3-2.2 3.6-2.2.3 0 .3.9-.1 1.9-.3 1.1-.1 2.2.5 2.6.6.3 1-.3 1-1.5s.4-1.9.9-1.6c.5.4 1.2-.7 1.6-2.3.4-2 1.1-2.8 2.1-2.4.8.3 1.4 0 1.4-.7 0-.8 1.2-1.1 3.6-.8 3.6.4 3.6.4 1.5-1.3-2.5-2-3-7.5-.6-6.5 1 .3 1.5-.1 1.5-1.4 0-2.6-1-3-5-2-1.9.4-2.8.8-2 .9.9.1.6.7-1 1.8-3.3 2.3-5 2.5-5.7.7-.8-2.2 1.4-4.1 2.9-2.6 1.5 1.5 3.2 1.6 2.3.1-.4-.6.2-1.3 1.4-1.6 1.1-.3 1.8-.9 1.6-1.4-.3-.4-1.9-.3-3.6.3-1.8.6-3.4.7-3.8.2-.3-.5-1.4-1-2.3-1-1.3-.1-1.5.3-.8 2.2.6 1.6.6 2.4-.1 2.4-.6 0-1.3-.9-1.6-1.9-.3-1.4-1.8-2.2-4.6-2.7-3.9-.6-4-.8-1.9-1.7 1.2-.5 2.2-1.6 2.2-2.2 0-.7-1.6-7.5-3.6-15.1-2-7.7-4.7-18-5.9-22.9-1.3-5-2.7-10.2-3.2-11.7l-.8-2.8-4.1 4.8c-3.6 4.1-3.9 4.9-2.7 6.1.8.8 1.3 2.4 1 3.7-.2 1.3-.1 2.4.3 2.4s1 1 1.3 2.2c.3 1.3 1.7 6.8 3.2 12.3 1.5 5.5 3.3 12.8 4.2 16.3 1.1 4.7 2 6.6 3.6 7.2 2.5 1 1.6 1.3-3 1-1.8-.1-3.3.3-3.3.9 0 .6.9 1.1 2 1.1s2 .7 2 1.6c0 .8-.5 1.2-1 .9-.8-.5-.9 1-.4 4.4.6 4.3.4 5.1-1 5.1-1 0-1.6-.8-1.6-2.3 0-1.2-.5-2.9-1-3.7-.8-1.1-.9-.7-.6 1.5l.6 3-1.2-2.7c-.6-1.5-2.4-3.2-4-3.7-1.5-.6-2.8-1.3-2.8-1.7 0-.3.6-.4 1.3-.1.8.3 2 .1 2.8-.4.8-.5.9-.9.2-.9-.6 0-.9-.9-.6-2 .3-1-.9-7.6-2.7-14.5-1.8-6.9-3-13.5-2.7-14.6.3-1 .1-1.7-.3-1.4-1.2.7-2.4-6-1.4-7.6.5-.8.3-1-.6-.4-1 .6-1.2-.1-.7-3.1.3-2.1.3-3 0-1.9-.4 1.5-.9 1-1.9-2.5-1.6-5.4-1.7-7-.3-5 .8 1.2.9 1 .7-1-.1-1.4.1-3.2.6-4 .4-.8-.1-.5-1.1.6l-1.9 2.2-1.2-5.8c-.7-3.2-2.1-7.8-3.1-10.2-1.1-2.4-2.3-6.1-2.7-8.3-.3-2.2-1-4.5-1.4-5-1.1-1.6-2.2-12.7-1.1-12.1.5.3.7-.3.4-1.5-.4-1.6-.8-1.7-1.4-.7-.7 1-.9.9-.9-.3 0-1.8 2.4-4.2 3.3-3.3.3.3.3-.3 0-1.5s-.7-2.1-.9-2.1c-.9 0-4.4 3.5-4.4 4.5 0 .5.5.3 1.1-.5.9-1.2 1-1.2.5.3-.3 1-.6 2.3-.6 2.8s-.4.9-1 .9c-.5 0-.7-.6-.4-1.4.6-1.6-2.2-3-3.1-1.6-.4.6-.3 1.5.1 2.2.4.6.3.8-.3.5-.5-.3-1.8.4-2.8 1.5-1.7 2-1.7 2.6-.3 10.2.9 4.5 2.2 10.4 3 13.3.8 2.9 1.1 5.4.7 5.5-.8.3 2.7 17.1 9.1 43.4 1.7 6.6 3 13 3 14.2 0 1.2.9 2.6 2 3.2 2.6 1.4 2.6 4-.1 4-1.5 0-1.9-.5-1.5-1.8.4-1.1.1-1.9-.6-2-8.6-.9-10.6-.8-10.1.5.3.7.1 1.3-.5 1.3-.5 0-1.3-.7-1.6-1.6-.3-.8-1.4-1.4-2.3-1.3-4 .4-5.1-.2-6.1-3.4l-1.2-3.2.5 3.2c.4 3.2-.5 4.9-1.9 3.5-.4-.4-2.2-.8-3.9-.9-8.8-.5-9.7-.8-9.8-2.8-.1-1.7-.2-1.7-.6-.3-.7 2.8-1.8 2.1-1.9-1.2-.1-1.7.3-3 .7-3 .5 0 .9-1.9 1-4.3 0-3.3.2-3.8.9-2.2.9 1.9.9 1.9 1.6-.3 1.4-4.8 2.8-1.9 2.7 6 0 1 .5 1.8 1 1.8s.7 1.1.5 2.5c-.4 1.6-.1 2.5.8 2.5 2.4 0 2.5-1.9.3-12.7-2.2-10.7-2.2-11-.4-16.6 1.3-4.2 2.1-5.4 2.7-4.5.7.9.9.7.5-.7-.2-1.1.2-2.7 1-3.4.8-.7 1.4-2.5 1.3-4-.4-5.5 0-8.2 1.1-7.6.6.4.8.9.5 1.2-.2.3.2 2.6.9 5.1.8 2.6 2.8 11.9 4.5 20.7 3.5 18.6 4.9 23.5 6.5 23.5.9 0 .7-2.5-.7-9.3-1-5-2.3-11.9-2.9-15.1-.5-3.3-1.2-6.3-1.5-6.8-.5-.8-3.9-19.7-5-27.8-.3-2.7-.2-3.1.5-1.5.7 1.4 1-.6 1-7.1.1-5-.2-9.3-.5-9.7-.4-.3-.8-5.2-1.1-10.9-.2-5.7-1.1-13.8-2-18.1-1.5-7.5-1.5-8 .2-10.9 1-1.7 1.2-2.8.6-2.3-.9.5-.9.1.1-1.4.7-1.2 2-2.1 2.8-2.1 1.2 0 1.2-.2.1-.9-.9-.6-1-1.1-.2-1.5.6-.4 2.7-4 4.6-7.9 4.2-8.6 7.4-14 8.7-14.8.6-.4.8-1.5.6-2.5-.3-1.5-1-.9-3.1 2.6-1.5 2.5-2.7 4.1-2.7 3.7 0-.5 1.5-3.4 3.4-6.5 5.2-8.8 14.7-26.9 18.2-35 1.8-4 5.3-10.9 7.9-15.5 2.6-4.5 6.8-11.7 9.2-16 2.5-4.3 4.2-8.4 3.9-9.2-.4-1.2-.2-1.3 1.4-.3 1.1.7 1.6 1.5 1.1 1.8-1 .6-4.7 7-10.6 18.5-2.5 4.9-5.8 11-7.2 13.5-5.9 10.4-8.3 15.9-7.7 17.6.5 1.5.4 1.6-.4.5-.8-1.2-1.4-.7-2.8 2.2-1.5 3.1-1.6 3.9-.4 5 1 1 1.1.9.5-.2-.6-1.1-.4-1.3.8-.8 1.2.4 1.4.1 1.1-1.8-.2-1.4.2-2.5 1.1-2.9.9-.3 1.5-1.1 1.4-1.8-.4-2 1.1-5.8 2.2-5.8.6 0 .8-.4.4-.9-.3-.5.1-1.5.8-2.3 1.9-2 6.2-9.2 6-10-.2-.4.8-1.9 2.2-3.4 1.4-1.5 2.5-3.3 2.5-4.1 0-.7.7-2.5 1.6-3.8.9-1.4 1.3-2.5 1-2.5-.4 0-.2-.9.4-2 .6-1.2 1.6-1.8 2.3-1.4.7.4.9.4.5-.1-.4-.4-.2-1.5.4-2.3.7-.7 1.3-2.4 1.5-3.5.2-1.2 1.5-3.2 3-4.4 2.5-2 2.9-2.1 4.8-.8 1.1.9 2.7 1.8 3.5 2.2.8.3 4.7 2.7 8.6 5.2 3.8 2.5 7.7 5 8.6 5.6.9.5 7.5 4.8 14.7 9.5 7.3 4.7 14 8.9 14.9 9.5 5.2 3 22.2 13.7 24.1 15.2.2.1-.8 1.7-2.3 3.5-10.4 12.8-10.7 13.4-9.5 16.4 1 2.3 1.3 2.5 1.6 1.1.3-.9 1.1-1.7 1.9-1.7.8 0 1.4-.5 1.4-1 0-.6.9-2.1 2.1-3.3 1.2-1.2 3.1-3.8 4.4-5.7 3.5-5.4 4.8-6.3 7.9-4.9 1.4.7 2.6 1.6 2.6 2 0 .4 1.1 1 2.4 1.3 1.4.3 3.1 1.2 3.8 2 .8.7 3.2 2.3 5.4 3.5 4.8 2.7 9.2 5.4 16.7 10.3 3.2 2.1 6 3.8 6.3 3.8.2 0 .3-4.3.3-9.6v-9.6l-2.9 2.7-2.8 2.7-4.3-2.8c-2.4-1.6-4.6-3-4.9-3.2-.2-.2.1-.7.8-1.1 1-.6 1-1.3.1-3.4-1-2.1-1.4-2.4-3-1.4-1 .6-1.5 1.5-1.3 1.9 1 1.5-2.1.7-4.6-1.2-1.4-1.1-3-2-3.6-2-1.4 0-6-4-5.7-5 .1-.4-.6-.6-1.5-.3-2 .5-7.5-3.4-6.7-4.8.4-.5-.4-.9-1.5-.9-2.8 0-15.1-8-14.3-9.3.3-.6.1-.7-.5-.3-1.4.8-7.9-2.3-6.6-3.3 3-2.1 7.3-11.1 5.3-11.1-.5 0-.9.5-.9 1.2 0 .6-.3.9-.6.5-.4-.3.3-2.1 1.5-3.9 2-2.9 2.2-3 1.7-.8l-.6 2.5 1.1-2.5c.6-1.4 1.5-3.3 2-4.3.5-.9.6-1.7.2-1.7-.5 0-1.4-1.3-2.1-2.9-1.2-2.6-1-3.1 1.5-5.9 1.5-1.6 3.6-4 4.5-5.3 3.7-5.2 6.7-8.3 6.8-7.1 0 .8.5 1 1.2.6.8-.5.9-.2.5 1-.4 1-.7 2.3-.7 3 0 .7-.9 2.3-2 3.6-2.4 2.8-2.5 4.6-.4 5.4 1.3.5 1.4.9.4 2.1-.7.8-1 2.2-.6 3 .3.9.2 1.3-.3 1-.5-.3-1.2-.1-1.6.5-.4.6.6 1 2.5 1 1.7 0 2.9.4 2.5 1-.3.5-1.2.7-2 .3-.8-.3-1.5 0-1.5.6s.4 1.1 1 1.1c.5 0 .7.6.4 1.4-.3.8.4 1.6 1.8 2 1.7.4 1.9.8 1 1.4-1 .7-1 1.5-.2 3.8 1 2.5 1.3 2.7 2.3 1.3.7-.9 2.3-3 3.7-4.7 2.4-3 2.5-3 3.5-1.1 1 1.8 1.7 1.3 7.3-6 3.4-4.4 6.2-8.4 6.2-8.9s.7-1.5 1.5-2.2c.8-.7 1.5-1.7 1.5-2.2 0-.6-.7-.4-1.6.3-1.5 1.2-1.6 1.1-.9-1.1.7-2.3.4-2.2-2.4.9-3.1 3.5-3.5 4.2-3.2 7.3.1 1.1-.4 1.5-1.6 1.2-1.2-.3-2.7.8-4.7 3.6-1.5 2.3-3.1 3.9-3.4 3.5-.9-.9-3-7.5-2.2-7 .4.2 2.2-1.7 4.1-4.3 1.8-2.6 3.7-5 4.2-5.3.6-.4.7-1.4.4-2.2-.4-1.2-.2-1.4 1-1 1.1.4 1.4.2 1.1-.8-.3-.8.2-1.9 1-2.5 1.2-.8 1.2-1.5.3-3.3-.7-1.2-1.7-1.9-2.3-1.5-.7.4-.6.9.3 1.5 2 1.2.2 1.1-2.2-.1-1.3-.7-1.9-.7-1.9 0 0 .5.6 1 1.3 1 .8 0 .9.3.1.8-.6.4-1.4 1.9-1.8 3.4-.3 1.5-1.7 3.3-3.1 4-1.3.7-2.5 1.7-2.6 2.3-.2 1-.4 1.8-1.2 4.5-.3 1-.8.6-1.6-1.4-1.5-3.7-1-6.1 1.1-6 1.1.1 1.4-.4 1-1.5-.5-1.4-.4-1.4 1.3-.1 1.7 1.4 1.8 1.4.6-.8-.7-1.4-.8-2.2-.1-2.2.5 0 1-.6 1-1.3 0-.8 1.1-2.7 2.5-4.3 1.4-1.6 2.5-3.3 2.5-3.7 0-.5 1.1-2.3 2.4-4 1.5-2 2.2-3.8 1.7-4.5-.5-.9-2 .6-4.7 4.7-4.3 6.7-6 7.5-7 3.3-.4-1.5-.9-3.1-1.1-3.5-.9-1.6-4.1 2.4-4.7 5.9-.8 3.8-2 4.3-3.6 1.5-1.5-2.9-1.2-4.9 1-7.1 1.2-1.2 1.8-2.6 1.4-3.2-.5-.8-.2-.9.9-.5 1 .4 1.7.1 1.7-.6s.9-2.3 2-3.7c2.5-3.2 2.5-4 .1-4-1.3 0-2.4 1.1-3.2 3.5-.7 1.9-1.8 3.5-2.5 3.5-2 0-3.7 5.7-3.1 10.7.3 2.5.1 4-.3 3.3-.6-.9-1.1-.6-2 1.1-.7 1.3-1.9 2.8-2.6 3.2-.8.4-1.4 1.5-1.4 2.2 0 .8-.5 1.5-1.1 1.5-.6 0-.9.9-.6 2 .3 1.1.2 1.8-.3 1.5-1-.6-5.5 5.3-5.6 7.7-.1 1-.4 2.2-.8 2.6-.8.7-2.6-1.6-2.6-3.3 0-.6.4-.3 1 .5 1.3 2 1.8 1 1-2l-.6-2.5-1.9 2.8c-1.2 1.8-1.5 3.1-.8 3.5.5.4 1.5 1.7 2.2 3 1.2 2.3.8 3.1-7 14.5-.7 1-5.9-1.9-22.3-12.3-3.9-2.4-8.2-5.1-9.6-5.8-5.4-3.1-6.6-3.8-10.5-6.3-4.4-2.9-7.3-5.9-5.7-5.9.5 0 1.3-1.2 1.6-2.6.5-1.7 1.2-2.4 2.1-2 1.9.7 3-1.3 1.5-2.7-1-1-1.1-.8-.6.8.6 1.7.5 1.8-.6.7-1.1-1.2-.9-1.7 1-2.9 1.2-.9 2.2-2.5 2.2-3.7 0-1.1.5-2.8 1.1-3.6.8-1.2.9-.9.4 1-.6 2.4-.5 2.4 1-.3.9-1.5 1.9-2.6 2.3-2.3.4.2.8-.4.8-1.4 0-1-.4-1.7-.7-1.4-.4.2-.1-.9.7-2.6.9-1.6 1.9-3.2 2.5-3.5 1.4-.9 1.1-2.5-.4-2.5-.8 0-2 1.2-2.8 2.7-.7 1.6-3.4 6.4-5.9 10.8-2.5 4.4-5.4 9.7-6.5 11.8-1.7 3.3-3.5 4.8-3.5 3.1 0-.3 3.2-6.6 7-14 3.8-7.3 7-13.6 7-13.9 0-.3-23.2-.5-51.5-.4-38.1.1-51.5.4-51.5 1.2 0 .7-.5.5-1-.3-.8-1.3-1-1.2-1 .3 0 .9.6 2.6 1.2 3.7 1 1.6 1 2.4 0 4-.6 1.1-1.2 2.7-1.2 3.5 0 1.8-1.7 2-2.2.3-.3-.7-.7-.5-1.1.6-.4.9-.3 1.5.2 1.2.5-.3 1.2.1 1.5 1 .4 1.2.1 1.4-1.4.9-1.3-.4-2-.2-2 .7-.1.7-.7.2-1.4-1.1-1.2-2.1-1.4-2.1-2-.6-.3 1-.4 2-.1 2.3.3.3.5-.1.5-.9.1-3.2 2 1.7 2 5.1 0 1.9.5 4.2 1 5 .9 1.3 1.1 1.3 2.1 0 .9-1.3 1-1.2.5.3-.3 1-.6 2.1-.6 2.3 0 .2-.7.4-1.5.4-1.1 0-1.4.7-.9 2.5.4 1.5.2 2.5-.5 2.5-.6 0-1.1-.5-1.1-1.1 0-.8-.4-.8-1.4 0-2 1.7-2.5 5.5-1 8.2.7 1.3 1.3 2.8 1.3 3.4 0 .5-.6-.1-1.4-1.5-1.6-2.8-2.1-.9-.5 2.1.7 1.3.7 1.9 0 1.9-.5 0-1-.5-1-1 0-.6-.7-1-1.5-1s-2.2-1.1-3.1-2.5c-.9-1.4-2.3-2.5-3.2-2.5-.8 0-2.3-.8-3.2-1.7-1.5-1.6-1.5-2.3.2-8.8 2.9-11.8 5.2-19 6-19.3.5-.2.6-.7.3-1.2-.3-.4.2-2.7 1-5S174 .6 174 .4c0-.2-1.7-.4-3.8-.4h-3.7l-1.4 5.7c-1.3 5.9-6.7 25.6-7.6 28.2-.4 1-.8 1.1-2 .1-.8-.7-1.2-1.7-.9-2.2.4-.6-.3-.5-1.5.1-1.4.8-2.1.8-2.1.1 0-.5-1.1-1-2.5-1-4.4 0-7.5-2.1-7.5-5.1 0-1.5.5-3.1 1.1-3.4.6-.4.8-1.3.5-2.1-.4-1.2.1-4.1 3-17.7.5-2 .3-2.7-.9-2.7-1 0-1.7 1.4-2.1 4.2zm78.8-.7c2 1.4 4.1 2.5 4.5 2.5.5 0 1.3.6 1.9 1.3.8 1 .6 1.3-.8 1.3-1 0-1.7-.3-1.5-.6.6-1-7.9-6.1-9.3-5.5-.7.2-1 0-.7-.5.9-1.5 1.9-1.2 5.9 1.5zm1 3.3c.3.5-.1.9-.9.9s-1.2-.4-.9-.9c.3-.4.7-.8.9-.8.2 0 .6.4.9.8zm-6.3 4.9c-1.2 2-1.4 1.4-.5-1.2.4-.9.9-1.4 1.1-1.1.3.2 0 1.3-.6 2.3zm76.9-1.3c0 .3-.4.8-1 1.1-.5.3-1 .1-1-.4 0-.6.5-1.1 1-1.1.6 0 1 .2 1 .4zM191 12c0 .5-.7 1-1.5 1s-1.5-.5-1.5-1c0-.6.7-1 1.5-1s1.5.4 1.5 1zm21 2.5c0 .5-.5.3-1-.5s-1-2-1-2.5c0-.6.5-.3 1 .5s1 1.9 1 2.5zm33 3.6 2.5 2.1-3.5-2.1c-1.9-1.1-5.2-2.9-7.2-4.1-2.1-1.1-3.8-2.3-3.8-2.6 0-.8 9 4.3 12 6.7zm-50.8 2.1c-.8.8-.9.4-.5-1.3.4-1.3.8-1.8 1.1-1 .2.7-.1 1.8-.6 2.3zm-11.5 1c-.3.8-.6.5-.6-.6-.1-1.1.2-1.7.5-1.3.3.3.4 1.2.1 1.9zM365 20c0 .5-.4 1-1 1-.5 0-1-.5-1-1 0-.6.5-1 1-1 .6 0 1 .4 1 1zm-112.4 3.1c.4.8.1.8-1.4 0-1.2-.6-2.4-1.6-2.8-2.2-.4-.8-.1-.8 1.4 0 1.2.6 2.4 1.6 2.8 2.2zm-55.2-.5c.5 1.4.4 1.5-.9.4-1.7-1.4-1.9-2-.6-2 .5 0 1.2.7 1.5 1.6zm-12 1.2c.3.5-.1.9-.9.9s-1.2-.4-.9-.9c.3-.4.7-.8.9-.8.2 0 .6.4.9.8zm15.6 1.3c0 .6-.4.7-1 .4-.5-.3-1-.1-1 .6s-.2 1-.5.7c-.9-.8.6-3.8 1.6-3.2.5.3.9 1 .9 1.5zm57.6 2c.3.6-.5.3-2-.6-1.4-1-2.6-1.9-2.6-2.2 0-.7 3.9 1.7 4.6 2.8zM205 28.5c0 .5-.5.3-1-.5s-1-2-1-2.5c0-.6.5-.3 1 .5s1 1.9 1 2.5zm-10.9 1.2c-1.2 2-1.4 1.4-.5-1.2.4-.9.9-1.4 1.1-1.1.3.2 0 1.3-.6 2.3zm68.4-.7c.3.6-.1.7-.9.4-1.8-.7-2.1-1.4-.7-1.4.6 0 1.3.4 1.6 1zm-56.6 3.1c.4-.6.7.5.8 2.4.1 1.9-.3 3.8-.8 4.1-.5.3-.6-.2-.3-1.1.4-.8-.1-2.6-1-4-.9-1.3-1.6-2.8-1.6-3.2 0-.4.5 0 1.1 1.1.8 1.2 1.4 1.5 1.8.7zm63.6 1.4c1.9 1.5 1.8 1.5-1.2.1-1.7-.9-3.5-2.1-3.9-2.7-.8-1.3 2.1.1 5.1 2.6zm90.5-.7c0 1.2-.9 1.8-2.5 2-2.6.2-2.6.2-.8-2.2 2-2.6 3.3-2.5 3.3.2zm-155.9 2.7c.7 1.3.3 1.2-1-.5-1.1-1.4-2.1-3-2.1-3.5 0-1.1 1.4.7 3.1 4zm-17.7 1.9c-.6 1.6-2.4 1.3-2.4-.5 0-.6.5-.7 1.1-.3.8.4.9-.1.5-1.7-.6-1.9-.5-2.1.4-.7.5.9.7 2.3.4 3.2zm3.1-.9c-.1 1.9-.4 3.7-.7 4-.4.5-.4-6.5.1-7.3.5-.8.7.3.6 3.3zM381 34.9c0 1.3-2.9 3.5-3.7 2.7-.3-.3-.1-.6.5-.6.7 0 1.2-.7 1.2-1.5s.5-1.5 1-1.5c.6 0 1 .4 1 .9zM192.5 37c.3.5.1 1-.4 1-.6 0-1.1-.5-1.1-1 0-.6.2-1 .4-1 .3 0 .8.4 1.1 1zm9 .9c-.8 1.4-2.5 1.4-2.5 0 0-.5.5-.7 1-.4.6.3 1 .1 1-.6s.3-1 .6-.6c.3.3.3 1-.1 1.6zm-6.8 2.2c0 2.1-.3 2.6-.9 1.6-.4-.9-.5-2.2-.2-3.1.9-2.3 1.1-2 1.1 1.5zM341.2 43c-.9 1.7-2 3-2.4 3-1.3 0-.9-1.7.7-3 .8-.7 1.5-1.9 1.5-2.7 0-.8.4-1.2.9-.8.6.3.3 1.8-.7 3.5zm-158.7 5.8c-.5.5-1.8-2.6-2.9-6.8-.3-1.4.3-.5 1.4 1.9 1.1 2.4 1.8 4.6 1.5 4.9zm18.8-8c.3-.7.4.4.2 2.5-.1 2.1-.6 4.1-1 4.5-.5.4-.5-.1-.2-1.1.9-2.3-.2-4.4-1.3-2.7-.5.8-.7.3-.7-1.3.2-1.8.5-2.2 1.4-1.6.7.7 1.3.5 1.6-.3zm-12.2 4.5c-1 .9-1.1.8-.5-.6.3-1 .9-1.5 1.2-1.2.3.3 0 1.1-.7 1.8zM194 47c0-.8.3-1.1.6-.7.3.3.2 1.2-.3 2.1-.7 1.3-1.1 1.2-2.2-.7-1.3-2-1.3-2.1.2-.8 1.4 1.1 1.7 1.1 1.7.1zm-14.9 2.7c-1.2 2-1.4 1.4-.5-1.2.4-.9.9-1.4 1.1-1.1.3.2 0 1.3-.6 2.3zm20.6 2.4c-.5.4-.6 1.2-.2 1.9.6.9.9.9 1.6-.1.6-1 .9-1 .9-.2 0 .7-.8 1.6-1.7 2.2-1.4.8-1.5 1.2-.4 2.5.7.9.9 1.6.3 1.6-1.3 0-2.4-2.9-1.6-4.2.4-.5-.3-2.3-1.5-3.9-2.3-3.1-1.8-4.1.6-1.2 1.2 1.6 1.3 1.5.7-1.2l-.6-3 1.4 2.5c.9 1.5 1 2.8.5 3.1zM361 47.8c0 .5-.7.9-1.5.9s-1.2-.4-.9-.9c.3-.4.9-.8 1.5-.8.5 0 .9.4.9.8zm-166.9 8.1c1-1.6 1.2-.8.3 1.6-.5 1.3-1.1.9-3-1.7-1.3-1.7-2.4-2.6-2.4-1.8 0 .7-.2 1.1-.5.8-.3-.3-.3-1.3.1-2.2.5-1.4 1-1.1 2.6 1.5 1.6 2.5 2.2 2.9 2.9 1.8zm2.8-1.5c-.3.3-1.1-.5-1.8-1.7-1.3-2.1-1.2-2.1.5-.5 1 1 1.6 2 1.3 2.2zm-12.3-.9c-.3.8 0 2.6.6 4l1.1 2.5 2-2.3 1.9-2.2-.6 2.2c-.6 1.8-.4 2.2.7 1.7.8-.3 1.8 0 2.2.5.3.6 1 .9 1.4.7 1-.7.7 5.2-.4 6.2-.4.4-.5-.3-.1-1.4.4-1.4.1-2.8-1-3.9-1.6-1.6-1.8-1.5-3.1.7l-1.4 2.3.7-2.4c.5-1.9.3-2.3-1-1.8-1.2.5-2.2-.5-3.7-3.4-1.1-2.3-1.6-3.8-1-3.4.6.3 1.1.1 1.1-.4 0-.6.3-1.1.6-1.1s.4.7 0 1.5zm21.5.8c-1 .9-1.1.8-.5-.6.3-1 .9-1.5 1.2-1.2.3.3 0 1.1-.7 1.8zM173 77c0 .5-.4 1-1 1-.5 0-1-.5-1-1 0-.6.5-1 1-1 .6 0 1 .4 1 1zm159 22c0 .5-.5 1-1.1 1-.5 0-.7-.5-.4-1 .3-.6.8-1 1.1-1 .2 0 .4.4.4 1zm-152.5 1c-.3.5-1.1 1-1.6 1-.6 0-.7-.5-.4-1 .3-.6 1.1-1 1.6-1 .6 0 .7.4.4 1zm4.5 0c0 .5-.4 1-.9 1-.6 0-1.3-.5-1.6-1-.3-.6.1-1 .9-1 .9 0 1.6.4 1.6 1zm215 1c0 .5-.5 1-1.1 1-.5 0-.7-.5-.4-1 .3-.6.8-1 1.1-1 .2 0 .4.4.4 1zm-308.5 1c-1.1.5-2.7.9-3.5.9-.9 0-.8-.4.5-.9 1.1-.5 2.7-.9 3.5-.9.9 0 .8.4-.5.9zm82.4 5.4c-.2.2-1.5.9-2.9 1.6-2.3 1.2-2.4 1.2-1.1-.3.7-1 2-1.7 2.9-1.7.8 0 1.3.2 1.1.4zm9.6 3.8c-2.9 1.6-2.9 1.6-1.5 3.3.7.8.9 1.5.6 1.5-.4 0-.2.9.4 2 1 1.8.8 1.9-2.2 1.3-3.2-.6-3.3-.6-1.4 1.2 1.8 1.8 3.4 2.8 9.9 6.2 2.1 1.1 2.6 2 2.1 3.5-.4 1.5-.2 1.9 1.3 1.7 2.6-.3 5.3 1.1 5.3 2.7 0 .8-.9 1.4-1.9 1.4-1.1 0-2.2.6-2.4 1.2-.4.8-.9.4-1.3-1-.5-1.8-.9-2-1.5-1-.7 1.1-1.1 1-1.9-.2-.9-1.3-1.1-1.3-2 0-1.5 2.3-1.2 3.9 1.1 6.3l2.2 2.2-.7-2.8c-.5-2.1-.3-2.8.6-2.5.7.3 1.3 1.7 1.3 3.1-.1 1.8.3 2.3 1.1 1.6.8-.6 1.6-.4 2.5.8 1.2 1.5 1.2 1.6-.5 1-1.4-.6-1.7-.4-1.2.9.3.8.6 2 .6 2.5 0 .4.6.6 1.3.3.8-.3 1.8.6 2.4 1.9 1.2 2.5.2 5.3-2.5 7.3-.8.6-1.2 1.6-.8 2.2 1.1 1.8-1.9 1.4-3.4-.3-1.6-2-9.8-7.5-11.1-7.5-.5 0-.9-.7-.9-1.5s.5-1.5 1-1.5c1.2 0 1.4-12.7.2-13.2-.5-.2-.5-1.4-.2-2.8l.7-2.5 1.2 2.8c1.2 3.1 3.5 3.2 3.8.1.3-1.8.2-1.8-.6.1l-1 2v-2c-.1-1.3-2.6-3.7-7.6-7-4.1-2.8-7.5-5.3-7.5-5.7 0-.4-.7-1.3-1.5-2.1-1.2-1.3-1.2-1.5.5-2 1.4-.3 1.7-.1 1.3 1.2-.4 1.1-.1 1 1-.4 1.3-1.7 1.3-2 .1-2.3-1.1-.3-1.2-.6-.1-1.6 1.9-1.9 6.7-3.4 11.2-3.5 3.5 0 3.7.1 2 1.1zm134.8 22.3.6 3-1.3-3c-.7-1.7-1.6-4.4-1.9-6l-.6-3 1.3 3c.7 1.6 1.6 4.3 1.9 6zm-282.6 1.7c-.3.7-.5.2-.5-1.2s.2-1.9.5-1.3c.2.7.2 1.9 0 2.5zM222 135c0 .5-.5 1-1.1 1-.5 0-.7-.5-.4-1 .3-.6.8-1 1.1-1 .2 0 .4.4.4 1zm98.5 7c.7 2.4.7 2.4-.9.5-.8-1.1-1.5-2.9-1.5-4 0-1.6.1-1.7.8-.5.5.8 1.2 2.6 1.6 4zm-104.2 2.5c-.3.9-.8 1.4-1 1.1-.3-.3-.2-.9.2-1.5.9-1.6 1.5-1.3.8.4zM199 147c0 .5-.2 1-.4 1-.3 0-.8-.5-1.1-1-.3-.6-.1-1 .4-1 .6 0 1.1.4 1.1 1zm-2.5 13.6c-.8.9-1.5 2-1.5 2.6 0 .6-.2.9-.5.6-.9-.8 1.7-5.8 2.7-5.2.4.3.1 1.2-.7 2zm2.2 2.6c-.3.8-.6.5-.6-.6-.1-1.1.2-1.7.5-1.3.3.3.4 1.2.1 1.9zm80.4 22.9c.4 1.3 1.9 6.3 3.4 11.1 2.9 9.6 3.1 15 .2 8.4-.9-2.1-1.7-4.4-1.7-5.1 0-.7-1.1-4.7-2.5-8.9-2.9-8.8-2.9-8.9-1.3-8.4.6.2 1.5 1.5 1.9 2.9zm-50.4 3.1c-.3.8-.6.5-.6-.6-.1-1.1.2-1.7.5-1.3.3.3.4 1.2.1 1.9zM291 227c0 .5-.4 1-1 1-.5 0-1-.5-1-1 0-.6.5-1 1-1 .6 0 1 .4 1 1zm-127.5 4c-1 1.1-2.3 2-2.8 2-.6 0-.2-.9.8-2s2.3-2 2.8-2c.6 0 .2.9-.8 2zM102 247.4c0 1.1-1.9 1.5-2.5.6-.3-.5.1-1 .9-1 .9 0 1.6.2 1.6.4zm147.5 3.6c-1.9.8-1.9.9.3.9 1.2.1 2.2-.4 2.2-.9 0-.6.5-1 1-1 .6 0 1 .7 1 1.5 0 1-1.1 1.5-3.5 1.5-3.3 0-4.3-.8-2.8-2.3.3-.4 1.3-.7 2.2-.6 1.2 0 1.1.3-.4.9zm58.8 17c-.3.3-.8-.1-1-.8-.3-.6-.8-1-1.2-.7-.5.2-.6-.8-.3-2.3l.5-2.7 1.3 3c.7 1.6 1 3.2.7 3.5zm-91-1.3c-.7.3-1.3 1.1-1.3 1.8 0 .8-.5 1.7-1.1 2.1-.8.4-.9-.1-.4-1.7.8-2.5 2.6-4.2 3.5-3.2.3.3-.1.8-.7 1zm11.7 2c0 3.2-1.2 2.3-1.6-1.2-.1-1.4.2-2.3.7-2 .5.4.9 1.8.9 3.2zm7.1-1.8c.4-.7 1.1-1 1.5-.7.3.4-.1 1.4-1 2.3-.9.9-1.6 1.4-1.6 1.2 0-.3-.2-1.1-.3-1.9-.2-.7-.2-.9.1-.4.2.4.8.2 1.3-.5zm12.3.7c.3.8.2 1.2-.4.9-.6-.3-1-1-1-1.6 0-1.4.7-1.1 1.4.7zm-7.4.9c0 .8-.4 1.5-1 1.5-.5 0-.7-.7-.4-1.5.4-.8.8-1.5 1-1.5.2 0 .4.7.4 1.5zm15.6-.3c.4.7.3.8-.4.4s-1.2-.2-1.2.4c0 .6-.4.8-1 .5-.9-.5-1.4.6-1.2 2.6.1.3-1.3.3-2.9.1-3.4-.5-3.3-.7 1.3-3.2 4-2.3 4.5-2.3 5.4-.8zm-25.9 3c-.3.8-.6.5-.6-.6-.1-1.1.2-1.7.5-1.3.3.3.4 1.2.1 1.9zm2 1c-.3.8-.6.5-.6-.6-.1-1.1.2-1.7.5-1.3.3.3.4 1.2.1 1.9zm13.3-.3c0 .5-.9 1.1-2 1.4-1.2.3-2 0-2-.7 0-.6.9-1.2 2-1.3 1.1-.1 2 .2 2 .6zm24.5 1.1c-.3.5-.1 1 .4 1 .6 0 1.1-.4 1.1-.9s1.1-.4 2.5.2c1.4.7 2.5 1.8 2.5 2.4 0 .7.9 2.2 2 3.3 1.1 1.1 1.7 2 1.4 2-1.1 0-5.3-3.7-4.8-4.2.2-.3-.3-1.1-1.2-1.9-1.4-1.1-1.7-1-2.5.4-.6.9-1.4 1.7-1.9 1.7-1.1 0-1.3-3.3-.3-4.3s1.5-.8.8.3zm25.1 1.5c-.9.9-1.3 2.1-1 2.7.4.7.2.8-.5.4-.6-.4-.8-1.3-.5-1.9 1.4-2.4 2.7-3.7 3.2-3.3.2.3-.3 1.2-1.2 2.1zm-85.9-.9c-.3.3-1.2.4-1.9.1-.8-.3-.5-.6.6-.6 1.1-.1 1.7.2 1.3.5zm8.3 4.1c0 .2-.6 1.1-1.4 1.8-1.1 1.2-1.3 1-1.3-1 0-1.6.4-2.2 1.3-1.8.8.3 1.4.7 1.4 1zm18.6 1.3c3.4 1.3 3.1 4-.3 3.9h-2.8l2.4-1c3.1-1.2 2.1-2.1-2.3-2.1-2.5 0-3.6-.4-3.6-1.5 0-.9.6-1.3 1.5-.9.8.3 1.5 0 1.6-.7 0-.8.2-.8.6.1.3.7 1.6 1.7 2.9 2.2zm-.1-2c.3.5.1 1-.4 1-.6 0-1.1-.5-1.1-1 0-.6.2-1 .4-1 .3 0 .8.4 1.1 1zm13.5.4c0 .2-.7.7-1.6 1-.8.3-1.2.2-.9-.4.6-1 2.5-1.4 2.5-.6zm5.9 1.8c-.7 1.3-1.8 2.7-2.6 3.1-.7.5-1.1 1.3-.8 1.8.4.5 1.1.6 1.7.3.6-.4.9-.1.6.6-.7 2.2-2.6 2.2-3.3.1-.4-1.3-1.5-2.1-2.8-2.1-1.6 0-1.8-.3-.8-.9 1.1-.7 1.1-.9 0-1.4-.8-.3 0-.6 1.7-.6 1.6-.1 3.9-.8 5-1.6 2.6-1.9 2.7-1.9 1.3.7zm37.2-.5c1.3 1.6 1.2 1.7-.3.4-1-.7-1.8-1.5-1.8-1.7 0-.8.8-.3 2.1 1.3zm-48.1.3c0 .5-.6 1-1.2 1-.9 0-.8.4.2 1 .8.5 1.2 1 .8 1-.3 0-1.4.3-2.4.7-1.3.5-1.6.3-1.1-1 .4-1 .2-1.6-.5-1.4-.6.1-1.3-.4-1.5-1.1-.3-.8.6-1.2 2.6-1.2 1.7 0 3.1.4 3.1 1zm49 2.9c.3.2-.5 0-1.7-.3-1.5-.5-2.5-.1-3.3 1.1-1.1 1.6-1.1 1.6-.5-.2.4-1.1.8-2.6.8-3.3 0-.8.7-.7 2.1.5 1.2 1 2.3 2 2.6 2.2zm-7.1.7c1.4 1.2-1.9.1-3.5-1.2-1.8-1.4-1.8-1.4.6-.3 1.4.6 2.7 1.3 2.9 1.5zm-67.9.5c0 .6-.4.7-1 .4-.5-.3-1-1.1-1-1.6 0-.6.5-.7 1-.4.6.3 1 1.1 1 1.6zm63.7 1.1c.7.6 1.1 1.4.8 1.8-.9 1.5-3.8.4-5.4-2-1.5-2.2-1.4-2.2.9-1.5 1.4.4 3.1 1.2 3.7 1.7zm-67.3-.6c.9.3 1.6 1 1.6 1.4 0 1.2-3.3.5-3.8-.8-.4-1.4 0-1.5 2.2-.6zm7 1c.3.8.2 1.2-.4.9-.6-.3-1-.1-1 .5s-.4.8-1 .5c-.6-.4-.5-1.1.3-2 1.5-1.8 1.4-1.8 2.1.1zM266 290c0 .6-.5 1-1 1-.7 0-.7.8.1 2.2l1.2 2.2 1.7-2.2c1.9-2.3 4-2.9 4-1.2 0 .5-.4 1-1 1-.5 0-1 .7-1 1.5 0 1.2.7 1.4 2.6.9 1.9-.5 2.5-.3 2 .4-.4.8-.2 1 .7.6 2-.7 3 1.1 2.1 3.8-.6 2-.7 2-1.6.3-.8-1.3-1.2-1.4-1.8-.5-1 1.7-3.3.2-2.6-1.7.3-.8.1-1.1-.4-.8-.6.3-1 1.6-1.1 2.8-.1 1.5-.5 1-1.3-1.6-.6-2.1-1.5-3.5-1.9-3.1-1.1 1.2-3.7-2.9-3.1-4.9.3-1.1 0-1.7-1-1.7-1.8 0-2.6-3.1-1.1-4.6.7-.8 1.5-.3 2.7 1.8 1 1.5 1.8 3.3 1.8 3.8zm22-3.4c0 .8-.4 1.2-1 .9-.5-.3-1-1-1-1.6 0-.5.5-.9 1-.9.6 0 1 .7 1 1.6zm-87.3 0c-.3.3-1.2.4-1.9.1-.8-.3-.5-.6.6-.6 1.1-.1 1.7.2 1.3.5zm29.6 1.4c.3 1.1.4 2 .3 2-.2 0-1.1-.9-2.1-2-1.5-1.7-1.6-2-.3-2 .9 0 1.8.9 2.1 2zm22.4 2.2c-.3.8-.6.5-.6-.6-.1-1.1.2-1.7.5-1.3.3.3.4 1.2.1 1.9zm55.8-1.2c.3.5.1 1-.4 1-.6 0-1.1-.5-1.1-1 0-.6.2-1 .4-1 .3 0 .8.4 1.1 1zm-88.1 1.3c.3-.4.6-.1.6.6s.5.9 1.1.5c.8-.4.9.1.4 1.5-.5 1.6-.1 2.7 1.4 4 2.5 2.1 2.8 4.6.5 3.7-.9-.4-1.3-.2-.8.5.7 1.2-1.5 3.1-2.8 2.3-.4-.3-.8-1.1-.8-1.7 0-.7.4-.6 1 .3.7 1.1 1 .6 1-2-.1-4.2-2-7-4.9-7-1.4 0-2.1-.6-2.1-2 0-1.6.4-1.8 2.4-1 1.3.5 2.7.6 3 .3zm6.1-.4c.3.5.2 1.2-.3 1.5-.5.3-.9-.1-.9-.9 0-1.7.3-1.9 1.2-.6zm16.3 1.6c.7 1.4 1.2 2.8 1.2 3 0 1-5 3.6-5.9 3.1-1.7-1.1-.1-3.5 1.7-2.8 1.5.5 1.5.3.4-1-1-1.2-1-1.8-.1-2.3.8-.6.7-1-.2-1.6-1.1-.7-1.1-.9.2-.9.9 0 2.1 1.1 2.7 2.5zm34.7-1.5c1.7-1.4 2.7 1.1 1.3 3.1-.8 1.1-.9 1-.4-.4.4-1.3.1-1.7-1.1-1.5-.9.2-1.7-.3-1.9-1-.1-.7 0-.8.3-.2.3.8.9.8 1.8 0zm-73.4 1.7c1.3 1.6 1.2 1.7-.3.4-1.7-1.3-2.2-2.1-1.4-2.1.2 0 1 .8 1.7 1.7zm41.9-.8c0 .6-.4 1.3-1 1.6-.5.3-1-.1-1-.9 0-.9.5-1.6 1-1.6.6 0 1 .4 1 .9zM68 292c0 .5-.2 1-.4 1-.3 0-.8-.5-1.1-1-.3-.6-.1-1 .4-1 .6 0 1.1.4 1.1 1zm162.8.3c1.3 1.5.4 6-.9 5.1-.5-.3-.7-1-.4-1.5.4-.5-.2-.6-1.2-.2-1.6.6-1.6.4.2-1.7 1.1-1.3 1.4-2 .8-1.6-.7.4-1.3.2-1.3-.3 0-1.5 1.5-1.4 2.8.2zm4.5.4c-.5 1.2-.3 1.4.7.8.9-.5 1.1-.4.6.3-.5.9-1.3.9-2.7.2-2.5-1.4-2.5-3 .1-3 1.4 0 1.8.5 1.3 1.7zm-26.8 2.5c.6 0 .9.5.7 1-.1.6.1 1.5.5 2.2.4.7-.2 0-1.4-1.4-1.3-1.4-2.3-3.2-2.2-4 0-1.1.2-1 .8.3.4 1 1.1 1.9 1.6 1.9zm95.3-2.3c-.2.5.6 1.6 1.7 2.5 2 1.5 2 1.5-.3.9-2.8-.7-5.1-4.3-2.7-4.3.8 0 1.4.4 1.3.9zm-50.1 1.7c-.3.3-1.2.4-1.9.1-.8-.3-.5-.6.6-.6 1.1-.1 1.7.2 1.3.5zm10.3.4c0 .9-1.4 1.4-3.2 1.1-1.7-.2-.7 5 1.2 6.6 2.3 2 2.6 3.3.6 3.3-.7 0-1.9-1.4-2.6-3-1.5-3.5-3-3.9-3-.8 0 1.9-.2 2-1 .8-1.8-2.9 1.6-8.7 4.5-7.6.8.3 1.5.1 1.5-.4 0-.6.5-1 1-1 .6 0 1 .4 1 1zm-18.1 5.6c-2.8 3-3.9 3.1-3.6.1.3-3.3 1.9-4.7 4-3.5 1.8.9 1.8 1.1-.4 3.4zm-24.9-2.9c0 .5-.8 1.7-1.7 2.8-1.4 1.8-1.5 1.8-.9.2.3-1 .6-2.3.6-2.8s.5-.9 1-.9c.6 0 1 .3 1 .7zm-14 1.3c0 .5-.2 1-.4 1-.3 0-.8-.5-1.1-1-.3-.6-.1-1 .4-1 .6 0 1.1.4 1.1 1zm27 0c0 .5-.2 1-.4 1-.3 0-.8-.5-1.1-1-.3-.6-.1-1 .4-1 .6 0 1.1.4 1.1 1zm32 0c0 .5-.7 1-1.6 1-.8 0-1.2-.5-.9-1 .3-.6 1-1 1.6-1 .5 0 .9.4.9 1zm-12.8 2.5c-.8 2.7-1.8 2.9-4.5 1-1.3-.9-1.5-1.5-.7-2 .7-.4 1.6-.1 2.1.6.6 1.1.9 1 1.5-.4 1-2.6 2.3-2 1.6.8zm-15.2.5c0 .5-.3 1-.7 1.1-.5 0-1.6.2-2.5.4-1 .2-1.8-.1-1.8-.5 0-.7 1.7-1.5 4.3-1.9.4 0 .7.3.7.9zm-26.3 1.5c0 .8-.4 1.2-.9.9-.5-.3-.6-1-.3-1.5.9-1.3 1.2-1.1 1.2.6zm103-.8c-.4.3.1 1.2 1.1 2 1.6 1.4 1.6 1.4-.1.9-1-.3-2.5-.6-3.3-.6-2 0-1.7-1.8.4-2.3.9-.3 1.9-.5 2.1-.6.2 0 .1.2-.2.6zm-87.7 1.8c1.1 1.3 1 1.4-.4.9-.9-.3-1.6-1-1.6-1.5 0-1.3.6-1.1 2 .6zm32.4-.6c.3.5-.1 1.4-.8 2-1.2 1-1.3.8-.9-.8.6-2.3.9-2.5 1.7-1.2zm25.8 1.1c1.2 1.1 1.8 2.3 1.3 2.7-.4.5-1 .2-1.2-.5-.3-.6-1.3-1.2-2.4-1.2-1 0-1.9-.7-1.9-1.5 0-2.1 1.7-1.9 4.2.5zm20.3.1c1.1 1.7-.1 2.1-1.5.4-.8-.9-.8-1.5-.2-1.5.6 0 1.4.5 1.7 1.1zm-37.2 1.6c-.9.3-.8 1.2.2 3.6 1.2 2.9 1.1 3.2-1.3 4.4-2 1.1-2.7 1.1-3.3.1-.4-.6-.6-1.5-.3-1.9.2-.4-.4-1-1.3-1.3-1-.3-.5-.4 1-.2 2.4.3 2.8 0 2.4-1.5-.5-2 2.1-5.5 3.2-4.3.3.4.1.9-.6 1.1zm-50.7.6c1.6-.6 1.9 1.3.3 2.3-1.1.7-2.9-1.3-2.8-3.1 0-.6.3-.5.5.2.3.7 1.2.9 2 .6zm29.4-.3c0 .5-.2 1-.4 1-.3 0-.8-.5-1.1-1-.3-.6-.1-1 .4-1 .6 0 1.1.4 1.1 1zm8.7.5c0 .8-.4 1.2-.9.9-.4-.3-.8-.9-.8-1.5 0-.5.4-.9.8-.9.5 0 .9.7.9 1.5zm37.1-.4c-2.1 1.2-2.4 5.4-.5 6.6.6.4 2.1.7 3.2.6 1.6-.1 1.6-.1.3.3-2.1.6-2.2 1.5-.5 3.4 1 1.2.9 1.2-.5.2-1.3-1-1.7-1-2.2 0-.3.7-.4.3-.2-1 .3-1.6-.1-2.4-1.7-2.8-2.8-.7-3.5-7-.9-7.7 3.4-.9 4.8-.7 3 .4zm9.2.5c0 1.4-.3 1.4-1.5.4-.8-.7-1.5-1.4-1.5-1.6 0-.2.7-.4 1.5-.4s1.5.7 1.5 1.6zm-98 1.5c0 1.1-.3 1.1-2.4.3-2.3-.9-2-2.3.4-1.7 1.1.3 2 .9 2 1.4zm43.9 1c-1.1.7-1.1.9-.1.9.7 0 1 .4.7 1-.4.6-1.1.6-1.9-.2-1-.9-.9-1.5.3-2.8.9-.9 1.8-1.2 2-.7.2.5-.3 1.3-1 1.8zm15.1-1.6c0 1-.9 1.5-2.7 1.4-2.4-.2-2.5-.2-.5-.6 1.2-.2 2.2-.9 2.2-1.4 0-.5.2-.9.5-.9s.5.7.5 1.5zm20-.5c0 .5-.4 1-.9 1-.6 0-1.3-.5-1.6-1-.3-.6.1-1 .9-1 .9 0 1.6.4 1.6 1zm-32.3 2.2c-.3.8-.6.5-.6-.6-.1-1.1.2-1.7.5-1.3.3.3.4 1.2.1 1.9zm45.3-.7c1.7 2.1.5 3.1-1.5 1.2-.8-.9-1.5-1.8-1.5-2.1 0-1.1 1.8-.6 3 .9zm-230.8 3.7c-.8.8-.9.4-.5-1.3.4-1.3.8-1.8 1.1-1 .2.7-.1 1.8-.6 2.3zm158.3-2.2c.3.5-.1 1-.9 1s-1.8-.5-2.1-1c-.3-.6.1-1 .9-1s1.8.4 2.1 1zm54-.1c.3.5.1 1.2-.5 1.6-.5.3-1-.1-1-.9 0-1.8.6-2.1 1.5-.7zm-55.7 4.6c-1.1 1.1-3.8-.8-3.8-2.6 0-1.9.1-1.9 2.2.1 1.2 1.1 1.9 2.2 1.6 2.5zm11.1-3.3c1.9-.7 3.1-.7 3.1-.1 0 .5-.4.9-1 .9-.5 0-1 .8-1 1.8 0 1.1-.9 2.7-2.1 3.7-2 1.9-2 1.9-1-.9 1.5-3.8 1.4-4.2-.7-2.3-1.8 1.6-1.9 1.6-1.9-1.3 0-1.7.4-2.6.8-1.9.5.9 1.5.9 3.8.1zm48.5.2c-.3.8 0 1.7.7 2.2.8.4 1 .3.5-.4-.4-.7-.1-1.2.8-1.2 2.4 0 3 2 1 3.6-1.8 1.3-1.8 1.5-.1 2.5 2 1.2 2.3 6.5.5 7.2-1 .3-1 .9 0 2.6 1.6 2.7 1.5 3.4-.3 2.8-1.1-.5-1.2-.1-.5 1.7.6 1.7.4 3-.5 4.2-.8 1.1-1.5 1.4-1.5.9 0-.6-.5-.3-1 .5-.8 1.2-1 .9-1-1.2 0-1.5.5-3 1-3.3.6-.4.8-1 .5-1.5-.3-.5-.1-1.9.5-3 .6-1.2.7-2 .1-2-.5 0-1.6-.3-2.5-.6-1.1-.4-1.6-.1-1.6 1 0 .9-.4 1.6-.9 1.6s-.7 1.9-.4 4.2c.5 3.6.4 4-1 3.5s-1.7 0-1.7 2.8c0 1.9.3 3.6.8 3.6.4.1 1.7.3 3 .4 3.1.3 4 1.4 2.2 2.8-.9.7-1.5 2.1-1.3 3.2.1 1.1-.4.4-1.3-1.5s-2.2-3.9-3-4.3c-.8-.4-1.4-1.6-1.4-2.5-.1-1.6-.1-1.6-1.1.1-.6.9-1.4 1.5-2 1.2-.5-.3-.6 0-.4.7.4 1-.4 1.4-2.7 1.3-4.2-.1-4.7-2-.8-3.4 1.7-.6 2.9-1.5 2.5-2.1-.3-.5.3-1 1.4-1 2.8 0 2.6-1.4-.4-3.4-2.2-1.4-2.5-1.5-2.5-.1 0 .8-.7 1.5-1.5 1.5s-1.5-.5-1.5-1c0-.6.5-1 1-1 .6 0 1-.7 1-1.6 0-1.3.2-1.4 2.1 0 1.7 1.1 2.7 1.2 4.5.4 2.9-1.4 3-2 .4-4.3-2.4-2.2-2.5-3.8-.5-5.5 1.2-1 1.5-1 1.5.1 0 1.2.2 1.2.9 0 .7-1.1 1.1-1 1.9.4.6 1.2 1.6 1.6 2.6 1.2 1.9-.7 1.3-2.7-.8-2.7-2.3 0-1.7-8.2.7-10.3 2.4-2.1 2.8-2.1 2.1-.3zm-36 .5c1.6 2.5-1.2 4.3-4.4 3.1-.3-.1-.8-.2-1.2-.1-1.5.2.4-2.8 2-3.2 2.8-.8 3.1-.7 3.6.2zm-40.5 1.5c.9 1 .8 1.5-.4 2-1 .4-1.5-.1-1.5-1.4 0-2.4.4-2.5 1.9-.6zm52.1.6c-.8.5-1.7.7-1.9.4-.3-.3.1-.9.9-1.4.8-.5 1.7-.7 1.9-.4.3.3-.1.9-.9 1.4zm42.3 1c-.3 1.1-.9 1.8-1.3 1.5-.5-.3-.6-1.4-.3-2.5s.9-1.8 1.3-1.5c.5.3.6 1.4.3 2.5zm-37.3 0c.6 1.1.7 2 .2 2-.6 0-1.2-.9-1.5-2-.3-1.1-.3-2-.1-2 .2 0 .8.9 1.4 2zm-36.3.6c0 .7-.6 1-1.4.7-.7-.3-1.3-.8-1.3-1.2 0-.4.6-.8 1.3-.8.8 0 1.4.6 1.4 1.3zm50.3-1.2c0 .9-4 1.3-4.6.5-.3-.5.6-.9 2-.9s2.6.2 2.6.4zm-80 1c0 .3-.4.8-1 1.1-.5.3-1 .1-1-.4 0-.6.5-1.1 1-1.1.6 0 1 .2 1 .4zm92.5.6c-.3.5-1.1 1-1.6 1-.6 0-.7-.5-.4-1 .3-.6 1.1-1 1.6-1 .6 0 .7.4.4 1zm41.5-.1c0 .5.9 1.3 2 1.6 2 .6 2.8 2.5 1.2 2.5-1.1 0-5.2-3.5-5.2-4.4 0-.3.5-.6 1-.6.6 0 1 .4 1 .9zm-62 2.6c0 .8.9 1 2.4.8 1.3-.3 2.7 0 3 .6.7 1-1.8 1.6-5 1.2-.7-.1-1.4 1-1.6 2.4-.4 1.6-.1 2.4.6 2.2 1.3-.4 4 2.1 4.9 4.5.4 1 .2 1.8-.3 1.8-.6 0-1-.4-1-.8 0-.5-.6-.9-1.2-1-6-.8-6.3-.7-6.6 1.5-.3 1.8-1 2.3-3.2 2.3-1.6 0-3-.6-3.3-1.3-.2-.7-.8-.8-1.3-.3s-.4 1.1.4 1.3c1.7.6 1.5 3.3-.2 3.3-.8 0-1.6-.7-2-1.5-.3-.9-1.2-1.2-2.2-.8-1 .4-1.5.2-1.1-.3.3-.6.2-1.5-.2-2.2-.5-.9-1.2-.8-2.7.3-1.8 1.4-1.8 1.5 1.3 2.7 2.8 1.1 3.3 1.8 4.1 6.3 1 5.8 1 5.7-1.2 4.9-1.8-.7-2.2-3-.5-3.6.9-.3.9-1 0-2.7-.9-1.6-1.6-2-2.5-1.2-1 .8-1.6.4-2.6-1.7-1.5-3.3-2.2-11.2-.9-11.2.5 0 .9.8 1 1.7 0 1.5.2 1.5.9-.2.7-1.8.8-1.9 1.5-.3.4 1 1.2 1.8 1.7 1.8.7 0 .6-.5-.1-1.4-1.3-1.5-.4-4.9 1-4 .5.3.9 1 .9 1.5 0 .6-.5.7-1.1.3-.7-.4-1-.1-.7.7.3.8 1 1.3 1.6 1.2.6-.2.9.4.5 1.3-.4 1 .6.7 3.2-1.1 2.3-1.5 4.6-2.3 5.7-1.9 1.7.5 2.4-1 1.9-4-.1-.6 0-2 .3-3.2.4-1.6 1.1-2.1 2.6-1.7 1.1.3 2 1.1 2 1.8zm57.7-.3c-.3.8-.6.5-.6-.6-.1-1.1.2-1.7.5-1.3.3.3.4 1.2.1 1.9zm-82.3 3.7c-.5.5-4.4-3-4.4-4 0-.4 1.1.2 2.4 1.4 1.4 1.2 2.3 2.4 2 2.6zM276 319c0 .5-.2 1-.4 1-.3 0-.8-.5-1.1-1-.3-.6-.1-1 .4-1 .6 0 1.1.4 1.1 1zm21.1 4.7c-1 1.7-1 1.7-1.1-.2l-.1-2-.8 2c-.9 2.1 1.1 4.1 2.9 3 1.2-.7 1.2-.3.4 1.9-.3.9-1.2 1.6-2 1.6s-1.1-.6-.7-1.7c.4-1.1.3-1.4-.5-.9-.7.4-1.2 1.6-1.2 2.7s.5 1.7 1 1.4c.6-.3 1 0 1 .9 0 .8.3 2.3.6 3.3.5 1.5.4 1.5-.5.3-.9-1.3-1.1-1.3-1.1.2 0 1-.5 1.8-1.1 1.8-.6 0-.8-.8-.4-1.9.3-1.1.1-2.2-.4-2.6-.7-.4-.8.1-.4 1.2.6 1.7.5 1.7-1.3.2-2.1-1.8-4.8-1.4-3.7.4.3.7.2.8-.2.4-1.1-1-1.5-3.7-.6-3.7s1.1-1.7 1.2-7.3c0-2 .5-3.7 1-3.7.6 0 .8.4.5.9-.3.4.1 1.6.8 2.6 1.3 1.8 1.4 1.7 3-1.2 1.7-3.4 3.9-4.7 4.4-2.7.2.7-.1 2.1-.7 3.1zm-104.4-.5c-.3.8-.6.5-.6-.6-.1-1.1.2-1.7.5-1.3.3.3.4 1.2.1 1.9zm109.3-.7c0 .8-.7 1.5-1.5 1.5-.9 0-1.2-.6-.9-1.5.4-.8 1-1.5 1.5-1.5s.9.7.9 1.5zm2.7.7c-.3.8-.6.5-.6-.6-.1-1.1.2-1.7.5-1.3.3.3.4 1.2.1 1.9zm6.3 3.8c1.3 3.2.5 5.5-1 3-.8-1.3-1-1.2-1 .3 0 1-.4 1.5-1 1.2-.5-.3-1-.2-1 .4 0 .5.5 1.3 1 1.6.6.3 1 .1 1-.4 0-.6.4-1.1 1-1.1.5 0 .9 1.1.8 2.5l-.2 2.4-3.1-2.3c-2.5-1.9-3.2-2.1-4.3-1-.6.7-1.2 2.3-1.1 3.6.1 2.2.2 2.1 1.2-.5.6-1.5 1.3-2.7 1.7-2.7.9 0 4.3 6.8 3.9 7.7-.7 1.4-2.9 1.2-2.9-.3s-1.2-1.9-2.3-.8c-1.1 1.1 1.2 4.4 2.7 3.8.8-.3 1.6.4 1.9 1.8.6 2.2.5 2.2-.8.4-1.3-1.7-1.5-1.8-1.5-.3 0 .9.2 1.7.4 1.7s1.1.3 2 .6c1.2.5 1.6 0 1.6-1.9 0-2.5 2.2-5.2 3.3-4 1 1 .8 2.5-.2 1.8-.5-.3-1.2-.1-1.6.5-.3.5-.1 1 .5 1s.9.4.5.9c-.3.5-.1 1.2.5 1.6 1.5.9 1.2 4.2-.5 4.9-.8.3-1.2 1.2-.9 2.1.3.8 1 1.2 1.5.9.5-.3.9.1.9.9s.7 1.7 1.5 2.1c.8.3 1.5 1.5 1.5 2.6 0 2.2-1.5 2.7-2.3.7-.3-.7-.6-.4-.6.6-.1 1-.5 1.6-.9 1.3-.5-.3-.8 1.1-.6 3.2.4 5 .3 4.8 1.2 3.7 1.4-2 6.5-4.7 7.1-3.9.9 1.3 4.1 1.4 4.1.2 0-.7.5-.6 1.3.1.8.6 1.7.8 2 .5.3-.4.5.7.3 2.2-.1 1.6-.7 2.8-1.3 2.7-.8-.2-1 1.5-.7 5.1.3 3.2.1 5.7-.5 6.1-.6.3-.8 0-.5-.8.3-.8-.1-1.7-.9-2-.8-.3-1.7-2.1-2.1-4-.4-2-1.2-3.7-1.8-3.9-.7-.3-.4-1 .6-2.1 1-.9 1.3-1.8.7-1.8-4.5-.5-4.6-.4-4.3 3 .4 3.3.3 3.4-1.4 1.6-1-1-2-1.3-2.2-.7-.1.5-1.3.7-2.5.4-1.9-.5-2-.3-1 1 .7.8.9 1.8.5 2.2-.4.4 0 .6.8.4.9-.2 1.6.6 1.8 1.9.2 1.2.9 2.4 1.5 2.6.7.2 0 .2-1.5 0-2.1-.4-2.8 0-2.8 1.2 0 1.4-2.6 8-3.7 9.4-.1.2-.9-.1-1.7-.8-2.1-1.7-2.8 1.2-.9 3.8.8 1.2 1.2 2.5.9 2.8-1 1.1-3.5-1.8-3.8-4.5-.2-1.5-.9-2.8-1.5-2.8-2.6-.3-2.8-.5-1.3-1.4.8-.5 2.3-.7 3.2-.4 1.3.4 1.6.1 1.2-.9-.3-.8 0-1.8.5-2.2.6-.3.8-1.2.4-1.8-.4-.7.1-.6 1 .2 1 .8 2 1.1 2.4.7.3-.3.1-.6-.6-.6s-.9-.5-.6-1c.5-.8 1.2-.7 2.3.2 1.3 1.1 1.4 1 .4-.9-.7-1.2-1.7-2.3-2.4-2.6-.7-.2-1-.8-.5-1.2.4-.5 1.3-.3 1.9.3 1.5 1.5 3.8 1.6 3.8.2 0-.6-.3-.9-.7-.9-3.5.6-5.9-4.6-4.4-9.6.5-1.7 1-2.2 1-1.3.1 2.1 2.1 2.5 2.1.5 0-.7-.8-3.1-1.9-5.2-1.9-4-1.5-5.4 1.9-6.8 1.3-.5 1.3-.6 0-.6-1.9-.1-4.1-3.6-4.5-7-.1-1.4-.8-2.7-1.4-2.9-.6-.2-1.1-1.2-1.1-2.2 0-2.6-1.5-3.3-3-1.5-.9 1.1-.9 1.5-.1 1.5.7 0 .9.4.6 1-.3.5-1.1 1-1.6 1-.6 0-.8-.4-.4-.9.3-.5 0-1.3-.6-1.7-.8-.4-.7-.9.2-1.6 1.1-.7 1.1-1.1.2-1.5-2.1-.8-1.5-2.2.8-1.6 1.8.5 1.9.2 1.3-2.3-.4-1.6-1-3-1.4-3.2-.4-.1-.5-1.4-.2-2.7.5-2.6 3.6-3.7 8.5-3.1 2 .2 2.5 0 1.8-.7-1.3-1.3-1.5-4.1-.2-3.3.4.3 1.4 1.9 2.1 3.6zm-63-2c0 .5-.4 1-1 1-.5 0-1-.5-1-1 0-.6.5-1 1-1 .6 0 1 .4 1 1zm-58.9 3.7c-1 1.7-1 1.6-1.1-.3 0-2.3 1.3-4.1 1.8-2.5.2.6-.1 1.8-.7 2.8zm53.3-2.1c.3.8.2 1.2-.4.9-.6-.3-1-1-1-1.6 0-1.4.7-1.1 1.4.7zm13.1.4c-.3.5-1 1-1.6 1-.5 0-.9-.5-.9-1 0-.6.7-1 1.6-1 .8 0 1.2.4.9 1zm-180.7 1.2c-.2.7.3 1.2 1 1 .6-.1 1.2.2 1.2.8 0 .5-.6 1-1.2 1-.7.1.1 1.2 1.7 2.5 1.8 1.5 2.4 2.5 1.5 2.5-4.3-.1-9.1-9-4.8-9 .4 0 .7.6.6 1.2zm250.3 3.7c0 1.2.2 1.1.8-.3.7-1.7.8-1.7 1.4-.3.4 1.1-.1 1.8-1.6 2.3-1.2.4-2.3.2-2.5-.5-.5-1.5-2.9-1.4-3.4.1s-2.8.1-2.8-1.8c0-.8.9-1.4 1.9-1.4 1 0 2.2-.8 2.6-1.8.6-1.6.7-1.6 2.1.2.8 1.1 1.4 2.7 1.5 3.5zM182 329c0 .5-.4 1-1 1-.5 0-1-.5-1-1 0-.6.5-1 1-1 .6 0 1 .4 1 1zm55.7 2.2c-.3.8-.6.5-.6-.6-.1-1.1.2-1.7.5-1.3.3.3.4 1.2.1 1.9zm3 1.9c-.4 1.5-.2 1.9.9 1.5.9-.3 1.2-.1.9.4-.3.6-.1 1 .4 1 .6 0 1.1.7 1.1 1.5s-.7 1.5-1.5 1.5-1.5-.7-1.5-1.5-.4-1.5-.9-1.5c-.4 0-.7 1.2-.5 2.7.4 2.7.3 2.7-.4.3-1-3.1-.3-8 1-8 .6 0 .8.9.5 2.1zm-5 5.1c-.2 1.3-.4.5-.4-1.7-.1-2.2.1-3.2.4-2.3.2 1 .2 2.8 0 4zm82.1.6c-.3 2.8-.4 3-2.2 1.6-1.7-1.2-1.8-1.7-.6-3.9 1.7-3.2 3.3-1.9 2.8 2.3zm-132.5.3c-1.1 2.2-1.8 2.7-2.3 1.9-.5-.7-1.5-1-2.4-.7-2.9 1.1-1.7-1.1 1.7-3.1 4.1-2.5 4.9-2 3 1.9zm135.4-2.6c0 .8-.4 1.2-.9.9-.5-.3-.6-1-.3-1.5.9-1.3 1.2-1.1 1.2.6zM80.5 338c.3.5.1 1-.4 1-.6 0-1.1-.5-1.1-1 0-.6.2-1 .4-1 .3 0 .8.4 1.1 1zm213.7 3.5c.3 1.4.1 2.3-.6 2.2-1.3-.2-2.4-2.5-2.5-5.1-.1-2.7 2.5-.3 3.1 2.9zm64.2 1.1c-.4 1.5-1.1 2-2.5 1.7-2.2-.6-2.4-1.6-.8-4.5.9-1.7 1.3-1.8 2.5-.7.7.8 1.1 2.4.8 3.5zm-37.7-1.4c-.3.8-.6.5-.6-.6-.1-1.1.2-1.7.5-1.3.3.3.4 1.2.1 1.9zm-238.3.4c.4 1 .1 1.4-.6 1.2-1.5-.5-2.3-2.8-1-2.8.5 0 1.3.7 1.6 1.6zm197 .3c.7 1.1-1.4 2-3.2 1.3-1.1-.4-1.1-.6 0-1.3 1.7-1.1 2.6-1.1 3.2 0zm67.9 1.3c.3 1 .1 1.8-.4 1.8-.4 0-1.3-.8-1.8-1.8-.7-1.4-.6-1.9.4-1.9.7 0 1.6.9 1.8 1.9zm-168.3.2c0 .3-.4.8-1 1.1-.5.3-1 .1-1-.4 0-.6.5-1.1 1-1.1.6 0 1 .2 1 .4zm48.3 1.2c.6-1.5 1-1.6 2.2-.6 1.9 1.5 1.2 2.6-1.9 3.2-3.6.7-5.3-.6-3.6-2.7 1.3-1.6 1.4-1.6 2 .1.6 1.7.7 1.7 1.3 0zm20.5 3.9c0 2.5-.4 4.3-.9 3.9-.5-.3-.9-1.2-.9-2s-.4-1.4-1-1.4c-.5 0-1 .5-1 1.1 0 1.7-1.7.1-2.3-2.1-.4-1.5.2-2.4 2.1-3.4 1.5-.8 3-1.2 3.3-1 .3.2.6 2.4.7 4.9zm44.1-2.1c-.3.3-1.1-.5-1.8-1.7-1.3-2.1-1.2-2.1.5-.5 1 1 1.6 2 1.3 2.2zm-80 2.5c-.6.1-1.7-.5-2.4-1.5-2.3-3.1-1.7-3.8 1-1.3 1.3 1.3 2 2.6 1.4 2.8zm107.9-2.4c-.3.3-.9-.2-1.2-1.2-.6-1.4-.5-1.5.5-.6.7.7 1 1.5.7 1.8zm2.7-.5c-.3.5-.1 1 .5 1 .8 0 .8.6 0 2-1.2 2.3-.2 4.7 2.8 6.9 2 1.4 2 1.5-.4 3.3-1.4 1.1-2.4 3-2.4 4.4 0 2.3-.2 2.4-1.5 1-1.4-1.4-1.1-4.6.4-4.6.4 0 .6-1.4.3-3.1-.3-1.8-.9-2.8-1.7-2.6-1.9.8-3.5-.7-4.1-3.9-.3-2.2-.2-2.5.6-1.4.5.8 1 1 1 .5 0-.6.8.1 1.6 1.5l1.5 2.5-.5-2.4c-.5-2.2.8-6.1 2-6.1.3 0 .2.4-.1 1zm-239.8 2.2c-.3.8-.6.5-.6-.6-.1-1.1.2-1.7.5-1.3.3.3.4 1.2.1 1.9zM188 347c0 .5-.5 1-1.1 1-.5 0-.7-.5-.4-1 .3-.6.8-1 1.1-1 .2 0 .4.4.4 1zm2.4.5c-.4.8-.8 1.5-1 1.5-.2 0-.4-.7-.4-1.5s.4-1.5 1-1.5c.5 0 .7.7.4 1.5zm112.6 0c0 .8-3.4 4.5-4.2 4.5-.5 0-.8-.7-.8-1.6 0-.8.5-1.2 1-.9.6.3 1.3-.1 1.6-.9.6-1.5 2.4-2.3 2.4-1.1zm-78.2 1.3c1 .7.9 1.7-.3 5.2-1.1 3.2-1.2 4.5-.4 5.1.6.4.8 1.2.4 1.9-.5.8-.3 1.1.6.8.7-.2 1.6-1.3 1.9-2.4.5-2 4-3 4-1.2 0 .6.6.5 1.5-.2 1.3-1 1.5-.9 1.5.9 0 1.1.5 2 1.2 1.9.6-.2 1.4.5 1.6 1.5.4 1.8-2 2-4.6.3-1.4-.8-1.3 1.5.1 2.5.5.3.5 1.8.1 3.3-.5 2.3-1.1 2.7-3 2.2-1.3-.4-2.4-.3-2.5.1 0 .5-.2 1.8-.3 3-.1 1.2.3 2.4 1 2.7.8.3 1.1 0 .7-1-.3-.8-.2-1.4.3-1.3 2.5.4 4.4-.3 4.4-1.6 0-.8.5-1.5 1-1.5.6 0 1 .8 1 1.9 0 1 .9 2.1 2 2.4 1.2.3 2 1.4 2 2.6 0 1.2.6 2.1 1.3 2.1.6 0 .4.5-.5 1.1-2 1.1-2.4 3.1-.5 2.4 1.3-.6 5.7 5.3 5.6 7.6 0 1.2-.2 1.2-.6-.1-.4-1-1-.4-2 2-1.3 3.5-1.3 3.4-.7-2 .3-3 .2-5.2-.1-4.8-.4.3-.6.9-.5 1.2.2 1-3.4 6.6-4.2 6.6-1.2 0-1-1.4.4-2.8.8-.8.8-1.2.1-1.2-.5 0-.8-1.1-.6-2.4.6-3.1-.7-3.8-3.1-1.5-1.1 1.1-1.4 1.9-.8 1.9 1.3 0 1.7 3.6.5 4.3-.5.2-.2.2.5.1 1.8-.5 1.5 3.5-.5 5.4-1.5 1.6-1.6 1.5-.9-1.1.3-1.5.2-2.7-.3-2.7s-1.2-1.5-1.5-3.2c-.9-4.8-.8-5.3 1.1-5.3.9 0 1.8-.6 2.1-1.3.3-.9-.3-1.1-2.4-.6-2.3.6-2.6.4-2.1-.9.4-1-.3-2.7-1.8-4.3-1.4-1.5-2.5-3.1-2.5-3.7 0-.6-.8-.3-1.7.5-2.3 2-4.9 1.9-6.8-.2-1.4-1.5-1.2-1.8 2.5-2.9 2.2-.6 4.5-.9 5-.6 1.4.9 1.2-1.9-.2-3.3-.9-.9-.7-1.3.5-1.8.9-.3 2.4-.4 3.2 0 1.1.4 1.5-.1 1.5-1.9 0-1.4-.4-2.5-1-2.5-.5 0-1 .7-1 1.5 0 2-.6 1.9-3-.5-1.1-1.1-1.5-2-.9-2 .8 0 .8-.4.1-1.3-1.1-1.2-6.7-1.5-7.8-.4-.4.4.1.9 1 1.3 2.7 1.1 1.8 2.7-1.1 1.9-3.6-.9-4.1-1.4-2.3-2.5 1-.7 1.1-1 .3-1-.7 0-1.3-.7-1.3-1.5s-.5-1.5-1.1-1.5c-.5 0-.7.4-.4 1 .3.5-.1 1-1 1-1.5 0-1.5.1-.1 1.6 1.8 1.7 2.1 4.4.6 4.4-.5 0-1-.9-1-1.9 0-1.5-.6-1.9-2.6-1.8-1.6.1-2.9-.4-3.2-1.3-.5-1.3-.3-1.3 1.2-.1 1.4 1.2 1.8 1.2 3.1-.5.8-1 1.3-2.3 1.1-2.9-.3-1.2 2.3-4.1 4.4-4.7.8-.2 2.6.6 4 1.9 1.4 1.3 2.6 1.9 2.8 1.3.2-.5.8-1 1.3-1 .6 0 .8.4.5.8-.2.4-.1 1.4.5 2.2.7 1.2.9 1.1.9-.5-.1-1.1-.7-2.9-1.5-3.9-1.2-1.6-1.2-2.2-.2-2.8 1.5-1 1.9-1 3.5 0zm41.3 1.5c-1 .9-1.1.8-.5-.6.3-1 .9-1.5 1.2-1.2.3.3 0 1.1-.7 1.8zM91 350c1.3.8 1.3 1-.2 1-.9 0-2-.5-2.3-1-.8-1.3.5-1.3 2.5 0zm-7 1c0 .5-.2 1-.4 1-.3 0-.8-.5-1.1-1-.3-.6-.1-1 .4-1 .6 0 1.1.4 1.1 1zm121.5.4c2.1 2.1 2.2 5 .3 5.4-1.4.3-1.6-.1-1.2-1.5.6-1.6.5-1.5-.9.2-1.3 1.5-1.7 1.7-1.7.5-.1-1-.4-.9-1 .5-.8 1.9-.9 1.9-.9-.3-.1-1.2.6-2.5 1.5-2.9.8-.3 1.3-1.2 1-1.9-.7-1.8 1.1-1.8 2.9 0zm47.1.3c1.8 2.4 1.7 4.4-.5 7.2-1.1 1.5-2.1 2-2.5 1.3-.4-.6-1.4-.8-2.3-.5-1.1.4-1.4.3-.9-.5.4-.7.2-1.2-.3-1.2-.6 0-1.1-.5-1.1-1.1 0-.5.5-.7 1.2-.3.8.5.9.2.5-1-.4-1-.3-1.5.3-1.1.5.3 1.2-.6 1.6-2 .7-2.9 2.1-3.2 4-.8zm29.7-.4c.3.8-.1 1.4-.8 1.4-.7 0-1.1-.6-.8-1.4.3-.7.6-1.3.8-1.3.2 0 .5.6.8 1.3zm84.7.2c0 .8-.4 1.5-1 1.5-.5 0-1-.7-1-1.5s.5-1.5 1-1.5c.6 0 1 .7 1 1.5zm-90 .5c0 .5-.2 1-.4 1-.3 0-.8-.5-1.1-1-.3-.6-.1-1 .4-1 .6 0 1.1.4 1.1 1zm-47.4 2c.8 0 1.4.5 1.4 1.1 0 .6-.9.8-2.2.3-3-.9-3.1-1-2.2-2.5.6-1 .9-1 1.2-.1.2.7 1 1.2 1.8 1.2zm60.7 0c-.3 1.1-.7 2-.9 2-.2 0-.4-.9-.4-2s.4-2 .9-2 .7.9.4 2zM96 354c0 .5-.5 1-1.1 1-.5 0-.7-.5-.4-1 .3-.6.8-1 1.1-1 .2 0 .4.4.4 1zm185 3.5c.6 1.9 1.5 3.3 2 3 .4-.3.6.4.3 1.5-.5 2-.6 2-1.8.3-.6-1-1.4-2.7-1.7-3.8-.3-1.1-.9-2.9-1.4-3.9-.5-1.3-.4-1.7.4-1.3.6.4 1.6 2.3 2.2 4.2zm80.8-2.2c.5 2.3-1 2.1-2.5-.2-1-1.6-.9-1.9.5-1.7.9.2 1.8 1 2 1.9zm-173.8 2c0 .5-.4.5-1 .2-.5-.3-1-1.4-1-2.3 0-1.5.2-1.5 1-.2.5.8 1 1.9 1 2.3zm8-1.8c0 .8-.4 1.5-1 1.5-.5 0-.7-.7-.4-1.5.4-.8.8-1.5 1-1.5.2 0 .4.7.4 1.5zm73.7.7c-.3.8-.6.5-.6-.6-.1-1.1.2-1.7.5-1.3.3.3.4 1.2.1 1.9zm6.8-1.2c.3.5.1 1-.4 1-.6 0-1.1-.5-1.1-1 0-.6.2-1 .4-1 .3 0 .8.4 1.1 1zm30.5 2.4c0 .5-.7.3-1.5-.4s-1.2-1.7-.9-2.2c.7-1 2.4.9 2.4 2.6zm72-.1c0 1.8-.2 1.9-1 .7-1.3-2-1.3-4.3 0-3.5.6.3 1 1.6 1 2.8zm-277.6-1.4c.3.5-.6.8-1.9.8-1.4 0-2.5-.3-2.5-.8s.9-.9 1.9-.9c1.1 0 2.2.4 2.5.9zm227.7 4.4c-1.3 1.3-1.5 3-.2 2.2.5-.3 1.2-.1 1.5.4.4.5.1 1.3-.5 1.7-.6.3-1.5 0-2-.7-1.2-1.9-1.1-5.2.1-4.4.6.3 1.1-.4 1.1-1.7.1-1.8.2-1.9.6-.4.3 1 0 2.3-.6 2.9zm30.9-2.8c1 1.2 1 1.5-.2 1.5-.8 0-1.5-.7-1.5-1.5s.1-1.5.2-1.5c.2 0 .8.7 1.5 1.5zm-255 2c1 1.2.9 1.6-.3 2.1-.9.3-2.2.3-2.9-.1-.7-.4-.5 0 .4.8 1 .8 1.5 1.7 1.1 2-1.1 1.2-3.3-1.5-3.3-3.9 0-2.8 3-3.3 5-.9zm88.3 1.4c-.4.4-1.2 1.1-1.7 1.6-.5.6-.5 0-.1-1.4.5-1.8.4-2.2-.5-1.6-.9.5-1.1.4-.6-.4.6-.9 1.1-.9 2.2 0 .8.7 1.1 1.5.7 1.8zm74.4-.7c-.3.8-.6.5-.6-.6-.1-1.1.2-1.7.5-1.3.3.3.4 1.2.1 1.9zm-69.7 1.4c0 .8-.4 1.2-1 .9-.5-.3-1-1.3-1-2.1s.5-1.2 1-.9c.6.3 1 1.3 1 2.1zm7.3.7c1.8.7 1.5 2.7-.4 2.7-.6 0-.7-.5-.4-1 .3-.6.1-1-.4-1-.6 0-1.1.4-1.1 1 0 .5-.4 1-1 1-.5 0-.6-.7-.3-1.7.4-1 .2-1.4-.5-.9-.7.4-1-.1-.9-1.3.1-1.7.4-1.8 1.7-.7.8.7 2.3 1.6 3.3 1.9zm53.4-.1c.6.7 1.4 2.4 1.8 3.8.6 2.3.5 2.2-1.7-.7-1.7-2.3-2.8-2.9-3.5-2.2-1.4 1.4-2.7-.6-1.9-2.7.6-1.6 3.3-.7 5.3 1.8zm21-.9c.7 1.5.8 2.9.2 3.8-.7 1.1-.9.9-.9-.8 0-1.2-.4-2.5-1-2.8-1.2-.8-1.3-2.5-.2-2.5.5 0 1.4 1.1 1.9 2.3zm-91.2.1c1 1 1.1 2.2.5 4.2l-.8 2.9-.3-3c-.1-2.4-.3-2.6-.6-.8-.6 3.1-1.9 2.9-2.7-.2-1.1-4.2 1.1-5.9 3.9-3.1zm79.1 1.2c.9-.4 1.4.2 1.4 1.7 0 1.2.9 2.8 1.9 3.4 1.8 1.1 1.9 1 1.8-1.5-.2-2.1.3-2.8 2-3 1.7-.3 2.6.3 3.3 2.3 1.4 3.6 1.3 3.7-1.2 2.4-2.3-1.2-2.3-1.2-.4 1 1.1 1.1 1.7 2.1 1.3 2.1-.3 0-1.4.3-2.4.6-1.5.5-1.5.4-.3-.5 1.3-.9 1.3-1.1 0-1.1-1.8 0-4 1.9-4 3.4 0 .6.5.4 1-.4s1-1 1-.4c0 .7-1.2 1.9-2.6 2.9-2.1 1.3-2.9 1.4-3.8.4-.8-.9-.7-1.1.6-.6 1.3.5 1.9 0 2.4-1.9.8-2.9.1-3.8-2.9-3.9-1.2 0-2.3-.7-2.5-1.7-.2-1.2.2-1.5 2-1.2 1.3.2 1.7.2 1.1-.2-.7-.3-1.3-1.3-1.3-2.1 0-.9-.6-1.3-1.5-.9-1.8.7-2-.5-.2-2.3 1-1 1.3-.9 1.5.4.2.9 1 1.4 1.8 1.1zm-20.9.6c-.3.8-.6.5-.6-.6-.1-1.1.2-1.7.5-1.3.3.3.4 1.2.1 1.9zm-24.7 1.3c0 .8-.2 1.5-.4 1.5s-1.2.3-2.1.6c-1.5.6-1.5.4-.4-1.5 1.6-2.5 2.9-2.7 2.9-.6zm28.4.1c.3.8.2 1.2-.4.9-.6-.3-1-1-1-1.6 0-1.4.7-1.1 1.4.7zm84.6 4.2c.5 2.9.3 3.9-.7 3.9-.7 0-1.3-.4-1.3-.9 0-.4-.3-.7-.7-.7-2.7.4-3.5-.1-2.3-1.6.7-.8 1.7-1.2 2.3-.8.6.3.7.1.3-.6-.9-1.3.1-4.7 1.1-3.8.3.3.9 2.4 1.3 4.5zm-228.9-.4c-1.1 2.8-2.5 3.3-3.7 1.4-.5-.8-.2-.9.9-.5 2 .8 2.2-.4.5-2.2-1.1-1-1-1.1.5-.6 1 .5 1.7.2 1.7-.6 0-.7.2-1 .5-.7.3.3.1 1.7-.4 3.2zm76.3-1.9c-.4.8-.8 1.5-1 1.5-.2 0-.4-.7-.4-1.5s.4-1.5 1-1.5c.5 0 .7.7.4 1.5zm14 .9c3.9.1 5.2 1.7 3.6 4.6-.6 1.1-1 2.3-.9 2.7.1.4.1 1.5 0 2.3-.2 2.4-2.1-.9-2.1-3.8 0-2.3-3-3.3-3-1 0 1-.3.9-.9-.1-.7-1.1-.9-1.1-1.4 0-.3.8-.6-.6-.6-3.1 0-3 .2-4 .8-3.1.5.8 2.5 1.5 4.5 1.5zm53.1.4c0 1.8-2 1.5-2.3-.4-.3-1 .1-1.5 1-1.2.7.3 1.3 1 1.3 1.6zm-75.4.6c.5-.3.9 0 .9.6 0 1.5-2.3.7-2.6-.8-.1-.7 0-.8.3-.2.2.5.9.8 1.4.4zm32.2-.7c.3.5-.1 2.1-.8 3.8-1.1 2.6-1.4 2.8-2 1.1-.5-1.1-.3-2.1.5-2.6.7-.4.9-1.3.6-1.9-.4-.6-.3-1.1.3-1.1.5 0 1.2.3 1.4.7zm92.2.3c.3.5.2 1-.4 1-.5 0-1.3-.5-1.6-1-.3-.6-.2-1 .4-1 .5 0 1.3.4 1.6 1zM187 369.9c0 2.3-2.6 4.5-5.4 4.6-1.7 0-2.1.6-2.1 3s.5 3.1 2.5 3.4c1.4.1 2.8.8 3.2 1.5.6.8.8.8.8 0 0-1.5-2.5-3.6-3.3-2.7-.4.3-.7-.1-.7-.9 0-1.2.6-1.4 2.2-1 1.4.3 1.9.1 1.4-.6-.3-.6-.1-1.4.5-1.8.9-.5 1 .1.5 1.9-.3 1.4-.2 2.8.3 3.1 1.9 1.2-.1 4.6-2.8 4.6-1.8 0-2.2.3-1.3.9 1.1.7 1 1-.3 1.5-2.3.8-3.7-.2-3-2.3.3-1-.1-2.4-1-3.1-.8-.7-1.2-1.6-.9-2.1.3-.5-.2-.9-1-.9-.9 0-1.6-.5-1.6-1.1 0-.6.7-.9 1.5-.5.8.3 1.4.2 1.3-.2-.1-.4.2-2.2.6-3.9.6-2.5 1.5-3.5 3.9-4.2 4.6-1.3 4.7-1.3 4.7.8zm107.7.3c-.3.8-.6.5-.6-.6-.1-1.1.2-1.7.5-1.3.3.3.4 1.2.1 1.9zm10.7.2c-.7 1.7-3.4 2.3-3.4.6 0-.9 3.2-3.1 3.8-2.6.1.2 0 1.1-.4 2zm48.6-.9c1 1.2 1 1.5 0 1.5-.7 0-1 .6-.7 1.3.3.8.1 2-.4 2.8-.8 1.2-1 1.2-1.9-.1-.5-.8-.9-2.4-.9-3.5s.3-1.4.6-.7c.2.6.9.9 1.4.6.6-.3.5-1.1-.2-2-.7-.8-.7-1.4-.1-1.4.5 0 1.5.7 2.2 1.5zM116 371c0 .5-.5 1-1.1 1-.5 0-.7-.5-.4-1 .3-.6.8-1 1.1-1 .2 0 .4.4.4 1zm135 1c0 1.1.5 1.9 1.1 1.7.6-.1 1.4.4 1.6 1 .3.7 0 1.3-.6 1.3s-1.1 1.5-1.1 3.2c0 2.5.3 2.9 1 1.8.8-1.2 1-1.1 1 .7 0 1.3.5 2.3 1 2.3.6 0 1-1 1-2.3 0-2.7 2.6-6.7 4.3-6.7.7 0 1.8-.9 2.5-2 1.3-2.2 3.7-2.6 4.7-.9.4.6-.2 1.7-1.3 2.4-1.1.8-2.2 3.1-2.6 5.4-.5 3.2-1.1 4.2-3.1 4.7-1.5.4-2.5 1.3-2.5 2.5s.5 1.6 1.5 1.3c.9-.4 1.5 0 1.5 1 0 .9-.4 1.6-1 1.6-.5 0-1 .4-1 1 0 .5.7 1 1.6 1 .9 0 1.4.5 1.2 1.2-.8 2.2-2.6 1.9-3.3-.4-.4-1.3-1.1-2.5-1.6-2.8-.4-.3-.9-1.2-1.1-2-.3-1.5-2.9-3.5-6-4.6-1-.3-1.8-1.1-1.8-1.6s-.4-.7-.9-.4c-1.2.8-2.1-1.9-2.1-6.5 0-3.2.4-4.1 2.3-4.9 3.3-1.3 3.7-1.2 3.7 1zm132.9 3.4c3.6-.7 3.6-.7 1.6 1.3-1.1 1.2-2.3 1.6-2.6 1-.4-.5-.8-.4-1.1.3-.3.9-.8.9-2-.3-.8-.9-1.9-1.3-2.4-.9s-.2-.2.6-1.2c1-1.3 1-1.7.3-1.2-.7.4-1.3.5-1.3.2 0-.2-.3-1.3-.6-2.3-.5-1.5-.4-1.5.5-.3.9 1.3 1.1 1.2 1.2-.5.1-1.4.4-1 1.2 1.3.9 3.1 1.2 3.2 4.6 2.6zm-126.1-1.6c.2 1.4-.2 2.2-1.1 2.2-1.5 0-2.9-3.4-1.9-4.5 1.1-1.1 2.7.2 3 2.3zm109-1.7c-.2.6-.8 1-1.3 1s-1.1-.4-1.3-1c-.2-.6.4-1.1 1.3-1.1s1.5.5 1.3 1.1zm-66.1 2.1c-.3.8-.6.5-.6-.6-.1-1.1.2-1.7.5-1.3.3.3.4 1.2.1 1.9zm-196.2-.2c-.3.5-1.2 1-1.8 1-.7 0-.6-.4.3-1 1.9-1.2 2.3-1.2 1.5 0zm227.5 1.1c0 .5-.9.9-2 .9s-2-.5-2-1.1c0-.5.5-.7 1-.4.6.3 1 .1 1-.5s.5-.8 1-.5c.6.3 1 1 1 1.6zm62.5 2.1c.7 2.6.5 2.8-2.3 2.8-2.2 0-3.1-.6-3.5-2.1-.4-1.5-.2-1.9.8-1.5.8.3 1.7-.4 2-1.6.8-2.4 2.1-1.4 3 2.4zM6 375.9c0 .5-.7 1.1-1.4 1.4-1 .4-1.3.1-.9-.9.6-1.5 2.3-1.9 2.3-.5zm157-.5c0 .3-.4.8-1 1.1-.5.3-1 .1-1-.4 0-.6.5-1.1 1-1.1.6 0 1 .2 1 .4zm28.4.8c-.4.6.1 1.7 1.1 2.5 1.6 1.1 1.6 1.3.3 1.3-.9 0-1.9-.7-2.2-1.6-.6-1.5 0-3.4 1-3.4.3 0 .2.5-.2 1.2zM316 376c0 .5-.4 1-1 1-.5 0-1-.5-1-1 0-.6.5-1 1-1 .6 0 1 .4 1 1zm-112.6 1.6c1 2.5.6 5.8-.8 7.6-.7 1-1.6 1.5-2 1.1-.3-.4-1.3.2-2.1 1.3-.8 1-1.5 1.4-1.5.7 0-.6.5-1.5 1-1.8.6-.3 1-1.1 1-1.6 0-.6-.4-.7-1-.4-.5.3-1-.1-1-.9 0-2 1.9-2.1 2.6-.1.4.8 1 1.5 1.6 1.5.5 0 .1-1.1-.9-2.5l-1.8-2.4-1.7 2c-1.2 1.5-1.8 1.7-1.8.7 0-.8.5-1.9 1.2-2.6.9-.9.9-1.2-.1-1.2-.7 0-.9-.5-.5-1.1.4-.8.9-.7 1.6.2.7 1.2 1.1 1.1 2.1-.4 1.5-2.1 3.3-2.2 4.1-.1zM8.5 379.8c-.8.2-2.3.2-3.3-.1-1.4-.3-1.2-.6.8-1.4 1.8-.8 2.7-.7 3.2.1.4.6.1 1.2-.7 1.4zm99.2.9c-.3 1-.5.4-.5-1.2 0-1.7.2-2.4.5-1.8.2.7.2 2.1 0 3zm8.9-1c.5 1.9.2 3-1 3.8-1.5 1.2-1.5 1.3.4 1.8 1.1.3 2.3.1 2.6-.4.3-.5 1.6-.9 3-.9s2.2.4 1.9 1c-.3.5-1.5 1-2.5 1s-2.1.6-2.3 1.2c-.4 1-.8 1-1.4.1-.4-.6-2.1-1.5-3.6-1.8-3.2-.8-4.7-3.3-2.8-4.5.7-.4 1.3-1.1 1.4-1.6.1-.5.5-.8 1-.7.4.2.7-.2.7-.7 0-2.1 2-.9 2.6 1.7zm41.5 3.6c-1.1 3-4.1 3.5-4.1.8 0-1.2.6-3 1.3-4.1 1.1-1.8 1.3-1.9 2.4-.4.7 1 .9 2.4.4 3.7zm15.3-2.3c-.6.6-1.5.5-2.4-.1-1.3-.9-1.2-1 .3-.5.9.3 1.7 0 1.7-.6s.3-.8.7-.5c.4.4.2 1.2-.3 1.7zm-52.4 1.1c0 .5-.4.9-1 .9-.5 0-1-.7-1-1.6 0-.8.5-1.2 1-.9.6.3 1 1 1 1.6zm-112.3-.5c-.3.3-1.2.4-1.9.1-.8-.3-.5-.6.6-.6 1.1-.1 1.7.2 1.3.5zm28.7 3.2c-.4 1.8-1.3 3.2-2 3.2-1.7 0-1.8-1.2-.1-2.9 1-1.1 1-1.3 0-.7-.8.4-1.3.1-1.3-.8 0-.8.8-1.6 1.8-1.8 2.3-.6 2.3-.6 1.6 3zm228.6-1.7c0 .5-.4.9-1 .9-.5 0-1-.7-1-1.6 0-.8.5-1.2 1-.9.6.3 1 1 1 1.6zm-225.9 2c-.5 1.3-1 1.9-1 1.2-.1-1.5 1-4.5 1.5-4 .3.2 0 1.5-.5 2.8zm59-.8c-1 .9-1.1.8-.5-.6.3-1 .9-1.5 1.2-1.2.3.3 0 1.1-.7 1.8zm-78.4 1.3c-.3.3-1.2.4-1.9.1-.8-.3-.5-.6.6-.6 1.1-.1 1.7.2 1.3.5zm10 2.6c-.3.7-.5.2-.5-1.2s.2-1.9.5-1.3c.2.7.2 1.9 0 2.5zm163.8-2.1c1.1 1.6.1 1.9-1.3.3-.7-.8-.8-1.4-.3-1.4s1.3.5 1.6 1.1zm169.7 1.4c-.3 2 0 2.5 1.6 2.5 2.7 0 5.2 1 5.2 2 0 1.4-5.4.6-6.7-1-1.4-1.7-1.7-6-.4-6 .4 0 .6 1.1.3 2.5zm-338.8.1c.3.8.2 1.2-.4.9-.6-.3-1.3.1-1.6.9-.3.9-1 1.3-1.5 1-1.4-.8-1-2.4.6-2.4.8 0 1.5-.5 1.5-1 0-1.5.7-1.2 1.4.6zm17.3.6c-.3.8-.6.5-.6-.6-.1-1.1.2-1.7.5-1.3.3.3.4 1.2.1 1.9zm165.6 3.1c.5 1.3.3 1.7-.5 1.4-.7-.2-1.2-1.2-1-2.2.3-1.4-.1-1.6-1.7-1.2-2 .5-2.9-1.1-1.5-2.6.8-.8 3.9 2.3 4.7 4.6zm72.7.4c0 .1-.7.3-1.5.3s-1.5-.7-1.5-1.5-.4-1.5-1-1.5c-.5 0-1-.8-1-1.8 0-1.3.6-1.1 2.5 1.2 1.4 1.6 2.5 3.1 2.5 3.3zm20-4.7c0 .5-.7 1-1.6 1-.8 0-1.2-.5-.9-1 .3-.6 1-1 1.6-1 .5 0 .9.4.9 1zm-219 4c0 1.5-.7 3.3-1.5 4-2.1 1.8-4.2-2.8-2.6-5.8 1.5-2.9 4.1-1.7 4.1 1.8zm275-3c0 .5-.2 1-.4 1-.3 0-.8-.5-1.1-1-.3-.6-.1-1 .4-1 .6 0 1.1.4 1.1 1zm-171.3 2.2c-.3.8-.6.5-.6-.6-.1-1.1.2-1.7.5-1.3.3.3.4 1.2.1 1.9zm105.3.3c0 1.4-.4 2.5-.9 2.5-.6 0-.8-3.6-.2-4.8.5-1 1.1.2 1.1 2.3zm-254 .6c0 .5-.8 1.3-1.7 1.6-1 .4-2 1-2.3 1.4-1 1.4-4.8-.2-5.3-2.2-.6-2.2-.6-2.2 2.6-1 1.9.8 2.7.6 3.1-.4.6-1.5 3.6-1 3.6.6zm91.6 1.4c2.2 3.4.8 4.7-1.6 1.5-2.2-2.8-2.5-4-1-4 .5 0 1.7 1.1 2.6 2.5zm28 .2c-.7.7-2.6-.7-2.6-1.9 0-.6.6-.6 1.5.2.9.7 1.3 1.5 1.1 1.7zm-84.9-1.1c-.3.3-1.2.4-1.9.1-.8-.3-.5-.6.6-.6 1.1-.1 1.7.2 1.3.5zm3.6.5c-.8.8-.5 1.8 1.4 3.5 2 1.9 2.2 2.4.9 2.4-.9 0-1.6-.7-1.6-1.6 0-.8-.4-1.2-1-.9-.5.3-1 0-1-.7 0-.9-.3-.9-1 .2-.8 1.2-1 1.2-1 .1 0-.8.8-2 1.8-2.7 2.1-1.6 3-1.8 1.5-.3zm-58.6 3.1c-.3.8-.6.5-.6-.6-.1-1.1.2-1.7.5-1.3.3.3.4 1.2.1 1.9zm259 0c-.3.8-.6.5-.6-.6-.1-1.1.2-1.7.5-1.3.3.3.4 1.2.1 1.9zm-254.9-.3c1 .6.9 1-.7 1.4-1.4.3-2.1 0-2.1-.9 0-1.6.9-1.8 2.8-.5zm137.2 1.2c0 1.1-.4 1.7-1 1.4-.5-.3-1-1.3-1-2.1s.5-1.4 1-1.4c.6 0 1 .9 1 2.1zm161.5.8c-.3 1.2-1.1 2.1-1.6 2.1-1.4 0-1.1-2 .4-2.1.8 0 .8-.2-.2-.6-1.1-.4-1.1-.7 0-1.4 1.8-1.1 2.2-.5 1.4 2zm4.4 1.5c-.9.8-1 .7-.5-.7.3-1 .7-2.4.7-3 .1-.7.3-.4.6.7.3 1-.1 2.3-.8 3zM28 396c0 .5-.4 1-1 1-.5 0-1-.5-1-1 0-.6.5-1 1-1 .6 0 1 .4 1 1zm274.5 2c.3.5.2 1-.4 1-.5 0-1.3-.5-1.6-1-.3-.6-.2-1 .4-1 .5 0 1.3.4 1.6 1z"/><path d="M177.8 116.7c.7.3 1.6.2 1.9-.1.4-.3-.2-.6-1.3-.5-1.1 0-1.4.3-.6.6zM189.4 145.9c.4.5.3 1.1-.1 1.4-.5.2-.2.2.5.1.6-.2 1.2.2 1.2.8 0 .6.2.9.5.6.8-.8-.6-3.8-1.7-3.8-.5 0-.7.4-.4.9zM279.4 320.6c.3.8.6 1.8.6 2 0 .2.5.4 1 .4 1.6 0 1.1-2.7-.6-3.4-1.2-.5-1.5-.2-1 1zM282 336.1c0 .5.5.7 1 .4.6-.3 1-.8 1-1.1 0-.2-.4-.4-1-.4-.5 0-1 .5-1 1.1zM259.1 328.7c-.1.7-1.1 1.3-2.3 1.3-2.1.1-2.2.1-.5 1.1 2.2 1.3 4.2-.1 3.4-2.3-.4-.9-.6-1-.6-.1zM267 329c0 .5.7 1 1.6 1 .8 0 1.2-.5.9-1-.3-.6-1-1-1.6-1-.5 0-.9.4-.9 1zM290.8 328.1c-1 .5-1.8 1.8-1.7 2.7 0 1.4.2 1.4.6.2.4-.8 1.3-2 2.2-2.7 1.9-1.5 1.3-1.6-1.1-.2zM307 351c0 .5.5 1 1 1 .6 0 1-.5 1-1 0-.6-.4-1-1-1-.5 0-1 .4-1 1zM210.5 353.8c-.3.9-.3 1.3.1.9s1.4.3 2.2 1.5c1.5 2 1.6 2 2.9.3 1.5-2.2 1.7-3.9.3-3-.5.3-1 .2-1-.2 0-1.6-3.8-1.2-4.5.5zM230 376.7c0 .5 1.1.9 2.5.9 1.4.1 2.2-.2 1.9-.7-.6-1.1-4.4-1.2-4.4-.2zM236.5 378.1c.4.6-.1 1.6-1.1 2.4-1.1.7-1.6 1.7-1.2 2 1 1 3.8-2 3.8-3.9 0-.9-.5-1.6-1.1-1.6-.5 0-.7.5-.4 1.1zM248.8 357.7c.7.3 1.6.2 1.9-.1.4-.3-.2-.6-1.3-.5-1.1 0-1.4.3-.6.6zM247.8 372.7c.7.3 1.6.2 1.9-.1.4-.3-.2-.6-1.3-.5-1.1 0-1.4.3-.6.6zM260.5 379.1c-.4.6-.5 1.2-.2 1.5.2.3.7-.2 1-1.1.7-1.7.1-2-.8-.4zM380.9 2.8c-1.3 2.4-1.4 3.2-.3 4.6 1 1.5 1.5 1.5 3.3.4 1.2-.7 2.1-2.2 2.2-3.3 0-1.9.1-1.9.9.2.5 1.2 1.5 2.5 2.2 3 .7.4 1.9 1.8 2.5 3 1.2 2 .8 3-3.2 9.2-2.5 3.8-4.5 7.7-4.5 8.5 0 2 2.4 2.1 4 .1 1.1-1.4 1.4-1.3 2.6.3 1.3 1.9.9 6.2-.6 6.2-.4 0-1 .8-1.4 1.7-.3 1-.9 2.4-1.2 3.2-.5 1-.2 1.2.9.8 1.1-.4 1.4-.2 1 .9-.6 1.7-2 1.8-2.6.1-.5-1.5-4.7 2.9-4.7 5 0 .7-.4 1.3-1 1.3-.5 0-.7.6-.4 1.4.7 1.9-6.5 11.6-8.1 10.9-.7-.2-1.6 0-2 .6-.3.6.2 1.1 1.2 1.1 1.7.1 1.7.1 0 1.1-.9.6-1.5 1.4-1.2 1.9.3.5-.3 1.4-1.4 1.9-2.8 1.6-3.5 1.3-1.7-.5.9-.8 1.6-2.1 1.6-2.7 0-.7-1.1.1-2.4 1.8-2.3 2.8-2.3 3-.5 3.3 1.1.2 1.7.9 1.3 1.5-.3.7.8-.3 2.5-2.2 1.9-2.2 4.1-3.5 6.2-3.7 2.6-.3 3-.1 2.1.8-.7.7-1.2 1.7-1.2 2.2.1 1.3 3-2.4 3-3.7 0-.5-.9-.7-2-.4-1.1.3-2 .2-2-.2 0-1.6 3.5-4.8 4.8-4.4.6.3 1.2-.2 1.2-1 0-.9.6-2.2 1.3-2.9.7-.7 2-2.5 3-4.1 1.8-2.7 5-3.6 6.2-1.6.4.6 1.3.8 2.1.5 1.6-.6 1.9 1 .4 1.9-.6.4-.8 1.1-.4 1.6 1.1 1.8 5.4-5.3 5.4-8.8 0-3.1-.2-3.2-2-2.1-2.4 1.5-2.6 2.8-.5 2.8 2.2 0 1.8 1.7-.5 2.3-1.2.3-1.8.1-1.4-.5.4-.6.1-1.3-.5-1.7-.8-.5-.4-1.5 1.3-3.2 2.3-2.4 2.4-2.7 1.1-5.3-.8-1.6-1.5-3.5-1.5-4.3 0-1-.6-1.3-1.6-.9-1.2.5-1.4.1-.8-1.7.3-1.2 1.4-3 2.3-4.1 1.5-1.7 1.5-1.8-.4-1.3-1.1.4-2.7.2-3.5-.4-1.2-.8-1-.9.8-.4 1.3.4 2.2.2 2.2-.4 0-1.6 3.8 1 4.4 2.9.2.8.4-4.7.5-12.3L400 0h-8.7c-8.6 0-8.8.1-10.4 2.8zm11.9 25.8c-.3 1.4-.5 1.2-1-.9-.3-1.9-.2-2.5.4-1.9.6.6.8 1.8.6 2.8zM376.5 2c-.3.5-.1 1 .4 1 .6 0 1.1-.5 1.1-1 0-.6-.2-1-.4-1-.3 0-.8.4-1.1 1zM122.1 3.6c0 1.1.3 1.4.6.6.3-.7.2-1.6-.1-1.9-.3-.4-.6.2-.5 1.3zM8.1 4.6c0 1.1.3 1.4.6.6.3-.7.2-1.6-.1-1.9-.3-.4-.6.2-.5 1.3zM5.1 5c-.1.8-.4 2.6-.7 4-.5 2.2-.4 2.3.6.7.6-1 .9-2.8.7-4-.2-1.2-.5-1.5-.6-.7zM1.1 6.6c0 1.1.3 1.4.6.6.3-.7.2-1.6-.1-1.9-.3-.4-.6.2-.5 1.3zM140.1 5.7c-.1.6-.4 2-.7 3-.5 1.7-.5 1.7.6 0 .6-1 .9-2.3.6-3-.3-.9-.5-.9-.5 0zM185.1 7.6c0 1.1.3 1.4.6.6.3-.7.2-1.6-.1-1.9-.3-.4-.6.2-.5 1.3zM127.1 9.6c0 1.1.3 1.4.6.6.3-.7.2-1.6-.1-1.9-.3-.4-.6.2-.5 1.3zM162.1 9.6c0 1.1.3 1.4.6.6.3-.7.2-1.6-.1-1.9-.3-.4-.6.2-.5 1.3z"/><path d="M378.2 11.2c-1.4 1.4-1.6 4.8-.3 4.8.5 0 1.1-.8 1.5-1.8.3-.9.9-2.3 1.2-3 .7-1.5-.8-1.6-2.4 0zM382.7 11.8c-1.9 2.1-2.2 4.2-.7 4.2.6 0 1-.9 1-2.1 0-1.1.5-1.7 1-1.4.6.3 1-.1 1-.9 0-2-.3-2-2.3.2zM7 16.1c0 2.4.5 5.1 1 5.9.6 1 .8-.3.4-4-.6-6.7-1.4-7.8-1.4-1.9zM171.1 16.6c0 1.1.3 1.4.6.6.3-.7.2-1.6-.1-1.9-.3-.4-.6.2-.5 1.3zM2.3 20c0 2.5.2 3.5.4 2.2.2-1.2.2-3.2 0-4.5-.2-1.2-.4-.2-.4 2.3zM10.1 20.5c.1 4 .1 4 1 1 .5-1.8.5-3.3-.1-3.9-.7-.7-1 .4-.9 2.9zM137.1 19.6c0 1.1.3 1.4.6.6.3-.7.2-1.6-.1-1.9-.3-.4-.6.2-.5 1.3zM5.1 21.6c0 1.1.3 1.4.6.6.3-.7.2-1.6-.1-1.9-.3-.4-.6.2-.5 1.3zM12.7 21.5c-.4.8-.2 1.7.3 2 .6.4 1-.3 1-1.4 0-2.5-.6-2.7-1.3-.6zM171.1 23.6c0 1.1.3 1.4.6.6.3-.7.2-1.6-.1-1.9-.3-.4-.6.2-.5 1.3zM368.1 25.6c0 1.1.3 1.4.6.6.3-.7.2-1.6-.1-1.9-.3-.4-.6.2-.5 1.3zM6.3 29.5c0 2.2.2 3 .4 1.7.2-1.2.2-3 0-4-.3-.9-.5.1-.4 2.3zM3.1 31.4c-.1 2.6.2 3.7.9 3 .6-.6.6-2.1.1-3.9-.9-3-.9-3-1 .9zM166.6 32.5c-.9 2.6-.7 3.2.5 1.2.6-1 .9-2.1.6-2.3-.2-.3-.7.2-1.1 1.1zM10.3 35.5c0 2.2.2 3 .4 1.7.2-1.2.2-3 0-4-.3-.9-.5.1-.4 2.3zM350.7 38c-1.8 2.1-2.3 4.5-.8 3.6.5-.4 1.1-.3 1.4.1.2.5.2.2.1-.5-.5-1.9.7-4.3 1.9-3.5.6.3.7.1.3-.5-.9-1.5-.9-1.5-2.9.8zM173.5 44c.3.5.8 1 1.1 1 .2 0 .4-.5.4-1 0-.6-.5-1-1.1-1-.5 0-.7.4-.4 1zM329.5 46.9c-2 2.9-2.4 4.4-1.7 5.7.8 1.5 1 1.5 2.4-.5.8-1.1 1.7-1.8 2.1-1.5.3.3 1.1.3 1.7-.1.8-.5.5-1.1-.7-2-1.7-1.3-1.7-1.3.2-1.2 1.1.1 2.1-.5 2.3-1.5.3-1.4-.1-1.6-1.4-1.1-1.2.4-1.5.3-1-.5.4-.7.3-1.2-.2-1.2s-2.2 1.8-3.7 3.9zM349.5 48c-.4 1.7-1.4 3.4-2.2 3.9-1.1.6-1.4 1.4-.8 2.7.8 1.8.8 1.8 1.3-.1.2-1.1.7-2.2 1.1-2.5.3-.3 1.3-1.4 2.3-2.5 1.3-1.7 1.4-2.2.3-3.2-1.1-1-1.5-.7-2 1.7zM392.1 52.6c0 1.1.3 1.4.6.6.3-.7.2-1.6-.1-1.9-.3-.4-.6.2-.5 1.3zM387.7 52.7c-1.3 1.2-.7 2.3 1.3 2.3 1.1 0 2-.7 2-1.5 0-1.5-2.1-2.1-3.3-.8zM5.2 56c0 1.9.2 2.7.5 1.7.2-.9.2-2.5 0-3.5-.3-.9-.5-.1-.5 1.8zM324.2 54.6c-.7.8-.8 1.4-.3 1.4 1 0 2.5-1.9 2-2.5-.2-.1-1 .3-1.7 1.1zM16.3 59c0 2.5.2 3.5.4 2.2.2-1.2.2-3.2 0-4.5-.2-1.2-.4-.2-.4 2.3zM327 56.2c0 2.5 1.3 2.7 3.3.6.9-1 1.3-1.8.8-1.8-.6 0-1.3.5-1.7 1.1-.4.8-.9.7-1.5-.2-.7-1.1-.9-1-.9.3zM295 59.2c-.7 1.8-1.3 4.2-1.2 5.3 0 1.1-.2 1.4-.4.7-.3-.6-.9-1.2-1.4-1.2-1.2 0-2.3 5.7-1.3 7.2 1 1.7.5 4.6-1.4 7.5-1 1.5-1.1 2.3-.4 2.3.6 0 1.4-.7 1.8-1.6.3-.8 1.1-1.3 1.7-1.1.7.3 2.3-.4 3.7-1.4 1.4-1.1 1.8-1.9 1-1.9-.9 0-.6-.7.9-2 1.3-1.1 2-2.3 1.5-2.8-.4-.4-1-.1-1.2.5-1 2.7-3.3 1.3-3.3-2 .1-2.8.2-3 1.1-1.3.9 1.5 1.3 1.6 2 .5.8-1.2 1.1-1.2 2 .1.9 1.2 1 1.1.4-.5-.4-1.1-1.2-4.1-1.8-6.8-.7-2.6-1.4-4.7-1.7-4.7-.3 0-1.2 1.5-2 3.2zm2.7 6c-.3.8-.6.5-.6-.6-.1-1.1.2-1.7.5-1.3.3.3.4 1.2.1 1.9zM295 75.6c0 .8-.5 1.2-1 .9-.6-.4-.8-1.1-.5-1.6.9-1.4 1.5-1.1 1.5.7zM389 57.9c0 1.2-.4 2.1-1 2.1-.5 0-1 .8-1 1.7 0 1.4.3 1.4 2-.5 2.2-2.3 2.5-3.8 1-4.7-.5-.3-1 .3-1 1.4zM156.5 65c.3.5 1 1 1.6 1 .5 0 .9-.5.9-1 0-.6-.7-1-1.6-1-.8 0-1.2.4-.9 1zM287.4 71.4c-.3.8-.2 2.2.3 3.1.8 1.3 1 1 1-1.4 0-3.4-.5-3.9-1.3-1.7zM365 70.5c-.1.5-.2 1.3-.1 1.7 0 .5-.3.8-.9.8-.5 0-1-.5-1-1.2 0-.6-.2-.9-.5-.6-.3.3-.2 1.6.3 2.9l.9 2.3 1.2-2.2c.7-1.3 1-2.8.7-3.5-.2-.7-.5-.8-.6-.2zM316.1 72.8c0 .7-1 2.3-2.2 3.5-2.6 2.8-5.2 7.7-4.1 7.7 1.9 0 7.3-8.1 6.9-10.3-.2-1.2-.5-1.6-.6-.9zM303 75.3c0 .8-.9 2.2-2 3.2s-2 2.3-2 2.8-1.8 3.8-4 7.3-3.6 6.4-3.1 6.4 1.2-.7 1.5-1.7c1.3-3.3 9.8-15.3 10.5-14.8.5.2.6-.7.3-2-.5-2.7-1.2-3.4-1.2-1.2zM165.6 77c.7 2.8 1.2 3.5 1.8 2.9.2-.2-.2-1.5-1-2.9l-1.5-2.5.7 2.5zM285 75.8c0 .5.7 1.5 1.5 2.2.8.7 1.5.9 1.5.6 0-.4-.7-1.4-1.5-2.2-.8-.9-1.5-1.1-1.5-.6zM377.8 78c-3.3 3.4-3.4 4-.8 4 1.2 0 2-.6 1.8-1.3-.1-.6.3-2.2 1-3.5 1.6-2.9 1.3-2.7-2 .8z"/><path d="M317 78.9c0 1.7-5.5 7.8-6.8 7.3-.7-.2-1 .2-.7 1.1.3.7-.1 2-1 2.7-.8.7-1.5 2-1.6 2.9 0 .9-.8-.4-1.8-2.9-1.3-3.1-1.6-4.9-.9-5.7.6-.7 1.4-1.1 1.8-.8.5.3.6-.4.3-1.5-.5-1.9-.7-1.9-2.7-.6-1.1.8-2 1.9-1.8 2.5.1.7-.5 1.4-1.3 1.7-.8.3-1.2 1-.9 1.5.7 1.2-2.1 5.1-3.1 4.1-.5-.4-.5-.2-.2.4.6 1.1-6.2 11.7-9.1 14.1-.9.8-1.1 1.1-.4.8 1.2-.6 1.2-.3.1 1.6-2.4 4.5-6.6 9.8-7.3 9.1-.4-.3-.4.1-.1.9.3.9-.3 2.3-1.5 3.4-1.1 1-2 2.4-2 3.2 0 .7-.4 1.3-.9 1.3s-1.3 1-1.7 2.2c-.3 1.3-2.6 4.6-4.9 7.3-3.8 4.5-4.2 5.3-3.1 7.3.7 1.3 1.5 2 1.8 1.6.4-.3.4.3.2 1.3-.3 1.1.2 4.6 1.1 7.9.9 3.2 2.2 8.1 2.9 10.8l1.2 4.8 3.9-5.8c2.1-3.3 6.4-9.3 9.4-13.4 3.1-4.1 6.4-8.6 7.4-10 9.8-14.1 19.7-26.5 21-26.4.9.1 1.4-.3 1.1-.8-.3-.5-1.2-.7-1.9-.4-2.5.9-2.5-4.6.1-7.7 2.6-3 2.9-4.4 1.5-6.5-.6-1-1.4-.4-3.2 2.4l-2.3 3.8-1-3.1c-.7-2.7-.5-3.7 1.8-6.5 1.4-1.8 3-3.8 3.5-4.4 2.2-2.7 5-12.4 3.5-12.4-.2 0-.4.4-.4.9zM285.6 82.2c-.9 3-2.1 3.6-3 1.5-.3-.6-.5.3-.3 2 .2 1.8-.1 3.4-.6 3.6-.6.2-1.1 1.6-1.3 3.2l-.3 3 2-3.3c1.2-1.7 2.7-3.2 3.5-3.2.8 0 1.1-.6.8-1.5-.4-.9.4-2.3 1.7-3.5 1.5-1.2 1.8-1.8.7-1.4-1.1.3-1.8-.1-2.1-1.3-.3-1.4-.5-1.2-1.1.9zM318 82.1c0 .5.5.7 1 .4.6-.3 1-.8 1-1.1 0-.2-.4-.4-1-.4-.5 0-1 .5-1 1.1zM381.6 84.5c.4.8.8 1.5 1 1.5.2 0 .4-.7.4-1.5s-.4-1.5-1-1.5c-.5 0-.7.7-.4 1.5z"/><path d="M323 85.9c-1.3 2.5-1.4 5.2 0 3.1.5-.8 1.1-1.2 1.4-.9.3.3-.9 2.7-2.7 5.4-5.3 8-5.9 9.3-4.9 11.2.8 1.3 1.9.3 6.6-6L329 91l-1.4-3.5c-1.7-3.9-3-4.4-4.6-1.6zM374.6 85.5c-.3.8-.1 1.5.4 1.5.6 0 1-.7 1-1.5s-.2-1.5-.4-1.5-.6.7-1 1.5zM289.1 85.9c-.8.5-.9 1.1-.3 1.5.5.3 1.2-.1 1.6-.9.6-1.7.6-1.8-1.3-.6zM344 87c-.1 2.2-.2 2.3-1.3.8-1.2-1.5-1.4-1.5-2.6.4-.7 1.1-1 2.3-.7 2.6.3.3.6 0 .6-.7 0-.8 1-1.1 3-.7 3.1.4 3.8-.6 2-3.4-.8-1.2-1-1-1 1zM276.5 91c-.3.5-.1 1 .4 1 .6 0 1.1-.5 1.1-1 0-.6-.2-1-.4-1-.3 0-.8.4-1.1 1zM340.2 93.3c-2 1.9-2.4 2-3.3.7-.9-1.2-1-1.2-.5.3.3 1 .7 3.1.7 4.5.1 2.7.1 2.7.8-.3.4-2 1.2-3 2.4-2.9.9.1 1.4-.3 1.1-.8-.4-.6 0-1.4.7-1.9.7-.4 1.1-1 .8-1.3-.3-.3-1.5.5-2.7 1.7zM249.6 97.5c-1.6 3-3.3 5.5-3.8 5.5s-.6-.5-.3-1c.3-.6.4-1 .1-1-.3 0-1 .9-1.6 2-.9 1.6-.8 1.8.5 1.4 2-.8 1.9 0-.8 4.4-1.2 2-2.8 5-3.6 6.7-.7 1.6-1.7 3.7-2.2 4.5-2.9 4.9-3.3 11-.7 11 .6 0 .7 1.1.4 2.6-.4 1.4-.3 3.1.2 3.7.5.7 1.2 2.9 1.6 4.9.4 2.1 1 4 1.5 4.2.4.3 2.9-3.2 5.4-7.7 6.9-12.1 8.1-14.1 8.8-14.7.3-.3 1.7-2.6 3.1-5.2l2.7-4.8-2.1-6.7c-3-10-5-15.3-5.7-15.3-.3 0-1.9 2.5-3.5 5.5zm4.1 3.7c-.3.8-.6.5-.6-.6-.1-1.1.2-1.7.5-1.3.3.3.4 1.2.1 1.9zm-2.4 2.3c-.3.9-.8 1.4-1 1.1-.3-.3-.2-.9.2-1.5.9-1.6 1.5-1.3.8.4zm2 1.5c-.3 1.2-.8 1.9-1.1 1.6-.5-.6.5-3.6 1.2-3.6.2 0 .2.9-.1 2zm-1.9 2.6c.3.8.2 1.2-.4.9-.6-.3-1-1-1-1.6 0-1.4.7-1.1 1.4.7zm-2.8 6.6c-2.4 4.7-3.6 6.2-3.6 4.6 0-.9.5-2 1.1-2.3.6-.4.8-1.4.5-2.2-.3-.8-.1-1.1.5-.8.6.4.8-.4.4-2.2-.5-2.6-.5-2.6.6-.6.6 1.2.9 2.8.5 3.5zm-5 4.2c0 1.3-.3 2.3-.5 2-.2-.2-1 .4-1.8 1.4-.8 1-.7.3.4-2.1.9-2 1.8-3.7 1.9-3.7.1 0 .1 1.1 0 2.4zm7.4.1c0 .8-.2 1.5-.4 1.5s-.6-.7-1-1.5c-.3-.8-.1-1.5.4-1.5.6 0 1 .7 1 1.5zm-2.9 2.8c-1 .9-1.1.8-.5-.6.3-1 .9-1.5 1.2-1.2.3.3 0 1.1-.7 1.8zm2.2 1.4c-.7.3-1.3 1.4-1.3 2.6 0 2 0 2-1.4.2-1.2-1.7-1.1-2.1.8-3 1.1-.7 2.3-1 2.6-.7.3.3-.1.7-.7.9zM246 127c0 1.1-.4 2-.9 2s-.7-.9-.4-2c.3-1.1.7-2 .9-2 .2 0 .4.9.4 2zM283.1 95.2c-.1 1-.9 1.8-1.8 1.8-1.5 0-1.6.2-.3 1 1.7 1 3.5-1.2 2.6-3.3-.2-.7-.5-.4-.5.5zM239.7 102.6c-3 5.9-3.5 7.9-2.6 8.8.9.8 1 .8.5-.1-.4-.7.3-1.4 1.5-1.8 1.6-.5 1.8-.9.9-1.5-.7-.4-.9-1.3-.5-2 .6-.9 1-.9 1.7.1.8 1.1.9 1.1.5-.1-.2-.8.7-3 2.1-4.9 1.4-1.9 2-3.1 1.3-2.6-1 .5-1.1.2-.6-1.4 1.5-4.8-1.3-1.6-4.8 5.5zM277 97.5c0 .8.5 1.5 1 1.5.6 0 1-.7 1-1.5s-.4-1.5-1-1.5c-.5 0-1 .7-1 1.5zM268.7 102.9c-.4 1.7-.2 1.8 1.4.8 2.2-1.4 2.5-2.7.5-2.7-.7 0-1.6.9-1.9 1.9zM274.6 103.5c-.3.8-.1 1.5.4 1.5.6 0 1-.7 1-1.5s-.2-1.5-.4-1.5-.6.7-1 1.5zM271 104.6c0 .3.7 1.2 1.5 2 1.6 1.7 1.8 1.4.9-1-.6-1.5-2.4-2.3-2.4-1zM90.8 113.7c.7.3 1.6.2 1.9-.1.4-.3-.2-.6-1.3-.5-1.1 0-1.4.3-.6.6zM267.5 114c-.3.5-.2 1 .4 1 .5 0 1.3-.5 1.6-1 .3-.6.2-1-.4-1-.5 0-1.3.4-1.6 1zM278 115c-.6 1.1-.8 2-.6 2 .3 0 1-.9 1.6-2 .6-1.1.8-2 .6-2-.3 0-1 .9-1.6 2zM328 114.9c0 .5-1.2 2.4-2.6 4.1-1.5 1.7-2.4 3.4-2 3.7.3.4.7.4.9.2.2-.2 1.5-2.1 3-4.1 2.9-4 3.2-4.8 1.7-4.8-.5 0-1 .4-1 .9zM263 119c-1.2.8-1 1 .8 1 1.3 0 2-.4 1.7-1-.7-1.2-.6-1.2-2.5 0zM318.2 120.2c-.7.7-1.2 1.6-1.2 2.1s.7.1 1.6-.8c.9-.9 1.4-1.8 1.2-2-.2-.3-1 .1-1.6.7zM330 121.2c0 .9.5 2 1 2.3 1.3.8 1.3-.5 0-2.5-.8-1.3-1-1.3-1 .2zM364.8 126.7c-3.8 3.6-6.8 6.9-6.8 7.3 0 1.4-4.8 5.9-5.5 5.2-.4-.4-.3.3.3 1.4.6 1.2.8 2.4.4 2.8-.3.4.1.4 1.1 0 1-.3 1.6-1.4 1.5-2.2-.2-.9.2-1.7.7-1.7 1.9-.1 3.5-1.6 2.9-2.7-.4-.6-.2-.8.4-.4.6.3 2.8-1.5 4.9-4.1 2.1-2.7 4.8-5.6 6.1-6.6 2.1-1.7 3.1-5.7 1.5-5.7-.5 0-3.8 3-7.5 6.7zm.2 2.7c0 .3-.4.8-1 1.1-.5.3-1 .1-1-.4 0-.6.5-1.1 1-1.1.6 0 1 .2 1 .4zM260 123.1c0 .5.5.7 1 .4.6-.3 1-.8 1-1.1 0-.2-.4-.4-1-.4-.5 0-1 .5-1 1.1zM229.6 124.7c-.6 1.4-.5 1.5.5.6.7-.7 1-1.5.7-1.8-.3-.3-.9.2-1.2 1.2zM17.1 125.6c0 1.1.3 1.4.6.6.3-.7.2-1.6-.1-1.9-.3-.4-.6.2-.5 1.3zM270.5 126.6c-.9 1.5-1.2 2.3-.6 2 1.1-.7 3.5-4.6 2.8-4.6-.3 0-1.2 1.2-2.2 2.6zM17.1 129.6c0 1.1.3 1.4.6.6.3-.7.2-1.6-.1-1.9-.3-.4-.6.2-.5 1.3zM339.3 130.7c-1 1.6-2.4 3.3-3.2 3.9-1.1.8-1.1 1.5-.2 3.3 1 1.8 1.5 2 2.7 1 3.2-2.6 5.5-6.9 4.9-8.9-.9-2.7-2.1-2.5-4.2.7zM23.2 137.5c0 1.6.2 2.2.5 1.2.2-.9.2-2.3 0-3-.3-.6-.5.1-.5 1.8zM332.6 139.3c-1.2 1.7-1.4 3.1-.8 4.7.6 1.7 1.1 2 1.7 1.1.4-.8.2-1.7-.6-2.3-1.1-.8-1.1-.9.2-.5.9.3 2.2.2 2.9-.3 1-.6 1-1.2-.3-3l-1.5-2.2-1.6 2.5zM398.5 143c-.3.5-.3 1 .2 1.1.4 0-.1.4-1.2.9-1.6.7-1.7.9-.3.9 1.2.1 1.5.7 1.1 2.3-.3 1.3-.2 2 .2 1.5.9-.8 1.8-7.7 1-7.7-.2 0-.7.4-1 1zM17.1 145.6c0 1.1.3 1.4.6.6.3-.7.2-1.6-.1-1.9-.3-.4-.6.2-.5 1.3zM24.2 159c0 6.9.3 13.6.7 15 .4 1.4.5-3.4.4-10.5-.5-17.6-1-19.8-1.1-4.5zM328.6 148.7c-.6 1.4-.5 1.5.5.6.7-.7 1-1.5.7-1.8-.3-.3-.9.2-1.2 1.2zM258.5 149.7c-.5 1-.9 2-.9 2.3-.1.3-1.9 3.2-4.1 6.5-2.2 3.3-4.4 6.8-5 7.6-2.4 3.9-5.1 7.6-7.2 9.9-2.5 2.7-2.9 4-1.3 4 .5 0 .7.6.4 1.4-.3.8.1 2.7.9 4.3.8 1.5 1.2 3.3 1 3.9-.2.6.6 3.2 1.7 5.9 1.1 2.6 1.8 5.6 1.5 6.6-.4 1.1-.2 1.9.4 1.9 1.3 0 6.9-8.5 7.8-11.8 1-4.2 5.3-10.2 7.8-10.8 1.3-.3 3.1-2.1 4.1-3.9 1.7-3.3 1.7-3.5-1.6-15.7-3.5-13.2-4.3-14.9-5.5-12.1zM243.6 150.7c-.6 1.4-.5 1.5.5.6.7-.7 1-1.5.7-1.8-.3-.3-.9.2-1.2 1.2zM292.3 161.1c-.2 2.3.3 2.5 1 .4.4-.8.3-1.6-.1-1.9-.4-.3-.9.4-.9 1.5zM241.1 161.6c0 1.1.3 1.4.6.6.3-.7.2-1.6-.1-1.9-.3-.4-.6.2-.5 1.3zM29.1 164.2c-.4 1.3-.5 4.3-.2 6.8l.7 4.5 1.6-3.6c3-6.8 3-7.7.8-8.9-1.7-.9-2.1-.7-2.9 1.2zM286.1 166.3c-1.3 2.1-1.2 2.1.5.5 1-1 1.6-2 1.3-2.2-.3-.3-1.1.5-1.8 1.7zM19.1 166.6c0 1.1.3 1.4.6.6.3-.7.2-1.6-.1-1.9-.3-.4-.6.2-.5 1.3zM354.6 169.4c-1.8 2.9-2.1 4.6-.6 4.6.6 0 1-.8 1-1.8s.5-2.3 1.2-3c.6-.6.9-1.4.6-1.7-.3-.3-1.3.6-2.2 1.9zM384.6 171.7c-.6 1.4-.5 1.5.5.6.7-.7 1-1.5.7-1.8-.3-.3-.9.2-1.2 1.2zM25.2 180.5c0 1.6.2 2.2.5 1.2.2-.9.2-2.3 0-3-.3-.6-.5.1-.5 1.8zM110 180.1c0 .5.5.7 1 .4.6-.3 1-.8 1-1.1 0-.2-.4-.4-1-.4-.5 0-1 .5-1 1.1zM264.9 192.7c-1.3 1.6-1.2 1.7.4.4 1.6-1.3 2.1-2.1 1.3-2.1-.2 0-1 .8-1.7 1.7zM269.6 206.3l-2.8 3.7 1.5 5.8c.8 3.1 2.7 10.2 4.2 15.7s4 15.2 5.6 21.5c3.9 15.1 3.8 14.9 4.9 12.9 1-1.7 1-1.4-5-23.9-8.4-31.2-8.3-31-6.5-33 .9-1 1.5-2.9 1.3-4.2-.3-2.2-.5-2.1-3.2 1.5zM254.5 206c-.3.5-.1 1 .4 1 .6 0 1.1-.5 1.1-1 0-.6-.2-1-.4-1-.3 0-.8.4-1.1 1zM222.1 207.6c0 1.1.3 1.4.6.6.3-.7.2-1.6-.1-1.9-.3-.4-.6.2-.5 1.3zM343 206.8c0 2.1 20.3 62.7 20.7 61.6.3-1-19.3-61.2-20.3-62.3-.2-.2-.4.1-.4.7zM251.5 210.1c-.4.6-.5 1.2-.2 1.5.2.3.7-.2 1-1.1.7-1.7.1-2-.8-.4zM223.1 211.6c0 1.1.3 1.4.6.6.3-.7.2-1.6-.1-1.9-.3-.4-.6.2-.5 1.3zM98.9 213.7c-.1.5-.1 1.1 0 1.5 0 .5-.4.8-1.1.8-.9 0-.9.3 0 1.2 1 1 1.5 1 2.2-.2 1.3-2 1.3-4 0-4-.5 0-1.1.3-1.1.7zM81.7 215.7c-.4.3-.7 1.1-.7 1.7 0 .6.5.5 1.2-.2.6-.6.9-1.4.7-1.7-.3-.3-.9-.2-1.2.2zM110.3 220c-.4 1.4-1.4 2-3.3 2-1.6 0-3 .5-3.2 1.2-.3.7-2 1.3-3.9 1.3-7.4.3-8.9.5-8.9 1.6 0 .7 1.1.9 2.9.6 2.7-.6 3-.3 3.6 2.3.6 2.7 3.5 4.4 3.5 2 0-.6.8-1 1.9-1 1 0 2.4-.7 3.1-1.5 1.6-1.9 3-1.9 3-.1 0 1 1 1.4 3 1.4 2.8-.1 4.5-1.8 1.8-1.8-.9 0-.9-.3 0-1.2 1.6-1.6 1.5-2.8-.3-2.8-.8 0-1.5-.7-1.5-1.5 0-1.8 1.7-2 2.2-.3.2.6 1 .8 1.7.4.9-.6.8-1.2-.5-2.7-2.2-2.5-4.5-2.4-5.1.1z"/><path d="M100.7 220.6c-.3.3-.3 1.2 0 2 .4 1.1.9 1.2 1.9.3.8-.6 1.1-1.5.8-2-.6-1-1.8-1.2-2.7-.3zM116 227c0 .5.7 1 1.5 1s1.5-.5 1.5-1c0-.6-.7-1-1.5-1s-1.5.4-1.5 1zM155 227.1c0 .5.5.7 1 .4.6-.3 1-.8 1-1.1 0-.2-.4-.4-1-.4-.5 0-1 .5-1 1.1zM155.6 232.5c.4.8.8 1.5 1 1.5.2 0 .4-.7.4-1.5s-.4-1.5-1-1.5c-.5 0-.7.7-.4 1.5zM215.1 233.5c0 1.1.6 4.2 1.3 7 .8 2.7 1.4 4.1 1.4 3 0-2.9-2.5-12.4-2.7-10zM78.1 234.6c0 1.1.3 1.4.6.6.3-.7.2-1.6-.1-1.9-.3-.4-.6.2-.5 1.3zM105.7 237.4c-1.4 1.1-1.5 1.5-.3 1.9.8.3 1.6-.2 1.9-1.4.3-1 .4-1.9.4-1.9-.1 0-1 .7-2 1.4zM77 238.5c0 .8.5 1.5 1 1.5.6 0 1-.7 1-1.5s-.4-1.5-1-1.5c-.5 0-1 .7-1 1.5zM254.1 243c0 .8.4 2.2.9 3 1.2 1.8 1.2.2 0-2.5-.6-1.3-.9-1.5-.9-.5zM218.2 248.5c0 1.6.2 2.2.5 1.2.2-.9.2-2.3 0-3-.3-.6-.5.1-.5 1.8zM219.2 254c0 1.4.2 1.9.5 1.2.2-.6.2-1.8 0-2.5-.3-.6-.5-.1-.5 1.3zM257.1 254.6c0 1.1.3 1.4.6.6.3-.7.2-1.6-.1-1.9-.3-.4-.6.2-.5 1.3zM361.5 255c-.3.5-.1 1 .4 1 .6 0 1.1-.5 1.1-1 0-.6-.2-1-.4-1-.3 0-.8.4-1.1 1zM259.1 262.5c.1 1.9 1.8 5.1 1.8 3.5 0-.8-.4-2.2-.9-3-.5-.8-.9-1.1-.9-.5zM53.1 263.8c-.1.7-.6 1-1.2.7-1.5-1-3.7 2.4-3.2 4.9.3 1.9.3 1.9-.8-.2-1.2-2.2-2.9-3-2.9-1.2 0 .5-.7.7-1.5.4-.9-.4-1.8.1-2.1 1.1-.4.9-1.3 1.4-2.2 1-1.2-.4-1.2-.3-.3.9 1 1.1.9 1.6-.5 2.4-1 .6-1.5 1.6-1.1 2.5.4 1.1.2 1.4-.9 1-.8-.3-3 .7-4.8 2.1-1.9 1.4-4 2.6-4.6 2.6-.6 0-.8.5-.5 1 .4.6 1.1.8 1.6.5 1.3-.9 1.1.9-.3 2.4-1.1 1.1-.9 1.2 1 .6 1.9-.5 2.2-.3 2.2 1.9 0 3.3-4.6 8.6-6.9 8-1.3-.5-1.3-.4.2.6.9.6 2.1.9 2.6.5.5-.3 1.2.1 1.4.7.5 1.2 1.1-1.6.8-3.5 0-.4.4-.7.9-.7.6 0 1 .5 1 1.1 0 .6.8.8 1.8.5 1.3-.4 1.8-.1 1.8 1.4 0 1.1-.7 2-1.4 2-1.1 0-1.2.3-.3 1.4.9 1.1.8 1.5-.5 2-2.5 1-3.4.7-3.4-.9 0-.8-.5-1.5-1.1-1.5-.5 0-.7.5-.4 1 .4.6.1 1.8-.6 2.6-1 1.2-.9 1.3.3.9 1.7-.7 3.4 2.5 1.9 3.4-.6.4-.6 1.2-.1 2.1 1.4 2.2 1.2 3-.5 2.4-.8-.4-1.5-1.5-1.5-2.6 0-1.4-.5-1.8-1.6-1.4-.8.3-1.2.2-.9-.4.4-.6-1.4-.9-4.7-.9-2.9.1-4.1.4-2.7.6 2.1.3 2.7.9 2.5 2.9-.1 1.9-.5 2.4-1.9 2-1.6-.4-1.6-.2-.5 1.2 1.1 1.5 1.1 1.5-.3.5-.9-.7-2-.9-2.4-.5-.5.4-.5.1-.1-.6s0-2.4-.8-3.7c-1.2-1.9-1.3-2.5-.4-2.5s.8-.3-.2-1c-1.1-.7-.7-1 2-1.1 3.4-.1 3.4-.1-.9-1-2.4-.5-4.8-.6-5.2-.3-1.1.6-1.2-1.7-.1-3.2.7-1.1 3.6-2.5 6-3 .8-.1 1.7-.6 2-1 .4-.4-.1-.4-1-.1-2.7 1-2.1 0 1-1.8 2.6-1.5 2.6-1.6.2-.9-1.4.3-3.2 1.4-4.2 2.5-1.9 2.2-2.8 2.4-2.8.6 0-.7 1.1-2.1 2.5-3.1s2.5-2.3 2.5-2.9c0-.6-1-.1-2.3 1.1-2.9 2.7-5.3 1.5-4.3-2.2.5-1.9.3-2.6-.9-2.6-.8 0-1.4.5-1.3 1.1.2.6-.4 1.4-1.2 1.6-.9.3-1.1.1-.5-.4 1.3-1 1.3-2.9 0-4.2-1.2-1.2-1.3 3.9-.1 5.7.4.7.4 1.6.1 2.2-.3.5 0 1 .7 1 .9 0 .9.3-.2 1-2 1.3-2.8 1.2-3.3-.3-.2-.6-.2 0 0 1.5.3 1.6 0 2.8-.5 2.8-1.3 0-1.3 12.9 0 15.3.8 1.6.8 2.2-.1 2.5-1.6.5-1.3 11.3.4 13.6 1.3 1.7 1.3 2.2-.3 3.9-1.5 1.8-1.5 2-.1 1.4 1.3-.4 1.6-.1 1.2 1.6-.5 1.8-.3 2 .8.9 1.9-1.7 2.9-1.5 2.9.7 0 2.8-2.2 3.1-4.2.7-1.7-2.1-1.7-2.1-1.8.6 0 2.5.4 2.8 3.3 3 1.7 0 4.4 0 5.9-.1 1.8-.1 3 .5 3.8 1.9 1.1 2 .9 2.1-1.8 1.9-1.8-.2-3.6.3-4.7 1.5-1.1 1.1-2.7 1.6-4.2 1.3-2.4-.4-2.4-.4-2.2 7.9.1 4.6.5 8.4 1 8.4.4 0 .7 1.4.7 3-.1 3.9.9 4.8 2.6 2.4 1.2-1.6 1.3-2.2.1-4-.8-1.3-1-2.6-.4-3.5.7-1.1.9-.9.9.8 0 1.4.6 2.3 1.5 2.3.8 0 1.2-.6.9-1.3-.3-.8.4-1.3 1.6-1.4 1.2-.1 3-1.2 4.1-2.5 1.1-1.3 1.8-1.7 1.4-1.1-.3.7-.1 1.3.5 1.3s.9.4.5.9c-.3.6.4.9 1.5.8 1.1-.1 2-.5 2-.9 0-.5 1.2-.6 2.8-.3 1.5.3 2.1.2 1.2-.2-2.1-1.1-1.7-4.9.8-7.6l2.1-2.2-3.4.1c-1.9.1-5.3-.3-7.6-.9-3.2-.8-3.8-1.2-2.5-1.9 1-.6 2.4-.3 4.1.8 1.4.9 2.5 1.2 2.5.6 0-.5-.8-1.2-1.9-1.5-1.4-.3-1.7-1.1-1.4-3.1.4-1.9.2-2.6-.8-2.4-.7.2-1.3-.6-1.3-1.7s.5-1.9 1.2-1.7c.7.1 1.5-.5 1.9-1.3.5-1.3.8-1.2 2.1.6 1.2 1.7 1.2 2.3.2 2.9-.7.4-1 1.5-.6 2.5.5 1.5.7 1.5 2.2.1 1.4-1.4 3.4-1.4 3.4 0 0 .3-.5.2-1.2-.2s-.8-.3-.4.4 1.4 1.2 2.3 1.2c1 0 1.4.6 1 2-.3 1.1-.2 2 .3 2 1.2 0 1.7-2.1 1.5-5.8-.1-2.1.3-3.6 1.2-3.9.7-.3 1.3-.9 1.3-1.5 0-.5-.4-.6-1-.3-.9.6-1.5-1.6-1.1-3.9.1-.4-1-.5-2.4-.2-1.6.4-2.5.2-2.5-.5s-.3-1-.6-.6c-.6.6-3.4-1.6-3.4-2.7 0-.3 1.1-.1 2.4.4 1.3.5 2.7.6 3.1.2.3-.3 1 0 1.6.8.8 1.3 1 1.3 1.8 0 .5-.8.7-1.8.5-2.2-.3-.4.2-.8 1-.8 1 0 1.4-.9 1.3-2.8-.2-2.8-1.8-5.2-3.6-5.2-.6 0-1.1-.5-1.1-1 0-.6-.5-.9-1.2-.8-.6.2-1.3-.6-1.5-1.7-.3-1.4-.1-1.6.5-.7 1 1.5 4.5.5 3.5-1.1-.3-.6-.1-.7.5-.3.7.4 1.2 1.4 1.2 2.2 0 .8.7 1.4 1.6 1.4.8 0 1.3-.4 1-.9-.4-.5.6-1.4 2.1-2 2.7-1.1 2.7-1.1.3-.6-2.2.4-2.6 0-2.8-2-.1-1.4.2-2.5.7-2.5.5 0 1.7-2.4 2.7-5.3.9-2.8 2.1-5.8 2.7-6.6.6-.7 1.2-1.9 1.3-2.7.1-.7 1.2-2.7 2.3-4.3 1.2-1.6 2.1-3.4 2.1-3.9 0-.6.5-1.2 1.1-1.4.5-.2 1.1-1 1.2-1.9.2-.9 1.1-2.9 2.2-4.5 2.4-3.6 6.7-16.3 6.1-17.8-.3-.7-.5-.6-.5.2zM41 276c0 .5-.4 1-.9 1-.6 0-1.3-.5-1.6-1-.3-.6.1-1 .9-1 .9 0 1.6.4 1.6 1zm-7.1 5.5c-2.1 3.6-4.8 4-2.9.5.8-1.5 3.5-3.8 4.7-4 .1 0-.7 1.6-1.8 3.5zm1.5 4.3c-.6 3.1-3.4 4.6-3.4 1.9 0-1.5 3-6 3.6-5.4.2.2.1 1.8-.2 3.5zM8.5 297c.3.5.4 1 .1 1-.2 0-1.1.3-1.9.6-.8.3-1.7-.2-2-1-.7-1.8 2.7-2.3 3.8-.6zm1.5 10.5c0 .8-.4 1.6-.9 1.9-.5.3-.8-.5-.7-1.8.1-2.5 1.6-2.6 1.6-.1zm15.9 7.1c-1.2 1.4-1.4 1.4-1.9-.2-.4-1-.2-2.4.4-3 1.7-1.8 3.1 1.3 1.5 3.2zM7 316.2c1.9 3.6 2 4.2.6 5-3.6 2-4.7 4-4 7.1.5 2.6.4 2.9-.7 1.6-1.5-1.5-1.9-8.2-.6-9.5.4-.5 1.2-.2 1.7.6 1.8 2.8 2.4-2 .7-5-1.4-2.2-1.4-4-.1-4 .1 0 1.2 1.9 2.4 4.2zm6.2 2.2c-.3.5 0 .6.7.2.7-.5 1-1.5.6-2.5-.5-1.2-.4-1.3.6-.4.8.8 1.8.9 3.1.2 1-.5 1.8-.6 1.8-.2 0 .4.4.1 1-.7 1.7-2.8 1.9-.4.2 3.3-1.9 4-3.2 4.7-3.2 1.7 0-2.4-2.7-2.7-3.2-.4-.3 1.3-.6 1.3-2.7-.5-1.3-1.2-1.9-2.1-1.3-2.1.7 0 1.1-.3 1.1-.8-.3-2 .3-2.5 1-.7.5 1.1.6 2.4.3 2.9zm11.3 3.6c1.1 1.3 1.4 2 .6 2-1.3 0-4.1-2.4-4.1-3.4 0-1.2 1.8-.5 3.5 1.4zm-11.8 1.4c-1.3 1.5-2.7 1.2-2.7-.5 0-.6.5-.7 1-.4.6.3 1 .1 1-.5s.4-.8 1-.5c.6.4.5 1.1-.3 1.9zm-1.7 3.8c0 .4-.7.5-1.5.2-.8-.4-1.5-1-1.5-1.4 0-.5-.3-1.7-.6-2.7-.4-1.3 0-1.1 1.5.7 1.1 1.4 2.1 2.8 2.1 3.2zm-4.3-.6c-.3.4-.1 1.6.5 2.8 1.1 2.1 1.1 2.1-1 .2-2.1-1.9-2.1-3.6 0-3.6.6 0 .8.3.5.6zm21.7 1c.3.8.2 1.2-.4.9-.6-.3-1-1-1-1.6 0-1.4.7-1.1 1.4.7zm-2.4.4c0 .5-.2 1-.4 1-.3 0-.8-.5-1.1-1-.3-.6-.1-1 .4-1 .6 0 1.1.4 1.1 1zm-13.3 4.5c1.6 3.6.1 3.9-1.9.4-1.2-2-1.3-2.9-.5-2.9.7 0 1.7 1.1 2.4 2.5zm-1.7 3.9c0 .2-.7.7-1.6 1-.8.3-1.2.2-.9-.4.6-1 2.5-1.4 2.5-.6zm-5.8 15.8c-.7.7-1.2.8-1.2.2 0-1.4 1.2-2.6 1.9-1.9.2.3-.1 1.1-.7 1.7zm3.8 3.2c0 .3-.4.8-1 1.1-.5.3-1 .1-1-.4 0-.6.5-1.1 1-1.1.6 0 1 .2 1 .4zm9.7 1.8c-.3.8-.6.5-.6-.6-.1-1.1.2-1.7.5-1.3.3.3.4 1.2.1 1.9zm-8.3 3.4c.4 1.1.1 1.4-1.1 1.2-1-.2-1.9-1.1-2.1-2.1-.4-2.1 2.4-1.3 3.2.9zM364.2 271c.3.8 3.3 10.3 6.8 21s7.3 22.2 8.6 25.5c1.2 3.3 3.2 9.1 4.4 13 1.2 3.8 5.1 15.7 8.6 26.2 3.5 10.6 6.4 20 6.5 21 0 1.2.2 1.4.6.5.5-1.4-3.4-16.8-4.7-18.7-.4-.6-1.2-2.6-1.8-4.5-6.8-22.3-27.7-83.8-28.8-84.8-.4-.4-.5 0-.2.8zM260 274c-1.2.8-.9 1 1.2 1 1.4 0 2.8.6 3.1 1.2.3.7.4.3.4-1-.1-2.3-2.1-2.9-4.7-1.2zM340 283c0 .8.5 2.2 1 3 .9 1.3 1 1.3 1 0 0-.8-.5-2.2-1-3-.9-1.3-1-1.3-1 0zM296 285c.8.5 2 1 2.5 1 .6 0 .3-.5-.5-1s-1.9-1-2.5-1c-.5 0-.3.5.5 1zM.4 288.5c-.9 3.7 0 4 1.3.5.6-1.7.7-3 .2-3-.5 0-1.1 1.1-1.5 2.5z"/><path d="M21 287c0 .6.7 1 1.5 1s1.5-.2 1.5-.4-.7-.6-1.5-1c-.8-.3-1.5-.1-1.5.4zM293.8 288.1c-1.7 1.8-1.7 1.9.6 1.7 1.7-.2 2.2-.7 1.8-2-.2-1-.5-1.8-.6-1.7 0 0-.9.9-1.8 2zM11.7 288.4c-.4 1-.1 1.3.8.9.8-.3 1.2-.9.9-1.4-.7-1.2-1.1-1.1-1.7.5zM342.1 289.6c0 1.1.3 1.4.6.6.3-.7.2-1.6-.1-1.9-.3-.4-.6.2-.5 1.3zM18.9 290.7c-1.3 1.5-1.2 1.5.9.4 2.3-1.2 4.7-.6 3.7 1-.6.9 2.2 2.5 3 1.7.8-.7-3.5-4.8-4.9-4.8-.8 0-2 .7-2.7 1.7zM345 292.5c0 .8.4 1.5 1 1.5.5 0 .7-.7.4-1.5-.4-.8-.8-1.5-1-1.5-.2 0-.4.7-.4 1.5zM340 294c0 .8.5 2.2 1 3 .9 1.3 1 1.3 1 0 0-.8-.5-2.2-1-3-.9-1.3-1-1.3-1 0zM344.1 296.6c0 1.1.3 1.4.6.6.3-.7.2-1.6-.1-1.9-.3-.4-.6.2-.5 1.3zM21.2 299.6c-1.4 1.5-.7 1.7 2.2.5 1.5-.6 1.6-.9.5-1.3-.8-.3-2 .1-2.7.8zM299.7 300.1c.6 2.2 2.3 2.6 2.3.5 0-.8-.6-1.6-1.4-1.9-1-.4-1.2 0-.9 1.4zM345.1 299.6c-.1.7.6 2.7 1.4 4.5.8 1.9 1.4 2.7 1.4 1.9 0-1.8-2.7-7.9-2.8-6.4zM348.1 310.6c0 1.1.3 1.4.6.6.3-.7.2-1.6-.1-1.9-.3-.4-.6.2-.5 1.3zM345.1 311c0 .8.4 2.2.9 3 1.2 1.8 1.2.2 0-2.5-.6-1.3-.9-1.5-.9-.5zM59 314c-.9.6-1 1-.3 1 .6 0 1.5-.5 1.8-1 .8-1.2.4-1.2-1.5 0zM321.1 316.6c0 1.1.3 1.4.6.6.3-.7.2-1.6-.1-1.9-.3-.4-.6.2-.5 1.3zM339.5 319.7c.2 1.6.4 3.2.4 3.7.1.4.9.5 1.9.1.9-.4 2.4-.7 3.3-.7 1.4 0 1.5-.3.6-2.2-1.3-2.7-4.1-3.1-3.4-.4.3 1 .1 2.1-.4 2.4-.5.3-.9-.6-.9-2s-.4-2.7-.9-3.1c-.6-.3-.8.7-.6 2.2zM349.8 319.8c2 2.2 2.5 2.1 1.6-.2-.3-.9-1.2-1.6-2-1.6-1.1 0-1 .4.4 1.8zM345.5 327c.3.5.8 1 1.1 1 .2 0 .4-.5.4-1 0-.6-.5-1-1.1-1-.5 0-.7.4-.4 1zM351.5 327c.4.6 1.1.8 1.6.5 1.4-.9 1.1-1.5-.7-1.5-.8 0-1.2.5-.9 1zM39.4 327.8c.3.5 0 1.3-.6 1.5-.9.4-1 .6-.1.6 1.7.1 2.5-1.6 1.2-2.5-.7-.4-.9-.3-.5.4zM48.5 329.1c-1.1 1.6-.1 1.9 1.3.3.7-.8.8-1.4.3-1.4s-1.3.5-1.6 1.1zM53.1 329.6c0 1.1.3 1.4.6.6.3-.7.2-1.6-.1-1.9-.3-.4-.6.2-.5 1.3zM345.6 330.5c.4.8 1.1 1.5 1.6 1.5.6 0 .5-.6-.2-1.5-.7-.8-1.4-1.5-1.6-1.5-.2 0-.1.7.2 1.5zM54.7 332c-.3 1.3-.1 1.8.6 1.3.6-.4.8 0 .4 1-.3 1-.3 1.7.2 1.7 1.5 0 2-3.9.6-5-.9-.8-1.4-.5-1.8 1zM63.5 336c-.3.5-.1 1 .4 1 .6 0 1.1-.5 1.1-1 0-.6-.2-1-.4-1-.3 0-.8.4-1.1 1zM32.8 338.7c.7.3 1.6.2 1.9-.1.4-.3-.2-.6-1.3-.5-1.1 0-1.4.3-.6.6zM66 339.4c0 .2.7.7 1.6 1 .8.3 1.2.2.9-.4-.6-1-2.5-1.4-2.5-.6zM51.2 343.1c-1.9 3-1.1 3.2 1.1.3 1-1.3 1.4-2.4 1-2.4-.5 0-1.4.9-2.1 2.1zM46.6 344.2c.3.5 1 .6 1.5.3 1.3-.9 1.1-1.2-.6-1.2-.8 0-1.2.4-.9.9zM2 346c.8.5 2 1 2.5 1 .6 0 .3-.5-.5-1s-1.9-1-2.5-1c-.5 0-.3.5.5 1zM337.9 348.9c.8.5 1.1 1.6.6 3-.7 2.4.7 2.8 2.5.6 1.1-1.3 1-1.8-.6-3-1-.8-2.3-1.4-2.9-1.5-.5 0-.4.4.4.9zM22 350.4c0 .9.5 1.6 1 1.6.6 0 1-.4 1-.9 0-.6-.4-1.3-1-1.6-.5-.3-1 .1-1 .9zM63.6 351.6c-.5 1.4-.4 1.5.9.4 1.7-1.4 1.9-2 .6-2-.5 0-1.2.7-1.5 1.6zM343.7 355.4c-.4 1 .1 1.2 1.4.9 2.3-.6 2.4-.9.5-1.6-.8-.3-1.7 0-1.9.7zM59.1 356.6c0 1.1.3 1.4.6.6.3-.7.2-1.6-.1-1.9-.3-.4-.6.2-.5 1.3zM340.4 356.1c-.3.6-.1 1.6.5 2.2.8.8 1.1.5 1.1-1.1 0-2.4-.5-2.8-1.6-1.1zM29 358c-.9.6-1 1-.3 1 .6 0 1.5-.5 1.8-1 .8-1.2.4-1.2-1.5 0zM346 361.4c0 .8.5 1.8 1 2.1.6.4.8 1.1.5 1.6-.4.5-.2.9.4.9 1.2 0 2.4-3.7 1.6-5-.9-1.5-3.5-1.2-3.5.4zM358 362.4c0 .9.5 1.6 1 1.6.6 0 1-.4 1-.9 0-.6-.4-1.3-1-1.6-.5-.3-1 .1-1 .9zM13.8 365.7c.7.3 1.6.2 1.9-.1.4-.3-.2-.6-1.3-.5-1.1 0-1.4.3-.6.6zM9 368c0 .5.5 1 1.1 1 .5 0 .7-.5.4-1-.3-.6-.8-1-1.1-1-.2 0-.4.4-.4 1zM13.5 369.2c.4 1.3 1.1 2.7 1.6 3.3.5.5.4-.5-.2-2.3-1.2-3.6-2.4-4.4-1.4-1zM17 368.5c0 .8.2 1.5.4 1.5s.6-.7 1-1.5c.3-.8.1-1.5-.4-1.5-.6 0-1 .7-1 1.5zM12.1 371.6c0 1.1.3 1.4.6.6.3-.7.2-1.6-.1-1.9-.3-.4-.6.2-.5 1.3zM370.1 373.2c-.1 1.8.4 2.8 1.4 2.8.7 0 1.9.8 2.4 1.7.6 1 1.1 1.3 1.1.6 0-.6-.8-1.8-1.9-2.5-1-.7-2.1-2.2-2.4-3.3-.3-1.5-.5-1.4-.6.7zM16.6 373.5c-.3.8-.1 1.5.4 1.5.6 0 1-.7 1-1.5s-.2-1.5-.4-1.5-.6.7-1 1.5zM341 372.4c0 .2.7.7 1.6 1 .8.3 1.2.2.9-.4-.6-1-2.5-1.4-2.5-.6zM18.7 378.1c.4 1.5.8 1.7 1.9.8 1.8-1.5 1.8-1.6-.5-2.2-1.4-.3-1.7 0-1.4 1.4zM21 382c0 .5.5 1 1 1 .6 0 1-.5 1-1 0-.6-.4-1-1-1-.5 0-1 .4-1 1zM372 382.3c0 .8.7 1.4 1.5 1.4s1.5-.6 1.5-1.4c0-.7-.7-1.3-1.5-1.3s-1.5.6-1.5 1.3zM376 382.5c0 .2 1 1 2.3 1.6 2 1.1 2.1 1.1.8-.4-1.3-1.6-3.1-2.3-3.1-1.2zM342.8 384.6c-.9.8.3 4.4 1.4 4.4.5 0 .7.4.4.9-.3.5 0 1.1.8 1.4 1.1.4 1.1-.1.1-2.9-1.3-3.8-1.9-4.7-2.7-3.8zM390 389.4c0 .4.5 1.6 1.1 2.7.7 1.4.7 2.4 0 3.3-1.2 1.4-.5 2.6 1.6 2.6 1.9 0 1.3-5.1-.9-7.4-1-1.1-1.8-1.6-1.8-1.2zM355.5 394c-.3.5-.1 1 .4 1 .6 0 1.1-.5 1.1-1 0-.6-.2-1-.4-1-.3 0-.8.4-1.1 1zM280.7 397.4c-.4 1.1-.5 2.1-.3 2.4.8.8 3.6-.6 3.6-1.8 0-.6-.4-.9-.9-.6-.5.4-1.1.1-1.3-.6-.3-.7-.7-.5-1.1.6zM270 399.1c0 .5.5.7 1 .4.6-.3 1-.8 1-1.1 0-.2-.4-.4-1-.4-.5 0-1 .5-1 1.1zM274 399c0 .5.5 1 1.1 1 .5 0 .7-.5.4-1-.3-.6-.8-1-1.1-1-.2 0-.4.4-.4 1zM312 399c-1.3.8-1.3 1 .2 1 .9 0 2-.5 2.3-1 .8-1.3-.5-1.3-2.5 0zM384 399.2c0 .4.7.8 1.5.8s1.5-.4 1.5-.8c0-.5-.7-.9-1.5-.9s-1.5.4-1.5.9z"/></svg>