<?xml version="1.0" standalone="no"?>
<!DOCTYPE svg PUBLIC "-//W3C//DTD SVG 20010904//EN"
 "http://www.w3.org/TR/2001/REC-SVG-20010904/DTD/svg10.dtd">
<svg version="1.0" xmlns="http://www.w3.org/2000/svg"
 width="400.000000pt" height="400.000000pt" viewBox="0 0 400.000000 400.000000"
 preserveAspectRatio="xMidYMid meet">
<metadata>
Created by potrace 1.14, written by Peter Selinger 2001-2017
</metadata>
<g transform="translate(0.000000,400.000000) scale(0.100000,-0.100000)"
fill="#000000" stroke="none">
<path d="M10 3989 c0 -5 5 -7 10 -4 6 3 10 8 10 11 0 2 -4 4 -10 4 -5 0 -10
-5 -10 -11z"/>
<path d="M102 3974 c-1 -17 -4 -47 -7 -65 l-5 -34 11 34 c5 18 8 47 6 65 l-4
31 -1 -31z"/>
<path d="M124 3965 c0 -19 2 -35 6 -35 3 0 6 -20 8 -45 1 -25 -2 -45 -8 -45
-5 0 -11 10 -11 23 -1 17 -2 18 -6 4 -6 -25 17 -53 29 -35 6 8 8 -5 7 -37 -4
-112 1 -305 9 -305 17 0 -6 501 -23 507 -7 2 -11 -12 -11 -32z"/>
<path d="M220 3985 c0 -8 -4 -15 -10 -15 -6 0 -10 -35 -10 -86 0 -47 -4 -93
-9 -103 -9 -17 2 -439 14 -531 6 -44 5 -46 -27 -57 -41 -14 -111 -27 -84 -15
20 8 20 9 0 14 -12 3 -21 0 -22 -6 0 -6 -2 -20 -4 -31 -5 -31 73 -27 108 6 18
16 28 20 31 12 9 -25 23 -12 23 21 0 19 4 38 10 41 6 4 10 -37 10 -117 l1
-123 21 45 c11 25 24 46 29 48 4 2 6 9 3 17 -3 7 -1 16 4 19 6 3 8 16 4 28 -3
15 -2 19 7 14 9 -6 11 14 7 86 -2 51 -5 160 -5 241 -1 96 -5 146 -11 142 -6
-4 -10 9 -9 32 1 38 1 38 9 8 5 -21 8 -4 9 58 1 57 -3 86 -9 82 -6 -4 -10 6
-10 22 0 23 2 25 11 13 9 -12 9 -11 3 5 -6 17 -8 39 -13 128 -1 23 -81 25 -81
2z m16 -472 c5 -175 4 -262 -3 -266 -16 -10 -35 496 -19 521 4 7 10 12 12 9 2
-2 7 -121 10 -264z m71 205 c-3 -8 -6 -5 -6 6 -1 11 2 17 5 13 3 -3 4 -12 1
-19z"/>
<path d="M550 3930 c-1 -41 -3 -86 -5 -100 -9 -74 -16 -424 -9 -417 5 5 9 39
10 75 0 37 4 76 8 87 6 16 6 17 -3 5 -7 -9 -11 -10 -11 -3 0 6 5 15 11 18 5 4
9 32 8 63 -2 32 1 100 5 152 4 52 3 118 -2 145 l-10 50 -2 -75z"/>
<path d="M1426 3958 c-13 -85 -53 -232 -65 -236 -6 -2 -18 2 -26 8 -12 10 -15
10 -16 -1 -1 -8 -5 -3 -9 11 -7 23 -8 23 -9 3 -1 -20 -3 -21 -27 -8 -17 9 -35
10 -55 5 -16 -5 -29 -6 -29 -2 0 4 -5 0 -10 -8 -6 -10 -10 -11 -10 -2 0 15
-56 17 -65 2 -4 -6 -11 -8 -16 -5 -5 4 -9 2 -9 -2 0 -8 -23 -13 -67 -16 -7 0
-13 -5 -13 -11 0 -6 -5 -4 -10 4 -8 13 -11 11 -16 -7 -4 -13 -11 -23 -16 -23
-5 0 -6 6 -2 13 5 7 1 6 -10 -3 -10 -8 -30 -16 -45 -18 -14 -2 -28 -7 -29 -13
-2 -5 -8 -7 -12 -4 -5 3 -16 -5 -24 -17 -9 -12 -16 -19 -16 -15 0 4 -16 -8
-35 -27 -19 -20 -35 -30 -36 -23 0 7 -5 2 -11 -10 -6 -13 -17 -23 -25 -23 -7
0 -13 -9 -13 -20 0 -11 -7 -20 -15 -20 -8 0 -15 -9 -15 -19 0 -11 -9 -23 -20
-26 -14 -4 -20 -15 -20 -35 0 -27 -2 -29 -30 -23 -27 5 -30 3 -30 -22 0 -20
-4 -26 -15 -21 -10 3 -14 -1 -13 -12 3 -35 -2 -52 -16 -52 -8 0 -16 6 -18 12
-3 9 -9 8 -22 -5 -17 -16 -16 -17 3 -17 25 0 27 -13 6 -30 -12 -10 -15 -10
-15 0 0 8 -3 11 -6 8 -3 -4 0 -17 7 -30 11 -21 11 -22 -4 -9 -15 12 -17 11
-17 -9 0 -13 -5 -20 -12 -17 -7 2 -12 11 -10 21 2 9 -1 16 -6 16 -8 0 -12 -15
-13 -54 0 -18 0 -18 -15 0 -14 18 -15 18 -9 -3 4 -14 2 -23 -4 -23 -6 0 -11
-6 -11 -14 0 -8 -7 -16 -15 -20 -9 -3 -15 -18 -15 -35 0 -16 -4 -33 -10 -36
-6 -3 -10 4 -10 17 0 22 -1 21 -18 -7 -17 -26 -17 -31 -4 -36 13 -5 13 -7 -2
-12 -11 -5 -16 -13 -12 -23 3 -8 2 -23 -4 -33 -13 -25 -22 -111 -22 -209 0
-77 8 -114 19 -84 3 6 9 10 13 7 5 -3 7 -12 4 -20 -4 -8 -10 -12 -15 -9 -5 3
-9 -2 -9 -10 0 -10 6 -13 15 -10 8 4 15 12 15 20 0 8 5 14 11 14 6 0 8 -7 5
-16 -4 -9 -2 -22 3 -28 7 -8 4 -17 -9 -29 -19 -16 -20 -16 -20 3 0 11 -5 20
-11 20 -11 0 -2 -43 11 -48 4 -1 5 -13 3 -26 -4 -17 0 -25 14 -29 16 -4 16 -5
1 -6 -30 -2 -20 -26 16 -37 34 -10 34 -10 40 25 6 39 -9 65 -24 41 -14 -22
-23 -5 -10 19 6 12 17 21 26 21 8 0 17 7 20 15 4 8 10 12 15 9 5 -3 9 3 9 13
0 10 6 27 13 38 18 27 38 112 53 225 7 52 23 136 36 185 14 50 23 96 20 103
-2 6 1 12 6 12 6 0 13 9 17 19 3 11 22 37 41 58 20 21 50 58 67 83 54 79 90
111 198 175 9 6 23 16 30 22 8 6 39 16 69 22 30 6 109 22 175 36 146 31 168
31 212 3 20 -11 56 -23 81 -25 33 -3 51 -11 71 -32 14 -15 26 -34 26 -41 0 -7
6 -15 13 -17 6 -3 12 0 12 6 0 6 5 11 10 11 20 0 9 -21 -17 -31 -21 -8 -24
-12 -13 -22 10 -9 13 -9 17 1 3 6 11 12 19 12 8 0 11 -6 8 -15 -4 -9 0 -15 10
-15 9 0 16 -4 16 -10 0 -6 -9 -6 -26 0 -33 13 -34 13 -34 -5 0 -10 10 -15 30
-15 18 0 30 -5 30 -13 0 -7 14 -17 32 -22 24 -8 32 -16 34 -38 2 -19 -1 -25
-9 -20 -7 4 -6 -1 2 -11 10 -12 16 -14 22 -5 9 15 16 -17 11 -48 -5 -27 -27
-30 -41 -5 -6 9 -11 11 -11 5 0 -7 -11 -13 -24 -13 -13 0 -27 -7 -30 -16 -4
-10 -12 -14 -22 -10 -10 4 -18 -1 -21 -13 -4 -17 -36 -31 -70 -33 -5 0 -20 -9
-35 -20 -16 -11 -28 -16 -28 -12 0 3 -6 1 -14 -5 -11 -9 -25 -9 -62 0 -36 9
-49 10 -52 1 -5 -17 -39 -15 -46 3 -3 8 -3 22 0 30 4 8 1 15 -5 15 -6 0 -11
12 -11 26 0 14 -4 22 -10 19 -5 -3 -71 -7 -147 -9 -119 -3 -138 -6 -150 -22
-7 -10 -11 -25 -8 -32 3 -9 0 -12 -9 -9 -10 4 -13 1 -9 -9 4 -11 14 -13 34 -9
19 4 29 3 29 -5 0 -9 4 -9 13 -2 9 7 21 3 43 -18 l31 -27 -71 -7 c-39 -4 -73
-11 -74 -16 -2 -6 -8 -8 -12 -5 -17 11 -159 -81 -160 -102 0 -7 -4 -13 -8 -13
-13 0 -32 -48 -32 -80 0 -31 9 -36 38 -21 9 5 40 19 68 32 29 13 51 29 50 37
-2 28 66 70 124 76 53 5 53 3 2 -15 -20 -8 -21 -11 -10 -29 9 -14 24 -20 50
-20 33 0 38 -3 38 -24 0 -17 -8 -27 -27 -34 -27 -10 -27 -10 12 -11 38 -1 105
29 105 47 0 4 16 6 35 4 40 -5 43 3 14 34 l-21 23 22 -6 c14 -4 21 -2 17 4 -4
5 4 15 16 20 74 35 122 54 163 63 47 11 47 11 86 -28 22 -22 39 -50 40 -65 1
-15 6 -27 10 -27 3 0 8 -15 10 -32 2 -22 10 -36 24 -42 25 -11 67 -73 59 -86
-4 -6 -15 -10 -27 -10 -24 0 -127 -57 -134 -74 -5 -13 -48 -15 -60 -3 -11 11
-94 8 -130 -5 -33 -12 -54 -43 -54 -79 0 -13 -4 -18 -11 -13 -9 5 -10 -4 -4
-32 4 -21 9 -43 12 -47 8 -13 133 10 133 24 0 13 68 11 72 -1 2 -6 12 -12 23
-12 16 -2 20 -9 19 -35 -2 -29 2 -34 30 -41 36 -10 43 -8 28 11 -7 8 -9 17 -5
20 3 4 -2 7 -13 8 -15 1 -13 3 6 9 44 14 70 11 70 -7 0 -15 2 -16 10 -3 5 8
12 11 17 7 4 -4 2 -17 -5 -27 -11 -18 -9 -20 18 -20 17 0 47 -9 67 -20 21 -11
43 -20 49 -20 6 0 19 -9 29 -20 14 -16 15 -20 4 -20 -8 0 -23 6 -34 14 -35 23
-71 27 -86 9 -12 -14 -11 -15 11 -9 19 6 21 5 10 -3 -8 -6 -24 -8 -36 -5 -12
3 -26 -1 -33 -10 -8 -9 -19 -16 -26 -16 -7 0 -18 -6 -24 -14 -8 -9 -26 -13
-49 -11 -20 1 -40 -2 -43 -7 -8 -12 -61 -20 -134 -19 -51 0 -64 -3 -87 -26
-19 -19 -40 -27 -68 -29 -41 -2 -104 -39 -95 -55 4 -5 -1 -9 -9 -9 -15 0 -21
-18 -16 -49 1 -8 -6 -21 -16 -28 -10 -7 -13 -13 -7 -13 7 0 18 -7 27 -15 15
-15 46 -11 46 6 0 6 8 19 19 30 13 15 25 18 45 13 19 -4 26 -2 26 8 0 26 111
57 260 74 35 4 42 2 30 -6 -11 -8 1 -9 50 -4 77 8 152 6 160 -4 3 -4 28 -7 55
-7 28 0 55 -3 62 -8 7 -5 21 -6 31 -3 12 4 25 0 33 -10 12 -15 11 -16 -11 -9
-22 7 -23 6 -11 -9 12 -14 10 -16 -13 -16 -15 0 -29 7 -32 15 -4 8 -10 12 -15
9 -5 -3 -9 0 -9 5 0 6 -5 11 -10 11 -7 0 -9 -19 -7 -50 3 -29 1 -50 -5 -50 -6
0 -24 -6 -41 -14 -36 -16 -216 -30 -382 -31 -99 0 -110 -2 -113 -19 -2 -11 0
-16 6 -12 6 3 13 2 17 -4 3 -5 2 -10 -3 -10 -5 0 -6 -20 -2 -45 7 -46 -2 -67
-26 -58 -16 6 -19 -13 -4 -22 6 -4 8 -14 6 -23 -4 -12 5 -22 32 -34 37 -17 58
-18 97 -5 52 17 238 28 250 15 1 -1 5 -19 8 -39 2 -20 7 -41 9 -45 3 -5 -3
-18 -13 -28 -18 -18 -19 -18 -19 -2 0 15 -3 16 -15 6 -8 -7 -15 -20 -15 -29 0
-13 -2 -13 -9 -3 -6 11 -18 5 -49 -25 -30 -29 -46 -37 -67 -35 -15 2 -32 -1
-38 -7 -6 -6 -19 -11 -30 -11 -10 0 -15 -4 -12 -10 4 -6 -6 -7 -25 -4 -19 4
-30 2 -30 -5 0 -15 -37 -14 -43 2 -4 9 -8 9 -14 1 -8 -11 -33 -18 -60 -15 -7
0 -13 8 -13 16 0 13 -3 13 -20 3 -15 -10 -22 -10 -32 0 -9 9 -7 12 10 12 12 0
22 5 22 11 0 7 -12 9 -35 5 -29 -6 -35 -4 -35 11 0 15 -2 16 -10 3 -8 -13 -11
-13 -26 1 -15 15 -18 14 -45 -12 -16 -16 -35 -29 -42 -28 -9 0 -9 2 1 6 6 2
12 13 12 24 0 17 -3 18 -20 9 -16 -9 -22 -8 -26 5 -3 8 -16 15 -28 15 -11 0
-30 7 -40 15 -14 11 -22 12 -27 4 -10 -16 -59 -2 -59 17 0 8 -5 12 -11 9 -6
-4 -8 -12 -6 -19 3 -7 -9 -10 -39 -7 -40 3 -44 1 -45 -20 -1 -24 -1 -24 -8 1
-6 22 -8 23 -14 6 -7 -17 10 -83 23 -96 9 -8 60 -134 60 -147 0 -7 5 -13 11
-13 7 0 9 -10 5 -25 -4 -15 -2 -25 5 -25 6 0 8 -11 4 -29 -5 -22 -2 -30 12
-35 17 -7 17 -8 1 -17 -10 -6 -18 -19 -18 -29 0 -31 -38 -63 -66 -56 -14 4
-24 2 -24 -5 0 -6 -7 -4 -15 5 -8 8 -15 19 -15 25 0 6 -4 19 -10 29 -5 9 -14
51 -19 92 -8 67 -9 60 -8 -76 1 -124 4 -151 15 -146 9 3 13 -2 11 -14 -1 -10
4 -32 11 -49 7 -16 14 -43 16 -59 2 -16 11 -40 19 -53 9 -13 17 -43 18 -68 2
-36 6 -45 21 -45 15 0 16 -3 6 -15 -7 -8 -17 -12 -24 -8 -14 9 -52 15 -44 7 3
-3 14 -7 24 -8 10 -2 18 -12 19 -24 1 -12 5 -25 10 -29 4 -5 4 2 1 14 -7 20
-5 22 15 14 13 -4 25 -14 27 -22 3 -11 1 -11 -7 1 -13 19 -14 9 -1 -24 7 -19
6 -26 -3 -26 -6 0 -3 -7 7 -15 25 -19 31 -13 16 15 -16 29 -6 36 24 17 20 -14
54 -77 40 -77 -3 0 -10 14 -15 30 -14 37 -30 40 -20 3 7 -28 -3 -47 -42 -82
-10 -9 -28 -34 -39 -55 -11 -21 -31 -51 -44 -65 -13 -14 -24 -32 -24 -39 0 -7
-10 -16 -23 -21 -13 -5 -34 -25 -48 -45 -13 -20 -29 -36 -35 -36 -6 0 -32 -11
-58 -25 -26 -14 -56 -25 -67 -25 -11 0 -34 -16 -53 -35 -18 -19 -36 -32 -39
-29 -3 3 -27 8 -54 11 -26 3 -52 10 -56 16 -6 8 -7 5 -3 -5 4 -15 -1 -18 -32
-19 -20 -1 -40 -1 -44 0 -5 0 -8 -4 -8 -9 0 -6 -7 -10 -15 -10 -23 0 -18 13
15 42 19 17 28 32 24 42 -7 19 7 21 26 4 12 -11 12 -10 2 3 -6 9 -8 20 -4 24
4 5 1 5 -5 1 -26 -15 -52 -14 -57 1 -4 10 -14 13 -30 9 -20 -5 -25 -2 -29 16
-3 13 -4 4 -4 -19 0 -23 3 -40 5 -38 6 6 31 -27 32 -40 0 -5 -5 -3 -10 5 -8
12 -10 10 -10 -8 0 -13 -4 -20 -10 -17 -6 3 -10 1 -10 -4 0 -6 9 -11 19 -11
13 0 21 -9 26 -30 8 -37 -1 -53 -26 -45 -16 5 -19 1 -19 -29 l0 -35 153 1
c101 0 154 4 159 12 6 8 8 8 8 0 0 -8 56 -12 180 -13 157 -2 180 0 180 13 0 9
7 16 15 16 8 0 15 -7 15 -15 0 -13 10 -16 49 -14 28 2 48 6 45 11 -3 4 0 8 5
8 6 0 11 -4 11 -10 0 -13 598 -12 622 1 12 6 18 6 18 -1 0 -6 33 -10 85 -10
53 0 85 4 85 11 0 5 5 7 12 3 7 -5 35 -8 63 -9 48 0 51 1 47 22 -3 18 -1 22
11 17 9 -3 13 -12 11 -19 -7 -18 15 -30 29 -16 8 8 7 11 -4 11 -21 0 -20 84 2
88 10 2 16 -4 16 -15 -1 -70 4 -97 14 -83 7 11 12 12 15 3 3 -7 12 -9 20 -6
12 4 11 8 -6 20 -11 8 -17 19 -14 25 4 7 10 5 16 -5 5 -9 15 -14 23 -11 9 4
15 0 15 -7 0 -11 2 -11 10 1 8 12 13 13 30 2 11 -7 20 -8 20 -4 0 5 -11 14
-24 20 -19 8 -26 8 -30 -1 -2 -7 -5 -2 -5 11 -1 16 3 21 12 15 19 -12 45 -14
52 -3 4 6 3 9 -2 8 -8 -3 -13 5 -13 23 0 6 7 3 16 -5 8 -9 12 -21 9 -26 -4 -6
-1 -17 5 -25 8 -10 9 -15 2 -15 -6 0 -9 -6 -6 -13 6 -16 34 -18 51 -5 7 5 14
5 17 -1 4 -5 33 -10 66 -10 33 0 58 5 55 9 -3 5 -12 7 -19 4 -7 -3 -16 2 -20
12 -5 13 -2 15 14 11 18 -5 19 -3 5 24 -18 33 -18 39 -4 39 5 0 7 -5 4 -11 -4
-6 3 -13 14 -16 15 -4 21 -12 19 -26 -2 -11 3 -22 10 -24 6 -3 12 0 12 6 0 6
10 11 23 11 18 0 19 2 7 10 -12 8 -9 10 13 10 24 0 32 -9 28 -32 0 -5 4 -8 9
-8 6 0 10 9 10 20 0 11 -4 20 -10 20 -5 0 -10 7 -10 15 0 23 24 18 36 -7 7
-17 6 -29 -3 -44 -13 -21 -12 -21 37 -21 45 1 49 3 44 20 -4 13 -2 17 5 13 6
-4 11 -15 12 -24 0 -14 2 -13 9 3 7 16 9 16 9 4 1 -14 12 -17 56 -18 31 0 55
4 55 10 0 6 -10 9 -22 7 -15 -2 -23 2 -23 12 -1 21 17 31 32 18 10 -8 13 -6
13 7 0 20 31 17 38 -4 3 -8 0 -11 -6 -7 -5 3 -13 -1 -16 -10 -4 -12 -2 -15 9
-10 9 3 15 0 15 -8 0 -8 17 -13 51 -15 44 -2 54 1 68 21 9 13 16 26 16 30 0
18 15 17 25 -1 12 -23 36 -28 43 -8 4 9 6 9 6 0 1 -7 5 -13 11 -13 5 0 7 6 4
14 -3 8 3 19 13 24 14 7 23 4 40 -13 12 -13 19 -26 16 -29 -4 -3 -1 -6 5 -6 7
0 12 9 12 21 0 11 5 17 10 14 6 -3 10 -17 10 -31 0 -22 4 -24 34 -22 29 2 35
7 40 30 3 15 10 28 16 28 13 0 13 -17 0 -25 -6 -3 -10 -13 -10 -20 0 -11 14
-14 58 -13 66 2 109 29 65 41 -16 4 -16 5 -1 6 9 0 20 -3 23 -9 3 -5 11 -10
16 -10 6 0 7 6 3 12 -20 31 -11 46 23 43 27 -2 32 -1 23 10 -9 11 -7 14 9 12
12 -1 20 -6 17 -12 -2 -7 2 -12 9 -12 9 0 11 7 5 21 -4 12 -14 21 -22 20 -10
-1 -13 7 -10 27 3 17 0 29 -7 29 -6 0 -11 6 -11 13 0 8 7 14 15 14 9 0 14 -6
11 -13 -2 -6 5 -14 16 -17 12 -4 17 -10 13 -17 -6 -9 -10 -9 -16 1 -7 11 -9
11 -9 -2 0 -9 7 -22 15 -29 8 -7 15 -9 15 -6 0 4 7 0 16 -9 20 -20 32 -11 14
10 -11 13 -10 14 4 9 20 -8 20 -23 1 -48 -13 -17 -15 -17 -15 -4 0 9 -5 20
-12 24 -8 5 -9 2 -5 -10 9 -24 -14 -49 -28 -29 -8 11 -13 11 -33 -2 -23 -17
-29 -49 -11 -61 6 -3 16 -1 22 5 12 12 31 15 24 3 -3 -4 24 -8 59 -10 55 -2
63 0 57 14 -3 9 0 20 8 26 10 7 8 8 -9 5 -15 -4 -20 -1 -15 6 4 7 9 21 10 31
5 32 13 32 13 0 0 -23 2 -26 11 -14 8 12 10 8 7 -17 -3 -18 -1 -30 4 -27 4 3
8 14 8 26 0 17 5 20 28 16 25 -4 28 -2 24 23 -3 18 -9 26 -18 22 -17 -6 -31
44 -15 60 8 8 11 8 11 -1 0 -7 5 -12 11 -12 27 0 -1 25 -30 26 -18 1 -30 -1
-27 -4 3 -3 0 -12 -7 -20 -10 -13 -9 -14 2 -8 9 6 12 4 9 -5 -9 -26 -30 -14
-42 23 l-13 36 35 -5 c31 -5 34 -4 29 12 -4 10 -2 24 4 31 6 7 7 19 3 26 -6
10 -4 10 9 0 9 -8 19 -22 22 -33 4 -11 11 -17 16 -13 6 4 1 16 -12 31 -19 19
-21 26 -10 32 8 5 10 14 6 22 -6 11 -5 11 5 2 9 -9 17 -9 31 0 24 15 45 -4 34
-30 -13 -29 -12 -51 0 -47 7 3 19 -6 29 -20 27 -42 18 -88 -12 -63 -13 10 -14
9 -7 -2 6 -11 4 -13 -7 -9 -10 4 -14 0 -12 -15 1 -12 3 -26 3 -32 1 -5 6 -3
11 5 5 8 10 10 10 4 0 -5 -9 -20 -20 -31 -16 -17 -16 -22 -5 -27 8 -3 13 -11
11 -18 -1 -7 -1 -10 1 -5 8 13 46 7 60 -10 8 -10 12 -12 8 -6 -3 7 0 13 7 14
7 0 3 5 -9 11 -27 13 -29 23 -8 32 21 8 19 23 -4 29 -10 2 -24 14 -30 26 -10
18 -9 20 8 13 11 -4 31 -17 44 -29 14 -12 28 -19 31 -16 3 3 4 -4 1 -16 -2
-11 0 -21 6 -21 5 0 9 4 9 10 0 5 7 7 15 4 8 -4 15 -10 15 -16 0 -5 -4 -6 -10
-3 -5 3 -10 1 -10 -6 0 -7 -3 -10 -6 -6 -6 5 -34 -16 -34 -26 0 -2 21 -4 47
-5 42 0 45 1 26 11 -19 11 -20 14 -8 31 14 19 45 16 45 -4 0 -6 -6 -8 -12 -4
-9 6 -9 3 0 -9 8 -9 17 -16 20 -15 4 1 18 -2 31 -6 14 -5 27 -4 34 3 8 8 2 13
-21 17 -18 4 -35 11 -38 16 -8 13 16 29 30 21 5 -4 7 1 3 10 -8 21 6 22 23 2
14 -17 35 -21 25 -5 -3 5 -2 10 4 10 6 0 14 -13 18 -30 6 -23 11 -27 23 -20 8
5 10 10 4 10 -7 0 -9 11 -6 26 4 22 6 24 14 10 5 -9 16 -16 23 -16 8 0 15 -4
15 -10 0 -5 -7 -10 -16 -10 -8 0 -13 -4 -9 -10 9 -15 35 1 35 22 0 18 2 19 17
7 14 -12 13 -9 -2 16 -24 39 -30 44 -22 23 8 -22 8 -22 -37 -3 -20 8 -36 20
-36 25 0 12 2 12 34 0 14 -5 26 -6 26 -1 0 14 -52 20 -77 8 -27 -12 -45 -1
-23 14 12 8 10 9 -6 4 -28 -7 -54 3 -48 20 3 7 0 16 -7 21 -8 5 -10 3 -4 -6
10 -17 -33 -3 -57 18 -28 24 -21 35 17 30 34 -4 46 4 24 18 -8 4 -7 9 2 15 11
7 12 12 2 29 -17 27 -16 35 2 20 11 -9 15 -9 15 -1 0 6 -8 15 -17 18 -10 4
-24 13 -31 20 -7 7 -19 13 -25 13 -8 0 -7 -4 1 -12 7 -7 12 -19 12 -27 0 -10
-7 -8 -27 10 -20 18 -25 20 -20 6 6 -15 4 -16 -13 -7 -11 6 -20 17 -20 25 0 9
-6 12 -16 8 -13 -5 -13 -7 -2 -14 14 -9 10 -11 -37 -15 -39 -3 -155 17 -155
28 0 4 -7 8 -16 8 -12 0 -14 3 -6 13 6 6 11 17 12 22 0 6 12 9 26 8 21 -2 23
1 14 17 -5 10 -10 29 -10 42 0 37 -24 93 -39 93 -8 0 -16 5 -18 12 -3 7 4 10
19 7 13 -2 17 -2 11 2 -7 3 -13 17 -13 30 0 24 -20 35 -20 12 -1 -19 -21 19
-26 47 -3 18 0 25 11 25 10 0 15 -10 15 -27 l0 -27 20 22 c24 25 25 32 5 32
-19 0 -39 36 -24 45 6 4 13 4 16 1 4 -3 1 -6 -6 -6 -9 0 -9 -3 1 -13 7 -8 20
-12 30 -9 12 3 18 -1 18 -11 0 -9 16 -24 35 -33 42 -20 52 -33 34 -45 -9 -5
-19 1 -32 19 -17 25 -18 25 -14 5 6 -28 -13 -31 -20 -3 -3 11 -10 20 -15 20
-6 0 -8 -9 -5 -20 3 -11 1 -20 -4 -20 -5 0 -9 -7 -9 -15 0 -8 5 -15 11 -15 5
0 7 4 4 10 -3 6 1 7 9 4 19 -7 21 -20 3 -28 -6 -3 5 -3 26 0 38 6 42 3 38 -38
-1 -10 8 -23 22 -29 30 -14 48 -49 36 -71 -6 -12 -3 -17 12 -21 15 -4 20 -12
17 -24 -4 -13 1 -19 13 -20 11 -1 19 3 19 9 0 7 15 9 40 5 22 -3 42 -1 46 4 3
5 -3 6 -13 2 -15 -5 -16 -4 -5 8 10 11 16 11 32 1 22 -13 24 -10 22 36 -1 23
14 30 21 9 2 -6 3 -4 2 5 -2 10 1 18 5 18 4 0 6 9 3 20 -6 22 4 25 27 10 10
-6 11 -10 3 -10 -7 0 -13 -9 -13 -19 0 -11 6 -18 16 -17 11 1 17 -8 20 -27 2
-23 -1 -27 -13 -23 -13 5 -15 -1 -11 -39 3 -25 2 -45 -2 -45 -11 0 -21 30 -14
41 7 12 -7 11 -26 -1 -12 -8 -12 -10 -1 -10 8 0 11 -3 7 -7 -3 -4 7 -21 24
-38 24 -25 31 -42 33 -78 2 -37 6 -47 20 -47 9 0 17 5 17 10 0 19 17 10 28
-15 6 -14 16 -25 22 -25 6 0 9 4 6 9 -3 5 3 11 13 14 14 3 27 -6 45 -32 16
-22 26 -30 26 -19 0 9 -7 23 -15 32 -8 8 -15 17 -15 20 0 9 34 -6 46 -21 15
-18 7 -135 -11 -148 -9 -8 -2 -11 26 -11 l39 -1 0 61 c-1 34 -9 85 -20 116
-11 30 -19 64 -20 75 0 12 -4 25 -9 30 -5 6 -18 42 -29 80 -12 39 -41 130 -66
203 -25 74 -46 140 -46 148 0 8 -8 33 -19 57 -10 23 -26 69 -35 102 -9 33 -21
69 -26 80 -14 31 -83 241 -150 455 -34 107 -67 211 -75 230 -8 19 -17 46 -21
60 -3 14 -12 39 -19 55 -12 27 -50 141 -184 555 -22 69 -47 143 -55 165 -8 22
-15 49 -15 60 0 14 4 11 11 -10 5 -16 13 -39 18 -50 5 -11 43 -123 85 -250 42
-126 81 -240 87 -252 18 -36 20 -20 4 23 -8 22 -44 134 -81 249 -36 116 -75
236 -87 267 -19 55 -19 58 -2 87 10 17 22 31 26 31 4 0 8 5 8 12 0 6 -13 -1
-30 -17 -27 -26 -30 -27 -36 -9 -3 10 -11 35 -19 54 -38 106 -39 110 -13 138
13 15 37 44 54 66 16 21 48 64 72 94 46 61 50 72 26 72 -23 0 -55 -42 -43 -56
6 -8 4 -14 -6 -18 -8 -3 -15 0 -15 7 0 7 -8 -4 -17 -23 -10 -19 -21 -38 -26
-41 -5 -4 -6 -12 -3 -18 4 -7 -1 -11 -13 -11 -10 0 -22 6 -24 13 -3 6 -4 -3
-3 -20 2 -18 0 -30 -5 -28 -11 8 -39 -36 -39 -61 0 -12 -5 -24 -12 -26 -11 -4
-3 -52 16 -99 4 -10 1 -23 -8 -32 -9 -9 -16 -18 -16 -22 0 -3 -31 -44 -70 -90
-38 -45 -83 -104 -100 -129 -18 -27 -36 -43 -42 -39 -8 4 -9 0 -5 -11 5 -14 3
-17 -8 -13 -8 4 -17 1 -21 -5 -4 -7 -3 -8 4 -4 21 13 13 -10 -12 -33 -15 -14
-26 -19 -31 -12 -3 6 -11 11 -16 11 -6 0 -3 -7 6 -16 15 -16 14 -19 -15 -45
-17 -16 -37 -29 -45 -29 -22 0 -27 -18 -15 -53 9 -28 65 -225 145 -517 42
-153 74 -264 94 -325 10 -33 15 -62 10 -63 -5 -2 -7 -8 -3 -13 3 -5 -1 -9 -8
-10 -7 0 5 -7 26 -15 48 -17 55 -13 22 14 -14 10 -23 22 -20 24 4 5 -54 226
-92 350 -8 26 -14 56 -14 67 0 36 19 23 30 -21 6 -24 24 -86 40 -138 16 -52
40 -137 54 -189 14 -51 28 -96 32 -100 4 -3 3 4 0 16 -9 29 2 51 16 32 7 -10
8 -5 4 14 -8 35 11 36 20 1 4 -14 9 -22 13 -16 13 19 183 40 207 24 7 -4 19
-23 28 -42 9 -19 14 -26 10 -15 -24 85 -11 97 18 17 16 -41 17 -43 12 -12 -3
19 -8 46 -11 60 -4 20 -2 22 6 10 9 -13 11 -13 11 -1 0 11 4 10 16 -5 8 -10
12 -12 8 -4 -4 8 -4 12 1 8 8 -8 53 -140 99 -293 15 -49 41 -135 57 -190 17
-55 39 -125 49 -155 35 -100 40 -135 19 -148 -26 -17 -34 -15 -18 4 11 13 11
17 -1 25 -45 26 -46 28 -32 49 11 18 9 22 -18 38 -16 9 -30 20 -30 24 0 4 -7
5 -16 1 -12 -4 -15 -2 -12 8 3 8 12 13 19 11 8 -2 3 8 -10 22 -29 31 -34 32
-26 6 5 -14 2 -20 -9 -20 -9 0 -16 -5 -16 -12 0 -6 -11 -1 -24 11 -14 14 -22
30 -19 40 4 13 3 14 -5 1 -8 -10 -7 -19 1 -29 10 -11 9 -13 -3 -8 -8 4 -23 10
-32 13 -10 4 -18 15 -18 26 0 11 -8 22 -19 25 -20 5 -38 33 -21 33 6 0 10 -5
10 -11 0 -8 4 -9 13 0 8 6 17 8 20 4 4 -3 7 -1 7 6 0 8 -7 10 -19 6 -15 -4
-18 0 -18 20 0 29 13 34 20 8 2 -10 4 -2 4 17 0 44 -12 60 -42 54 -18 -3 -23
-1 -19 10 3 8 1 17 -5 21 -7 4 -11 -3 -11 -17 0 -17 -3 -19 -9 -9 -6 9 -10 10
-16 2 -3 -7 -15 -9 -26 -6 -16 6 -18 2 -13 -24 4 -18 2 -37 -6 -46 -14 -17 -5
-36 15 -29 8 4 18 -1 21 -10 3 -9 10 -16 16 -16 5 0 6 5 2 12 -4 7 -3 8 4 4
14 -8 -2 -46 -19 -46 -9 0 -16 5 -52 35 -21 18 -73 36 -98 34 -43 -4 -54 1
-66 26 -9 20 -8 27 4 34 10 5 12 11 5 15 -6 3 -18 -4 -26 -16 -18 -25 -21 -17
-6 13 6 10 19 19 30 19 10 0 22 5 25 10 3 6 1 10 -4 10 -6 0 -11 5 -11 10 0 6
9 10 20 10 11 0 20 -7 20 -15 0 -8 5 -15 10 -15 6 0 10 -7 10 -15 0 -8 5 -15
11 -15 5 0 7 5 3 12 -4 6 -3 8 4 4 5 -3 12 0 15 6 2 7 8 9 13 5 5 -4 4 -11 -2
-15 -14 -9 -24 -62 -13 -62 5 0 9 5 9 12 0 6 7 3 15 -8 13 -17 14 -16 8 18 -4
25 -2 38 6 38 6 0 11 7 11 15 0 18 21 20 39 3 11 -11 13 -10 9 1 -2 8 -13 19
-23 25 -10 6 -27 19 -38 30 -15 14 -16 20 -7 30 10 8 11 8 7 0 -4 -7 2 -14 14
-17 12 -3 18 -10 14 -16 -3 -6 0 -11 8 -11 9 0 14 11 14 33 1 17 -1 27 -4 21
-7 -19 -52 7 -66 39 -8 19 -18 26 -29 23 -10 -2 -21 0 -24 5 -9 16 -24 10 -33
-13 -5 -14 -5 -28 2 -36 8 -10 7 -16 -2 -22 -11 -6 -11 -9 0 -13 11 -4 -94 -2
-109 2 -2 1 -2 9 0 18 2 10 -5 19 -16 21 -21 5 -46 26 -46 39 0 18 75 12 93
-8 19 -21 67 -26 67 -7 0 6 7 19 16 29 22 24 10 54 -27 69 -19 8 -26 16 -19
20 7 4 8 10 3 13 -5 3 -14 -3 -21 -14 -10 -15 -10 -19 2 -19 9 0 14 -8 13 -20
-1 -18 -2 -18 -21 -2 -11 9 -16 11 -11 3 6 -10 2 -12 -16 -7 -13 3 -18 3 -11
0 6 -3 12 -10 12 -15 0 -6 -4 -7 -10 -4 -5 3 -10 1 -10 -5 0 -7 -6 -8 -19 0
-25 13 -34 13 -26 0 8 -13 -11 -13 -38 2 -19 9 -20 9 -11 -3 13 -16 27 -69 19
-69 -3 0 -11 14 -17 31 -6 18 -13 26 -18 20 -4 -7 -11 -2 -20 13 -7 14 -17 23
-22 20 -4 -3 -8 -1 -8 4 0 9 23 22 36 22 3 0 3 -9 -1 -19 -3 -11 -1 -22 5 -26
6 -3 10 3 10 15 0 12 4 19 9 16 5 -4 12 7 16 23 4 20 11 28 21 24 8 -3 14 0
14 7 0 8 12 11 36 8 36 -4 36 -4 15 13 -25 20 -30 75 -6 65 10 -3 15 1 15 14
0 26 -10 30 -50 20 -19 -4 -28 -8 -20 -9 9 -1 6 -7 -10 -18 -33 -23 -50 -25
-57 -7 -8 22 14 41 29 26 15 -15 32 -16 23 -1 -4 6 2 13 14 16 11 3 18 9 16
14 -3 4 -19 3 -36 -3 -18 -6 -34 -7 -38 -2 -3 5 -14 10 -23 10 -13 1 -15 -3
-8 -22 6 -16 6 -24 -1 -24 -6 0 -13 9 -16 19 -3 14 -18 22 -46 27 -39 6 -40 8
-19 17 12 5 22 16 22 22 0 7 -16 75 -36 151 -20 77 -47 180 -59 229 -13 50
-27 102 -32 117 l-8 28 -41 -48 c-36 -41 -39 -49 -27 -61 8 -8 13 -24 10 -37
-2 -13 -1 -24 3 -24 4 0 10 -10 13 -22 3 -13 17 -68 32 -123 15 -55 33 -128
42 -163 11 -47 20 -66 36 -72 25 -10 16 -13 -30 -10 -18 1 -33 -3 -33 -9 0 -6
9 -11 20 -11 11 0 20 -7 20 -16 0 -8 -5 -12 -10 -9 -8 5 -9 -10 -4 -44 6 -43
4 -51 -10 -51 -10 0 -16 8 -16 23 0 12 -5 29 -10 37 -8 11 -9 7 -6 -15 l6 -30
-12 27 c-6 15 -24 32 -40 37 -15 6 -28 13 -28 17 0 3 6 4 13 1 8 -3 20 -1 28
4 8 5 9 9 2 9 -6 0 -9 9 -6 20 3 10 -9 76 -27 145 -18 69 -30 135 -27 146 3
10 1 17 -3 14 -12 -7 -24 60 -14 76 5 8 3 10 -6 4 -10 -6 -12 1 -7 31 3 21 3
30 0 19 -4 -15 -9 -10 -19 25 -16 54 -17 70 -3 50 8 -12 9 -10 7 10 -1 14 1
32 6 40 4 8 -1 5 -11 -6 l-19 -22 -12 58 c-7 32 -21 78 -31 102 -11 24 -23 61
-27 83 -3 22 -10 45 -14 50 -11 16 -22 127 -11 121 5 -3 7 3 4 15 -4 16 -8 17
-14 7 -7 -10 -9 -9 -9 3 0 18 24 42 33 33 3 -3 3 3 0 15 -3 12 -7 21 -9 21 -9
0 -44 -35 -44 -45 0 -5 5 -3 11 5 9 12 10 12 5 -3 -3 -10 -6 -23 -6 -28 0 -5
-4 -9 -10 -9 -5 0 -7 6 -4 14 6 16 -22 30 -31 16 -4 -6 -3 -15 1 -22 4 -6 3
-8 -3 -5 -5 3 -18 -4 -28 -15 -17 -20 -17 -26 -3 -102 9 -45 22 -104 30 -133
8 -29 11 -54 7 -55 -8 -3 27 -171 91 -434 17 -66 30 -130 30 -142 0 -12 9 -26
20 -32 26 -14 26 -40 -1 -40 -15 0 -19 5 -15 18 4 11 1 19 -6 20 -86 9 -106 8
-101 -5 3 -7 1 -13 -5 -13 -5 0 -13 7 -16 16 -3 8 -14 14 -23 13 -40 -4 -51 2
-61 34 l-12 32 5 -32 c4 -32 -5 -49 -19 -35 -4 4 -22 8 -39 9 -88 5 -97 8 -98
28 -1 17 -2 17 -6 3 -7 -28 -18 -21 -19 12 -1 17 3 30 7 30 5 0 9 19 10 43 0
33 2 38 9 22 9 -19 9 -19 16 3 14 48 28 19 27 -60 0 -10 5 -18 10 -18 5 0 7
-11 5 -25 -4 -16 -1 -25 8 -25 24 0 25 19 3 127 -22 107 -22 110 -4 166 13 42
21 54 27 45 7 -9 9 -7 5 7 -2 11 2 27 10 34 8 7 14 25 13 40 -4 55 0 82 11 76
6 -4 8 -9 5 -12 -2 -3 2 -26 9 -51 8 -26 28 -119 45 -207 35 -186 49 -235 65
-235 9 0 7 25 -7 93 -10 50 -23 119 -29 151 -5 33 -12 63 -15 68 -5 8 -39 197
-50 278 -3 27 -2 31 5 15 7 -14 10 6 10 71 1 50 -2 93 -5 97 -4 3 -8 52 -11
109 -2 57 -11 138 -20 181 -15 75 -15 80 2 109 10 17 12 28 6 23 -9 -5 -9 -1
1 14 7 12 20 21 28 21 12 0 12 2 1 9 -9 6 -10 11 -2 15 6 4 27 40 46 79 42 86
74 140 87 148 6 4 8 15 6 25 -3 15 -10 9 -31 -26 -15 -25 -27 -41 -27 -37 0 5
15 34 34 65 52 88 147 269 182 350 18 40 53 109 79 155 26 45 68 117 92 160
25 43 42 84 39 92 -4 12 -2 13 14 3 11 -7 16 -15 11 -18 -10 -6 -47 -70 -106
-185 -25 -49 -58 -110 -72 -135 -59 -104 -83 -159 -77 -176 5 -15 4 -16 -4 -5
-8 12 -14 7 -28 -22 -15 -31 -16 -39 -4 -50 10 -10 11 -9 5 2 -6 11 -4 13 8 8
12 -4 14 -1 11 18 -2 14 2 25 11 29 9 3 15 11 14 18 -4 20 11 58 22 58 6 0 8
4 4 9 -3 5 1 15 8 23 19 20 62 92 60 100 -2 4 8 19 22 34 14 15 25 33 25 41 0
7 7 25 16 38 9 14 13 25 10 25 -4 0 -2 9 4 20 6 12 16 18 23 14 7 -4 9 -4 5 1
-4 4 -2 15 4 23 7 7 13 24 15 35 2 12 15 32 30 44 25 20 29 21 48 8 11 -9 27
-18 35 -22 8 -3 47 -27 86 -52 38 -25 77 -50 86 -56 9 -5 75 -48 147 -95 73
-47 140 -89 149 -95 52 -30 222 -137 241 -152 2 -1 -8 -17 -23 -35 -104 -128
-107 -134 -95 -164 10 -23 13 -25 16 -11 3 9 11 17 19 17 8 0 14 5 14 10 0 6
9 21 21 33 12 12 31 38 44 57 35 54 48 63 79 49 14 -7 26 -16 26 -20 0 -4 11
-10 24 -13 14 -3 31 -12 38 -20 8 -7 32 -23 54 -35 48 -27 92 -54 167 -103 32
-21 60 -38 63 -38 2 0 3 43 3 96 l0 96 -29 -27 -28 -27 -43 28 c-24 16 -46 30
-49 32 -2 2 1 7 8 11 10 6 10 13 1 34 -10 21 -14 24 -30 14 -10 -6 -15 -15
-13 -19 10 -15 -21 -7 -46 12 -14 11 -30 20 -36 20 -14 0 -60 40 -57 50 1 4
-6 6 -15 3 -20 -5 -75 34 -67 48 4 5 -4 9 -15 9 -28 0 -151 80 -143 93 3 6 1
7 -5 3 -14 -8 -79 23 -66 33 30 21 73 111 53 111 -5 0 -9 -5 -9 -12 0 -6 -3
-9 -6 -5 -4 3 3 21 15 39 20 29 22 30 17 8 l-6 -25 11 25 c6 14 15 33 20 43 5
9 6 17 2 17 -5 0 -14 13 -21 29 -12 26 -10 31 15 59 15 16 36 40 45 53 37 52
67 83 68 71 0 -8 5 -10 12 -6 8 5 9 2 5 -10 -4 -10 -7 -23 -7 -30 0 -7 -9 -23
-20 -36 -24 -28 -25 -46 -4 -54 13 -5 14 -9 4 -21 -7 -8 -10 -22 -6 -30 3 -9
2 -13 -3 -10 -5 3 -12 1 -16 -5 -4 -6 6 -10 25 -10 17 0 29 -4 25 -10 -3 -5
-12 -7 -20 -3 -8 3 -15 0 -15 -6 0 -6 4 -11 10 -11 5 0 7 -6 4 -14 -3 -8 4
-16 18 -20 17 -4 19 -8 10 -14 -10 -7 -10 -15 -2 -38 10 -25 13 -27 23 -13 7
9 23 30 37 47 24 30 25 30 35 11 10 -18 17 -13 73 60 34 44 62 84 62 89 0 5 7
15 15 22 8 7 15 17 15 22 0 6 -7 4 -16 -3 -15 -12 -16 -11 -9 11 7 23 4 22
-24 -9 -31 -35 -35 -42 -32 -73 1 -11 -4 -15 -16 -12 -12 3 -27 -8 -47 -36
-15 -23 -31 -39 -34 -35 -9 9 -30 75 -22 70 4 -2 22 17 41 43 18 26 37 50 42
53 6 4 7 14 4 22 -4 12 -2 14 10 10 11 -4 14 -2 11 8 -3 8 2 19 10 25 12 8 12
15 3 33 -7 12 -17 19 -23 15 -7 -4 -6 -9 3 -15 20 -12 2 -11 -22 1 -13 7 -19
7 -19 0 0 -5 6 -10 13 -10 8 0 9 -3 1 -8 -6 -4 -14 -19 -18 -34 -3 -15 -17
-33 -31 -40 -13 -7 -25 -17 -26 -23 -2 -10 -4 -18 -12 -45 -3 -10 -8 -6 -16
14 -15 37 -10 61 11 60 11 -1 14 4 10 15 -5 14 -4 14 13 1 17 -14 18 -14 6 8
-7 14 -8 22 -1 22 5 0 10 6 10 13 0 8 11 27 25 43 14 16 25 33 25 37 0 5 11
23 24 40 15 20 22 38 17 45 -5 9 -20 -6 -47 -47 -43 -67 -60 -75 -70 -33 -4
15 -9 31 -11 35 -9 16 -41 -24 -47 -59 -8 -38 -20 -43 -36 -15 -15 29 -12 49
10 71 12 12 18 26 14 32 -5 8 -2 9 9 5 10 -4 17 -1 17 6 0 7 9 23 20 37 25 32
25 40 1 40 -13 0 -24 -11 -32 -35 -7 -19 -18 -35 -25 -35 -20 0 -37 -57 -31
-107 3 -25 1 -40 -3 -33 -6 9 -11 6 -20 -11 -7 -13 -19 -28 -26 -32 -8 -4 -14
-15 -14 -22 0 -8 -5 -15 -11 -15 -6 0 -9 -9 -6 -20 3 -11 2 -18 -3 -15 -10 6
-55 -53 -56 -77 -1 -10 -4 -22 -8 -26 -8 -7 -26 16 -26 33 0 6 4 3 10 -5 13
-20 18 -10 10 20 l-6 25 -19 -28 c-12 -18 -15 -31 -8 -35 5 -4 15 -17 22 -30
12 -23 8 -31 -70 -145 -7 -10 -59 19 -223 123 -39 24 -82 51 -96 58 -54 31
-66 38 -105 63 -44 29 -73 59 -57 59 5 0 13 12 16 26 5 17 12 24 21 20 19 -7
30 13 15 27 -10 10 -11 8 -6 -8 6 -17 5 -18 -6 -7 -11 12 -9 17 10 29 12 9 22
25 22 37 0 11 5 28 11 36 8 12 9 9 4 -10 -6 -24 -5 -24 10 3 9 15 19 26 23 23
4 -2 8 4 8 14 0 10 -4 17 -7 14 -4 -2 -1 9 7 26 9 16 19 32 25 35 14 9 11 25
-4 25 -8 0 -20 -12 -28 -27 -7 -16 -34 -64 -59 -108 -25 -44 -54 -97 -65 -118
-17 -33 -35 -48 -35 -31 0 3 32 66 70 140 38 73 70 136 70 139 0 3 -232 5
-515 4 -381 -1 -515 -4 -515 -12 0 -7 -5 -5 -10 3 -8 13 -10 12 -10 -3 0 -9 6
-26 12 -37 10 -16 10 -24 0 -40 -6 -11 -12 -27 -12 -35 0 -18 -17 -20 -22 -3
-3 7 -7 5 -11 -6 -4 -9 -3 -15 2 -12 5 3 12 -1 15 -10 4 -12 1 -14 -14 -9 -13
4 -20 2 -20 -7 -1 -7 -7 -2 -14 11 -12 21 -14 21 -20 6 -3 -10 -4 -20 -1 -23
3 -3 5 1 5 9 1 32 20 -17 20 -51 0 -19 5 -42 10 -50 9 -13 11 -13 21 0 9 13
10 12 5 -3 -3 -10 -6 -21 -6 -23 0 -2 -7 -4 -15 -4 -11 0 -14 -7 -9 -25 4 -15
2 -25 -5 -25 -6 0 -11 5 -11 11 0 8 -4 8 -14 0 -20 -17 -25 -55 -10 -82 7 -13
13 -28 13 -34 0 -5 -6 1 -14 15 -16 28 -21 9 -5 -21 7 -13 7 -19 0 -19 -5 0
-10 5 -10 10 0 6 -7 10 -15 10 -8 0 -22 11 -31 25 -9 14 -23 25 -32 25 -8 0
-23 8 -32 17 -15 16 -15 23 2 88 29 118 52 190 60 193 5 2 6 7 3 12 -3 4 2 27
10 50 8 23 15 44 15 46 0 2 -17 4 -38 4 l-37 0 -14 -57 c-13 -59 -67 -256 -76
-282 -4 -10 -8 -11 -20 -1 -8 7 -12 17 -9 22 4 6 -3 5 -15 -1 -14 -8 -21 -8
-21 -1 0 5 -11 10 -25 10 -44 0 -75 21 -75 51 0 15 5 31 11 34 6 4 8 13 5 21
-4 12 1 41 30 177 5 20 3 27 -9 27 -10 0 -17 -14 -21 -42z m788 7 c20 -14 41
-25 45 -25 5 0 13 -6 19 -13 8 -10 6 -13 -8 -13 -10 0 -17 3 -15 6 6 10 -79
61 -93 55 -7 -2 -10 0 -7 5 9 15 19 12 59 -15z m10 -33 c3 -5 -1 -9 -9 -9 -8
0 -12 4 -9 9 3 4 7 8 9 8 2 0 6 -4 9 -8z m-63 -49 c-12 -20 -14 -14 -5 12 4 9
9 14 11 11 3 -2 0 -13 -6 -23z m769 13 c0 -3 -4 -8 -10 -11 -5 -3 -10 -1 -10
4 0 6 5 11 10 11 6 0 10 -2 10 -4z m-1020 -16 c0 -5 -7 -10 -15 -10 -8 0 -15
5 -15 10 0 6 7 10 15 10 8 0 15 -4 15 -10z m210 -25 c0 -5 -5 -3 -10 5 -5 8
-10 20 -10 25 0 6 5 3 10 -5 5 -8 10 -19 10 -25z m330 -36 l25 -21 -35 21
c-19 11 -52 29 -72 41 -21 11 -38 23 -38 26 0 8 90 -43 120 -67z m-508 -21
c-8 -8 -9 -4 -5 13 4 13 8 18 11 10 2 -7 -1 -18 -6 -23z m-115 -10 c-3 -8 -6
-5 -6 6 -1 11 2 17 5 13 3 -3 4 -12 1 -19z m1823 12 c0 -5 -4 -10 -10 -10 -5
0 -10 5 -10 10 0 6 5 10 10 10 6 0 10 -4 10 -10z m-1124 -31 c4 -8 1 -8 -14 0
-12 6 -24 16 -28 22 -4 8 -1 8 14 0 12 -6 24 -16 28 -22z m-552 5 c5 -14 4
-15 -9 -4 -17 14 -19 20 -6 20 5 0 12 -7 15 -16z m-120 -12 c3 -5 -1 -9 -9 -9
-8 0 -12 4 -9 9 3 4 7 8 9 8 2 0 6 -4 9 -8z m156 -13 c0 -6 -4 -7 -10 -4 -5 3
-10 1 -10 -6 0 -7 -2 -10 -5 -7 -9 8 6 38 16 32 5 -3 9 -10 9 -15z m576 -20
c3 -6 -5 -3 -20 6 -14 10 -26 19 -26 22 0 7 39 -17 46 -28z m-536 -14 c0 -5
-5 -3 -10 5 -5 8 -10 20 -10 25 0 6 5 3 10 -5 5 -8 10 -19 10 -25z m-109 -12
c-12 -20 -14 -14 -5 12 4 9 9 14 11 11 3 -2 0 -13 -6 -23z m684 7 c3 -6 -1 -7
-9 -4 -18 7 -21 14 -7 14 6 0 13 -4 16 -10z m-566 -31 c4 6 7 -5 8 -24 1 -19
-3 -38 -8 -41 -5 -3 -6 2 -3 11 4 8 -1 26 -10 40 -9 13 -16 28 -16 32 0 4 5 0
11 -11 8 -12 14 -15 18 -7z m636 -14 c19 -15 18 -15 -12 -1 -17 9 -35 21 -39
27 -8 13 21 -1 51 -26z m905 7 c0 -12 -9 -18 -25 -20 -26 -2 -26 -2 -8 22 20
26 33 25 33 -2z m-1559 -27 c7 -13 3 -12 -10 5 -11 14 -21 30 -21 35 0 11 14
-7 31 -40z m-177 -19 c-6 -16 -24 -13 -24 5 0 6 5 7 11 3 8 -4 9 1 5 17 -6 19
-5 21 4 7 5 -9 7 -23 4 -32z m31 9 c-1 -19 -4 -37 -7 -40 -4 -5 -4 65 1 73 5
8 7 -3 6 -33z m1915 16 c0 -13 -29 -35 -37 -27 -3 3 -1 6 5 6 7 0 12 7 12 15
0 8 5 15 10 15 6 0 10 -4 10 -9z m-1885 -21 c3 -5 1 -10 -4 -10 -6 0 -11 5
-11 10 0 6 2 10 4 10 3 0 8 -4 11 -10z m90 -9 c-8 -14 -25 -14 -25 0 0 5 5 7
10 4 6 -3 10 -1 10 6 0 7 3 10 6 6 3 -3 3 -10 -1 -16z m-68 -22 c0 -21 -3 -26
-9 -16 -4 9 -5 22 -2 31 9 23 11 20 11 -15z m1465 -29 c-9 -17 -20 -30 -24
-30 -13 0 -9 17 7 30 8 7 15 19 15 27 0 8 4 12 9 8 6 -3 3 -18 -7 -35z m-1587
-58 c-5 -5 -18 26 -29 68 -3 14 3 5 14 -19 11 -24 18 -46 15 -49z m188 80 c3
7 4 -4 2 -25 -1 -21 -6 -41 -10 -45 -5 -4 -5 1 -2 11 9 23 -2 44 -13 27 -5 -8
-7 -3 -7 13 2 18 5 22 14 16 7 -7 13 -5 16 3z m-122 -45 c-10 -9 -11 -8 -5 6
3 10 9 15 12 12 3 -3 0 -11 -7 -18z m49 -17 c0 8 3 11 6 7 3 -3 2 -12 -3 -21
-7 -13 -11 -12 -22 7 -13 20 -13 21 2 8 14 -11 17 -11 17 -1z m-149 -27 c-12
-20 -14 -14 -5 12 4 9 9 14 11 11 3 -2 0 -13 -6 -23z m206 -24 c-5 -4 -6 -12
-2 -19 6 -9 9 -9 16 1 6 10 9 10 9 2 0 -7 -8 -16 -17 -22 -14 -8 -15 -12 -4
-25 7 -9 9 -16 3 -16 -13 0 -24 29 -16 42 4 5 -3 23 -15 39 -23 31 -18 41 6
12 12 -16 13 -15 7 12 l-6 30 14 -25 c9 -15 10 -28 5 -31z m1613 43 c0 -5 -7
-9 -15 -9 -8 0 -12 4 -9 9 3 4 9 8 15 8 5 0 9 -4 9 -8z m-1669 -81 c10 16 12
8 3 -16 -5 -13 -11 -9 -30 17 -13 17 -24 26 -24 18 0 -7 -2 -11 -5 -8 -3 3 -3
13 1 22 5 14 10 11 26 -15 16 -25 22 -29 29 -18z m28 15 c-3 -3 -11 5 -18 17
-13 21 -12 21 5 5 10 -10 16 -20 13 -22z m-123 9 c-3 -8 0 -26 6 -40 l11 -25
20 23 19 22 -6 -22 c-6 -18 -4 -22 7 -17 8 3 18 0 22 -5 3 -6 10 -9 14 -7 10
7 7 -52 -4 -62 -4 -4 -5 3 -1 14 4 14 1 28 -10 39 -16 16 -18 15 -31 -7 l-14
-23 7 24 c5 19 3 23 -10 18 -12 -5 -22 5 -37 34 -11 23 -16 38 -10 34 6 -3 11
-1 11 4 0 6 3 11 6 11 3 0 4 -7 0 -15z m215 -8 c-10 -9 -11 -8 -5 6 3 10 9 15
12 12 3 -3 0 -11 -7 -18z m-331 -227 c0 -5 -4 -10 -10 -10 -5 0 -10 5 -10 10
0 6 5 10 10 10 6 0 10 -4 10 -10z m1590 -220 c0 -5 -5 -10 -11 -10 -5 0 -7 5
-4 10 3 6 8 10 11 10 2 0 4 -4 4 -10z m-1525 -10 c-3 -5 -11 -10 -16 -10 -6 0
-7 5 -4 10 3 6 11 10 16 10 6 0 7 -4 4 -10z m45 0 c0 -5 -4 -10 -9 -10 -6 0
-13 5 -16 10 -3 6 1 10 9 10 9 0 16 -4 16 -10z m2150 -10 c0 -5 -5 -10 -11
-10 -5 0 -7 5 -4 10 3 6 8 10 11 10 2 0 4 -4 4 -10z m-3085 -10 c-11 -5 -27
-9 -35 -9 -9 0 -8 4 5 9 11 5 27 9 35 9 9 0 8 -4 -5 -9z m824 -54 c-2 -2 -15
-9 -29 -16 -23 -12 -24 -12 -11 3 7 10 20 17 29 17 8 0 13 -2 11 -4z m96 -38
c-29 -16 -29 -16 -15 -33 7 -8 9 -15 6 -15 -4 0 -2 -9 4 -20 10 -18 8 -19 -22
-13 -32 6 -33 6 -14 -12 18 -18 34 -28 99 -62 21 -11 26 -20 21 -35 -4 -15 -2
-19 13 -17 26 3 53 -11 53 -27 0 -8 -9 -14 -19 -14 -11 0 -22 -6 -24 -12 -4
-8 -9 -4 -13 10 -5 18 -9 20 -15 10 -7 -11 -11 -10 -19 2 -9 13 -11 13 -20 0
-15 -23 -12 -39 11 -63 l22 -22 -7 28 c-5 21 -3 28 6 25 7 -3 13 -17 13 -31
-1 -18 3 -23 11 -16 8 6 16 4 25 -8 12 -15 12 -16 -5 -10 -14 6 -17 4 -12 -9
3 -8 6 -20 6 -25 0 -4 6 -6 13 -3 8 3 18 -6 24 -19 12 -25 2 -53 -25 -73 -8
-6 -12 -16 -8 -22 11 -18 -19 -14 -34 3 -16 20 -98 75 -111 75 -5 0 -9 7 -9
15 0 8 5 15 10 15 12 0 14 127 2 132 -5 2 -5 14 -2 28 l7 25 12 -28 c12 -31
35 -32 38 -1 3 18 2 18 -6 -1 l-10 -20 0 20 c-1 13 -26 37 -76 70 -41 28 -75
53 -75 57 0 4 -7 13 -15 21 -12 13 -12 15 5 20 14 3 17 1 13 -12 -4 -11 -1
-10 10 4 13 17 13 20 1 23 -11 3 -12 6 -1 16 19 19 67 34 112 35 35 0 37 -1
20 -11z m1348 -223 l6 -30 -13 30 c-7 17 -16 44 -19 60 l-6 30 13 -30 c7 -16
16 -43 19 -60z m-2826 -17 c-3 -7 -5 -2 -5 12 0 14 2 19 5 13 2 -7 2 -19 0
-25z m1873 2 c0 -5 -5 -10 -11 -10 -5 0 -7 5 -4 10 3 6 8 10 11 10 2 0 4 -4 4
-10z m985 -70 c7 -24 7 -24 -9 -5 -8 11 -15 29 -15 40 0 16 1 17 8 5 5 -8 12
-26 16 -40z m-1042 -25 c-3 -9 -8 -14 -10 -11 -3 3 -2 9 2 15 9 16 15 13 8 -4z
m-173 -25 c0 -5 -2 -10 -4 -10 -3 0 -8 5 -11 10 -3 6 -1 10 4 10 6 0 11 -4 11
-10z m-25 -136 c-8 -9 -15 -20 -15 -26 0 -6 -2 -9 -5 -6 -9 8 17 58 27 52 4
-3 1 -12 -7 -20z m22 -26 c-3 -8 -6 -5 -6 6 -1 11 2 17 5 13 3 -3 4 -12 1 -19z
m804 -229 c4 -13 19 -63 34 -111 29 -96 31 -150 2 -84 -9 21 -17 44 -17 51 0
7 -11 47 -25 89 -29 88 -29 89 -13 84 6 -2 15 -15 19 -29z m-504 -31 c-3 -8
-6 -5 -6 6 -1 11 2 17 5 13 3 -3 4 -12 1 -19z m623 -378 c0 -5 -4 -10 -10 -10
-5 0 -10 5 -10 10 0 6 5 10 10 10 6 0 10 -4 10 -10z m-1275 -40 c-10 -11 -23
-20 -28 -20 -6 0 -2 9 8 20 10 11 23 20 28 20 6 0 2 -9 -8 -20z m-615 -164 c0
-11 -19 -15 -25 -6 -3 5 1 10 9 10 9 0 16 -2 16 -4z m1475 -36 c-19 -8 -19 -9
3 -9 12 -1 22 4 22 9 0 6 5 10 10 10 6 0 10 -7 10 -15 0 -10 -11 -15 -35 -15
-33 0 -43 8 -28 23 3 4 13 7 22 6 12 0 11 -3 -4 -9z m588 -170 c-3 -3 -8 1
-10 8 -3 6 -8 10 -12 7 -5 -2 -6 8 -3 23 l5 27 13 -30 c7 -16 10 -32 7 -35z
m-910 13 c-7 -3 -13 -11 -13 -18 0 -8 -5 -17 -11 -21 -8 -4 -9 1 -4 17 8 25
26 42 35 32 3 -3 -1 -8 -7 -10z m117 -20 c0 -32 -12 -23 -16 12 -1 14 2 23 7
20 5 -4 9 -18 9 -32z m71 18 c4 7 11 10 15 7 3 -4 -1 -14 -10 -23 -9 -9 -16
-14 -16 -12 0 3 -2 11 -3 19 -2 7 -2 9 1 4 2 -4 8 -2 13 5z m123 -7 c3 -8 2
-12 -4 -9 -6 3 -10 10 -10 16 0 14 7 11 14 -7z m-74 -9 c0 -8 -4 -15 -10 -15
-5 0 -7 7 -4 15 4 8 8 15 10 15 2 0 4 -7 4 -15z m156 3 c4 -7 3 -8 -4 -4 -7 4
-12 2 -12 -4 0 -6 -4 -8 -10 -5 -9 5 -14 -6 -12 -26 1 -3 -13 -3 -29 -1 -34 5
-33 7 13 32 40 23 45 23 54 8z m-259 -30 c-3 -8 -6 -5 -6 6 -1 11 2 17 5 13 3
-3 4 -12 1 -19z m20 -10 c-3 -8 -6 -5 -6 6 -1 11 2 17 5 13 3 -3 4 -12 1 -19z
m133 3 c0 -5 -9 -11 -20 -14 -12 -3 -20 0 -20 7 0 6 9 12 20 13 11 1 20 -2 20
-6z m245 -11 c-3 -5 -1 -10 4 -10 6 0 11 4 11 9 0 5 11 4 25 -2 14 -7 25 -18
25 -24 0 -7 9 -22 20 -33 11 -11 17 -20 14 -20 -11 0 -53 37 -48 42 2 3 -3 11
-12 19 -14 11 -17 10 -25 -4 -6 -9 -14 -17 -19 -17 -11 0 -13 33 -3 43 10 10
15 8 8 -3z m251 -15 c-9 -9 -13 -21 -10 -27 4 -7 2 -8 -5 -4 -6 4 -8 13 -5 19
14 24 27 37 32 33 2 -3 -3 -12 -12 -21z m-859 9 c-3 -3 -12 -4 -19 -1 -8 3 -5
6 6 6 11 1 17 -2 13 -5z m83 -41 c0 -2 -6 -11 -14 -18 -11 -12 -13 -10 -13 10
0 16 4 22 13 18 8 -3 14 -7 14 -10z m186 -13 c34 -13 31 -40 -3 -39 l-28 0 24
10 c31 12 21 21 -23 21 -25 0 -36 4 -36 15 0 9 6 13 15 9 8 -3 15 0 16 7 0 8
2 8 6 -1 3 -7 16 -17 29 -22z m-1 20 c3 -5 1 -10 -4 -10 -6 0 -11 5 -11 10 0
6 2 10 4 10 3 0 8 -4 11 -10z m135 -4 c0 -2 -7 -7 -16 -10 -8 -3 -12 -2 -9 4
6 10 25 14 25 6z m59 -18 c-7 -13 -18 -27 -26 -31 -7 -5 -11 -13 -8 -18 4 -5
11 -6 17 -3 6 4 9 1 6 -6 -7 -22 -26 -22 -33 -1 -4 13 -15 21 -28 21 -16 0
-18 3 -8 9 11 7 11 9 0 14 -8 3 0 6 17 6 16 1 39 8 50 16 26 19 27 19 13 -7z
m372 5 c13 -16 12 -17 -3 -4 -10 7 -18 15 -18 17 0 8 8 3 21 -13z m-481 -3 c0
-5 -6 -10 -12 -10 -9 0 -8 -4 2 -10 8 -5 12 -10 8 -10 -3 0 -14 -3 -24 -7 -13
-5 -16 -3 -11 10 4 10 2 16 -5 14 -6 -1 -13 4 -15 11 -3 8 6 12 26 12 17 0 31
-4 31 -10z m490 -29 c3 -2 -5 0 -17 3 -15 5 -25 1 -33 -11 -11 -16 -11 -16 -5
2 4 11 8 26 8 33 0 8 7 7 21 -5 12 -10 23 -20 26 -22z m-71 -7 c14 -12 -19 -1
-35 12 -18 14 -18 14 6 3 14 -6 27 -13 29 -15z m-679 -5 c0 -6 -4 -7 -10 -4
-5 3 -10 11 -10 16 0 6 5 7 10 4 6 -3 10 -11 10 -16z m637 -11 c7 -6 11 -14 8
-18 -9 -15 -38 -4 -54 20 -15 22 -14 22 9 15 14 -4 31 -12 37 -17z m-673 6 c9
-3 16 -10 16 -14 0 -12 -33 -5 -38 8 -4 14 0 15 22 6z m70 -10 c3 -8 2 -12 -4
-9 -6 3 -10 1 -10 -5 0 -6 -4 -8 -10 -5 -6 4 -5 11 3 20 15 18 14 18 21 -1z
m436 -54 c0 -6 -5 -10 -10 -10 -7 0 -7 -8 1 -22 l12 -22 17 22 c19 23 40 29
40 12 0 -5 -4 -10 -10 -10 -5 0 -10 -7 -10 -15 0 -12 7 -14 26 -9 19 5 25 3
20 -4 -4 -8 -2 -10 7 -6 20 7 30 -11 21 -38 -6 -20 -7 -20 -16 -3 -8 13 -12
14 -18 5 -10 -17 -33 -2 -26 17 3 8 1 11 -4 8 -6 -3 -10 -16 -11 -28 -1 -15
-5 -10 -13 16 -6 21 -15 35 -19 31 -11 -12 -37 29 -31 49 3 11 0 17 -10 17
-18 0 -26 31 -11 46 7 8 15 3 27 -18 10 -15 18 -33 18 -38z m220 34 c0 -8 -4
-12 -10 -9 -5 3 -10 10 -10 16 0 5 5 9 10 9 6 0 10 -7 10 -16z m-873 0 c-3 -3
-12 -4 -19 -1 -8 3 -5 6 6 6 11 1 17 -2 13 -5z m296 -14 c3 -11 4 -20 3 -20
-2 0 -11 9 -21 20 -15 17 -16 20 -3 20 9 0 18 -9 21 -20z m224 -22 c-3 -8 -6
-5 -6 6 -1 11 2 17 5 13 3 -3 4 -12 1 -19z m558 12 c3 -5 1 -10 -4 -10 -6 0
-11 5 -11 10 0 6 2 10 4 10 3 0 8 -4 11 -10z m-881 -13 c3 4 6 1 6 -6 0 -7 5
-9 11 -5 8 4 9 -1 4 -15 -5 -16 -1 -27 14 -40 25 -21 28 -46 5 -37 -9 4 -13 2
-8 -5 7 -12 -15 -31 -28 -23 -4 3 -8 11 -8 17 0 7 4 6 10 -3 7 -11 10 -6 10
20 -1 42 -20 70 -49 70 -14 0 -21 6 -21 20 0 16 4 18 24 10 13 -5 27 -6 30 -3z
m61 4 c3 -5 2 -12 -3 -15 -5 -3 -9 1 -9 9 0 17 3 19 12 6z m163 -16 c7 -14 12
-28 12 -30 0 -10 -50 -36 -59 -31 -17 11 -1 35 17 28 15 -5 15 -3 4 10 -10 12
-10 18 -1 23 8 6 7 10 -2 16 -11 7 -11 9 2 9 9 0 21 -11 27 -25z m347 15 c17
14 27 -11 13 -31 -8 -11 -9 -10 -4 4 4 13 1 17 -11 15 -9 -2 -17 3 -19 10 -1
7 0 8 3 2 3 -8 9 -8 18 0z m-734 -17 c13 -16 12 -17 -3 -4 -17 13 -22 21 -14
21 2 0 10 -8 17 -17z m419 8 c0 -6 -4 -13 -10 -16 -5 -3 -10 1 -10 9 0 9 5 16
10 16 6 0 10 -4 10 -9z m-1780 -11 c0 -5 -2 -10 -4 -10 -3 0 -8 5 -11 10 -3 6
-1 10 4 10 6 0 11 -4 11 -10z m1628 -3 c13 -15 4 -60 -9 -51 -5 3 -7 10 -4 15
4 5 -2 6 -12 2 -16 -6 -16 -4 2 17 11 13 14 20 8 16 -7 -4 -13 -2 -13 3 0 15
15 14 28 -2z m45 -4 c-5 -12 -3 -14 7 -8 9 5 11 4 6 -3 -5 -9 -13 -9 -27 -2
-25 14 -25 30 1 30 14 0 18 -5 13 -17z m-268 -25 c6 0 9 -5 7 -10 -1 -6 1 -15
5 -22 4 -7 -2 0 -14 14 -13 14 -23 32 -22 40 0 11 2 10 8 -3 4 -10 11 -19 16
-19z m953 23 c-2 -5 6 -16 17 -25 20 -15 20 -15 -3 -9 -28 7 -51 43 -27 43 8
0 14 -4 13 -9z m-501 -17 c-3 -3 -12 -4 -19 -1 -8 3 -5 6 6 6 11 1 17 -2 13
-5z m103 -4 c0 -9 -14 -14 -32 -11 -17 2 -7 -50 12 -66 23 -20 26 -33 6 -33
-7 0 -19 14 -26 30 -15 35 -30 39 -30 8 0 -19 -2 -20 -10 -8 -18 29 16 87 45
76 8 -3 15 -1 15 4 0 6 5 10 10 10 6 0 10 -4 10 -10z m-181 -56 c-28 -30 -39
-31 -36 -1 3 33 19 47 40 35 18 -9 18 -11 -4 -34z m-249 29 c0 -5 -8 -17 -17
-28 -14 -18 -15 -18 -9 -2 3 10 6 23 6 28 0 5 5 9 10 9 6 0 10 -3 10 -7z
m-140 -13 c0 -5 -2 -10 -4 -10 -3 0 -8 5 -11 10 -3 6 -1 10 4 10 6 0 11 -4 11
-10z m270 0 c0 -5 -2 -10 -4 -10 -3 0 -8 5 -11 10 -3 6 -1 10 4 10 6 0 11 -4
11 -10z m320 0 c0 -5 -7 -10 -16 -10 -8 0 -12 5 -9 10 3 6 10 10 16 10 5 0 9
-4 9 -10z m-128 -25 c-8 -27 -18 -29 -45 -10 -13 9 -15 15 -7 20 7 4 16 1 21
-6 6 -11 9 -10 15 4 10 26 23 20 16 -8z m-152 -5 c0 -5 -3 -10 -7 -11 -5 0
-16 -2 -25 -4 -10 -2 -18 1 -18 5 0 7 17 15 43 19 4 0 7 -3 7 -9z m-263 -15
c0 -8 -4 -12 -9 -9 -5 3 -6 10 -3 15 9 13 12 11 12 -6z m1030 8 c-4 -3 1 -12
11 -20 16 -14 16 -14 -1 -9 -10 3 -25 6 -33 6 -20 0 -17 18 4 23 9 3 19 5 21
6 2 0 1 -2 -2 -6z m-877 -18 c11 -13 10 -14 -4 -9 -9 3 -16 10 -16 15 0 13 6
11 20 -6z m324 6 c3 -5 -1 -14 -8 -20 -12 -10 -13 -8 -9 8 6 23 9 25 17 12z
m258 -11 c12 -11 18 -23 13 -27 -4 -5 -10 -2 -12 5 -3 6 -13 12 -24 12 -10 0
-19 7 -19 15 0 21 17 19 42 -5z m203 -1 c11 -17 -1 -21 -15 -4 -8 9 -8 15 -2
15 6 0 14 -5 17 -11z m-372 -16 c-9 -3 -8 -12 2 -36 12 -29 11 -32 -13 -44
-20 -11 -27 -11 -33 -1 -4 6 -6 15 -3 19 2 4 -4 10 -13 13 -10 3 -5 4 10 2 24
-3 28 0 24 15 -5 20 21 55 32 43 3 -4 1 -9 -6 -11z m-507 -6 c16 6 19 -13 3
-23 -11 -7 -29 13 -28 31 0 6 3 5 5 -2 3 -7 12 -9 20 -6z m294 3 c0 -5 -2 -10
-4 -10 -3 0 -8 5 -11 10 -3 6 -1 10 4 10 6 0 11 -4 11 -10z m87 -5 c0 -8 -4
-12 -9 -9 -4 3 -8 9 -8 15 0 5 4 9 8 9 5 0 9 -7 9 -15z m371 4 c-21 -12 -24
-54 -5 -66 6 -4 21 -7 32 -6 16 1 16 1 3 -3 -21 -6 -22 -15 -5 -34 10 -12 9
-12 -5 -2 -13 10 -17 10 -22 0 -3 -7 -4 -3 -2 10 3 16 -1 24 -17 28 -28 7 -35
70 -9 77 34 9 48 7 30 -4z m92 -5 c0 -14 -3 -14 -15 -4 -8 7 -15 14 -15 16 0
2 7 4 15 4 8 0 15 -7 15 -16z m-980 -15 c0 -11 -3 -11 -24 -3 -23 9 -20 23 4
17 11 -3 20 -9 20 -14z m439 -10 c-11 -7 -11 -9 -1 -9 7 0 10 -4 7 -10 -4 -6
-11 -6 -19 2 -10 9 -9 15 3 28 9 9 18 12 20 7 2 -5 -3 -13 -10 -18z m151 16
c0 -10 -9 -15 -27 -14 -24 2 -25 2 -5 6 12 2 22 9 22 14 0 5 2 9 5 9 3 0 5 -7
5 -15z m200 5 c0 -5 -4 -10 -9 -10 -6 0 -13 5 -16 10 -3 6 1 10 9 10 9 0 16
-4 16 -10z m-323 -22 c-3 -8 -6 -5 -6 6 -1 11 2 17 5 13 3 -3 4 -12 1 -19z
m453 7 c17 -21 5 -31 -15 -12 -8 9 -15 18 -15 21 0 11 18 6 30 -9z m-2308 -37
c-8 -8 -9 -4 -5 13 4 13 8 18 11 10 2 -7 -1 -18 -6 -23z m1583 22 c3 -5 -1
-10 -9 -10 -8 0 -18 5 -21 10 -3 6 1 10 9 10 8 0 18 -4 21 -10z m540 1 c3 -5
1 -12 -5 -16 -5 -3 -10 1 -10 9 0 18 6 21 15 7z m-557 -46 c-11 -11 -38 8 -38
26 0 19 1 19 22 -1 12 -11 19 -22 16 -25z m111 33 c19 7 31 7 31 1 0 -5 -4 -9
-10 -9 -5 0 -10 -8 -10 -18 0 -11 -9 -27 -21 -37 -20 -19 -20 -19 -10 9 15 38
14 42 -7 23 -18 -16 -19 -16 -19 13 0 17 4 26 8 19 5 -9 15 -9 38 -1z m485 -2
c-3 -8 0 -17 7 -22 8 -4 10 -3 5 4 -4 7 -1 12 8 12 24 0 30 -20 10 -36 -18
-13 -18 -15 -1 -25 20 -12 23 -65 5 -72 -10 -3 -10 -9 0 -26 16 -27 15 -34 -3
-28 -11 5 -12 1 -5 -17 6 -17 4 -30 -5 -42 -8 -11 -15 -14 -15 -9 0 6 -5 3
-10 -5 -8 -12 -10 -9 -10 12 0 15 5 30 10 33 6 4 8 10 5 15 -3 5 -1 19 5 30 6
12 7 20 1 20 -5 0 -16 3 -25 6 -11 4 -16 1 -16 -10 0 -9 -4 -16 -9 -16 -5 0
-7 -19 -4 -42 5 -36 4 -40 -10 -35 -14 5 -17 0 -17 -28 0 -19 3 -36 8 -36 4
-1 17 -3 30 -4 31 -3 40 -14 22 -28 -9 -7 -15 -21 -13 -32 1 -11 -4 -4 -13 15
-9 19 -22 39 -30 43 -8 4 -14 16 -14 25 -1 16 -1 16 -11 -1 -6 -9 -14 -15 -20
-12 -5 3 -6 0 -4 -7 4 -10 -4 -14 -27 -13 -42 1 -47 20 -8 34 17 6 29 15 25
21 -3 5 3 10 14 10 28 0 26 14 -4 34 -22 14 -25 15 -25 1 0 -8 -7 -15 -15 -15
-8 0 -15 5 -15 10 0 6 5 10 10 10 6 0 10 7 10 16 0 13 2 14 21 0 17 -11 27
-12 45 -4 29 14 30 20 4 43 -24 22 -25 38 -5 55 12 10 15 10 15 -1 0 -12 2
-12 9 0 7 11 11 10 19 -4 6 -12 16 -16 26 -12 19 7 13 27 -8 27 -23 0 -17 82
7 103 24 21 28 21 21 3z m-360 -5 c16 -25 -12 -43 -44 -31 -3 1 -8 2 -12 1
-15 -2 4 28 20 32 28 8 31 7 36 -2z m-405 -15 c9 -10 8 -15 -4 -20 -10 -4 -15
1 -15 14 0 24 4 25 19 6z m521 -6 c-8 -5 -17 -7 -19 -4 -3 3 1 9 9 14 8 5 17
7 19 4 3 -3 -1 -9 -9 -14z m423 -10 c-3 -11 -9 -18 -13 -15 -5 3 -6 14 -3 25
3 11 9 18 13 15 5 -3 6 -14 3 -25z m-373 0 c6 -11 7 -20 2 -20 -6 0 -12 9 -15
20 -3 11 -3 20 -1 20 2 0 8 -9 14 -20z m-363 -6 c0 -7 -6 -10 -14 -7 -7 3 -13
8 -13 12 0 4 6 8 13 8 8 0 14 -6 14 -13z m503 12 c0 -9 -40 -13 -46 -5 -3 5 6
9 20 9 14 0 26 -2 26 -4z m-800 -10 c0 -3 -4 -8 -10 -11 -5 -3 -10 -1 -10 4 0
6 5 11 10 11 6 0 10 -2 10 -4z m925 -6 c-3 -5 -11 -10 -16 -10 -6 0 -7 5 -4
10 3 6 11 10 16 10 6 0 7 -4 4 -10z m415 1 c0 -5 9 -13 20 -16 20 -6 28 -25
12 -25 -11 0 -52 35 -52 44 0 3 5 6 10 6 6 0 10 -4 10 -9z m-620 -26 c0 -8 9
-10 24 -8 13 3 27 0 30 -6 7 -10 -18 -16 -50 -12 -7 1 -14 -10 -16 -24 -4 -16
-1 -24 6 -22 13 4 40 -21 49 -45 4 -10 2 -18 -3 -18 -6 0 -10 4 -10 8 0 5 -6
9 -12 10 -60 8 -63 7 -66 -15 -3 -18 -10 -23 -32 -23 -16 0 -30 6 -33 13 -2 7
-8 8 -13 3 -5 -5 -4 -11 4 -13 17 -6 15 -33 -2 -33 -8 0 -16 7 -20 15 -3 9
-12 12 -22 8 -10 -4 -15 -2 -11 3 3 6 2 15 -2 22 -5 9 -12 8 -27 -3 -18 -14
-18 -15 13 -27 28 -11 33 -18 41 -63 10 -58 10 -57 -12 -49 -18 7 -22 30 -5
36 9 3 9 10 0 27 -9 16 -16 20 -25 12 -10 -8 -16 -4 -26 17 -15 33 -22 112 -9
112 5 0 9 -8 10 -17 0 -15 2 -15 9 2 7 18 8 19 15 3 4 -10 12 -18 17 -18 7 0
6 5 -1 14 -13 15 -4 49 10 40 5 -3 9 -10 9 -15 0 -6 -5 -7 -11 -3 -7 4 -10 1
-7 -7 3 -8 10 -13 16 -12 6 2 9 -4 5 -13 -4 -10 6 -7 32 11 23 15 46 23 57 19
17 -5 24 10 19 40 -1 6 0 20 3 32 4 16 11 21 26 17 11 -3 20 -11 20 -18z m577
3 c-3 -8 -6 -5 -6 6 -1 11 2 17 5 13 3 -3 4 -12 1 -19z m-823 -37 c-5 -5 -44
30 -44 40 0 4 11 -2 24 -14 14 -12 23 -24 20 -26z m326 39 c0 -5 -2 -10 -4
-10 -3 0 -8 5 -11 10 -3 6 -1 10 4 10 6 0 11 -4 11 -10z m211 -47 c-10 -17
-10 -17 -11 2 l-1 20 -8 -20 c-9 -21 11 -41 29 -30 12 7 12 3 4 -19 -3 -9 -12
-16 -20 -16 -8 0 -11 6 -7 17 4 11 3 14 -5 9 -7 -4 -12 -16 -12 -27 0 -11 5
-17 10 -14 6 3 10 0 10 -9 0 -8 3 -23 6 -33 5 -15 4 -15 -5 -3 -9 13 -11 13
-11 -2 0 -10 -5 -18 -11 -18 -6 0 -8 8 -4 19 3 11 1 22 -4 26 -7 4 -8 -1 -4
-12 6 -17 5 -17 -13 -2 -21 18 -48 14 -37 -4 3 -7 2 -8 -2 -4 -11 10 -15 37
-6 37 9 0 11 17 12 73 0 20 5 37 10 37 6 0 8 -4 5 -9 -3 -4 1 -16 8 -26 13
-18 14 -17 30 12 17 34 39 47 44 27 2 -7 -1 -21 -7 -31z m-1044 5 c-3 -8 -6
-5 -6 6 -1 11 2 17 5 13 3 -3 4 -12 1 -19z m1093 7 c0 -8 -7 -15 -15 -15 -9 0
-12 6 -9 15 4 8 10 15 15 15 5 0 9 -7 9 -15z m27 -7 c-3 -8 -6 -5 -6 6 -1 11
2 17 5 13 3 -3 4 -12 1 -19z m63 -38 c13 -32 5 -55 -10 -30 -8 13 -10 12 -10
-3 0 -10 -4 -15 -10 -12 -5 3 -10 2 -10 -4 0 -5 5 -13 10 -16 6 -3 10 -1 10 4
0 6 4 11 10 11 5 0 9 -11 8 -25 l-2 -24 -31 23 c-25 19 -32 21 -43 10 -6 -7
-12 -23 -11 -36 1 -22 2 -21 12 5 6 15 13 27 17 27 9 0 43 -68 39 -77 -7 -14
-29 -12 -29 3 0 15 -12 19 -23 8 -11 -11 12 -44 27 -38 8 3 16 -4 19 -18 6
-22 5 -22 -8 -4 -13 17 -15 18 -15 3 0 -9 2 -17 4 -17 2 0 11 -3 20 -6 12 -5
16 0 16 19 0 25 22 52 33 40 10 -10 8 -25 -2 -18 -5 3 -12 1 -16 -5 -3 -5 -1
-10 5 -10 6 0 9 -4 5 -9 -3 -5 -1 -12 5 -16 15 -9 12 -42 -5 -49 -8 -3 -12
-12 -9 -21 3 -8 10 -12 15 -9 5 3 9 -1 9 -9 0 -8 7 -17 15 -21 8 -3 15 -15 15
-26 0 -22 -15 -27 -23 -7 -3 7 -6 4 -6 -6 -1 -10 -5 -16 -9 -13 -5 3 -8 -11
-6 -32 4 -50 3 -48 12 -37 14 20 65 47 71 39 9 -13 41 -14 41 -2 0 7 5 6 13
-1 8 -6 17 -8 20 -5 3 4 5 -7 3 -22 -1 -16 -7 -28 -13 -27 -8 2 -10 -15 -7
-51 3 -32 1 -57 -5 -61 -6 -3 -8 0 -5 8 3 8 -1 17 -9 20 -8 3 -17 21 -21 40
-4 20 -12 37 -18 39 -7 3 -4 10 6 21 10 9 13 18 7 18 -45 5 -46 4 -43 -30 4
-33 3 -34 -14 -16 -10 10 -20 13 -22 7 -1 -5 -13 -7 -25 -4 -19 5 -20 3 -10
-10 7 -8 9 -18 5 -22 -4 -4 0 -6 8 -4 9 2 16 -6 18 -19 2 -12 9 -24 15 -26 7
-2 0 -2 -15 0 -21 4 -28 0 -28 -12 0 -14 -26 -80 -37 -94 -1 -2 -9 1 -17 8
-21 17 -28 -12 -9 -38 8 -12 12 -25 9 -28 -10 -11 -35 18 -38 45 -2 15 -9 28
-15 28 -26 3 -28 5 -13 14 8 5 23 7 32 4 13 -4 16 -1 12 9 -3 8 0 18 5 22 6 3
8 12 4 18 -4 7 1 6 10 -2 10 -8 20 -11 24 -7 3 3 1 6 -6 6 -7 0 -9 5 -6 10 5
8 12 7 23 -2 13 -11 14 -10 4 9 -7 12 -17 23 -24 26 -7 2 -10 8 -5 12 4 5 13
3 19 -3 15 -15 38 -16 38 -2 0 6 -3 9 -7 9 -35 -6 -59 46 -44 96 5 17 10 22
10 13 1 -21 21 -25 21 -5 0 7 -8 31 -19 52 -19 40 -15 54 19 68 13 5 13 6 0 6
-19 1 -41 36 -45 70 -1 14 -8 27 -14 29 -6 2 -11 12 -11 22 0 26 -15 33 -30
15 -9 -11 -9 -15 -1 -15 7 0 9 -4 6 -10 -3 -5 -11 -10 -16 -10 -6 0 -8 4 -4 9
3 5 0 13 -6 17 -8 4 -7 9 2 16 11 7 11 11 2 15 -21 8 -15 22 8 16 18 -5 19 -2
13 23 -4 16 -10 30 -14 32 -4 1 -5 14 -2 27 5 26 36 37 85 31 20 -2 25 0 18 7
-13 13 -15 41 -2 33 4 -3 14 -19 21 -36z m-630 20 c0 -5 -4 -10 -10 -10 -5 0
-10 5 -10 10 0 6 5 10 10 10 6 0 10 -4 10 -10z m-589 -37 c-10 -17 -10 -16
-11 3 0 23 13 41 18 25 2 -6 -1 -18 -7 -28z m533 21 c3 -8 2 -12 -4 -9 -6 3
-10 10 -10 16 0 14 7 11 14 -7z m131 -4 c-3 -5 -10 -10 -16 -10 -5 0 -9 5 -9
10 0 6 7 10 16 10 8 0 12 -4 9 -10z m-1807 -12 c-2 -7 3 -12 10 -10 6 1 12 -2
12 -8 0 -5 -6 -10 -12 -10 -7 -1 1 -12 17 -25 18 -15 24 -25 15 -25 -43 1 -91
90 -48 90 4 0 7 -6 6 -12z m2503 -37 c0 -12 2 -11 8 3 7 17 8 17 14 3 4 -11
-1 -18 -16 -23 -12 -4 -23 -2 -25 5 -5 15 -29 14 -34 -1 -5 -15 -28 -1 -28 18
0 8 9 14 19 14 10 0 22 8 26 18 6 16 7 16 21 -2 8 -11 14 -27 15 -35z m-1431
29 c0 -5 -4 -10 -10 -10 -5 0 -10 5 -10 10 0 6 5 10 10 10 6 0 10 -4 10 -10z
m557 -22 c-3 -8 -6 -5 -6 6 -1 11 2 17 5 13 3 -3 4 -12 1 -19z m30 -19 c-4
-15 -2 -19 9 -15 9 3 12 1 9 -4 -3 -6 -1 -10 4 -10 6 0 11 -7 11 -15 0 -8 -7
-15 -15 -15 -8 0 -15 7 -15 15 0 8 -4 15 -9 15 -4 0 -7 -12 -5 -27 4 -27 3
-27 -4 -3 -10 31 -3 80 10 80 6 0 8 -9 5 -21z m-50 -51 c-2 -13 -4 -5 -4 17
-1 22 1 32 4 23 2 -10 2 -28 0 -40z m821 -6 c-3 -28 -4 -30 -22 -16 -17 12
-18 17 -6 39 17 32 33 19 28 -23z m-1325 -3 c-11 -22 -18 -27 -23 -19 -5 7
-15 10 -24 7 -29 -11 -17 11 17 31 41 25 49 20 30 -19z m1354 26 c0 -8 -4 -12
-9 -9 -5 3 -6 10 -3 15 9 13 12 11 12 -6z m-2402 -15 c3 -5 1 -10 -4 -10 -6 0
-11 5 -11 10 0 6 2 10 4 10 3 0 8 -4 11 -10z m2137 -35 c3 -14 1 -23 -6 -22
-13 2 -24 25 -25 51 -1 27 25 3 31 -29z m642 -11 c-4 -15 -11 -20 -25 -17 -22
6 -24 16 -8 45 9 17 13 18 25 7 7 -8 11 -24 8 -35z m-377 14 c-3 -8 -6 -5 -6
6 -1 11 2 17 5 13 3 -3 4 -12 1 -19z m-2383 -4 c4 -10 1 -14 -6 -12 -15 5 -23
28 -10 28 5 0 13 -7 16 -16z m1970 -3 c7 -11 -14 -20 -32 -13 -11 4 -11 6 0
13 17 11 26 11 32 0z m679 -13 c3 -10 1 -18 -4 -18 -4 0 -13 8 -18 18 -7 14
-6 19 4 19 7 0 16 -9 18 -19z m-1683 -2 c0 -3 -4 -8 -10 -11 -5 -3 -10 -1 -10
4 0 6 5 11 10 11 6 0 10 -2 10 -4z m483 -12 c6 15 10 16 22 6 19 -15 12 -26
-19 -32 -36 -7 -53 6 -36 27 13 16 14 16 20 -1 6 -17 7 -17 13 0z m205 -39 c0
-25 -4 -43 -9 -39 -5 3 -9 12 -9 20 0 8 -4 14 -10 14 -5 0 -10 -5 -10 -11 0
-17 -17 -1 -23 21 -4 15 2 24 21 34 15 8 30 12 33 10 3 -2 6 -24 7 -49z m441
21 c-3 -3 -11 5 -18 17 -13 21 -12 21 5 5 10 -10 16 -20 13 -22z m-800 -25
c-6 -1 -17 5 -24 15 -23 31 -17 38 10 13 13 -13 20 -26 14 -28z m1079 24 c-3
-3 -9 2 -12 12 -6 14 -5 15 5 6 7 -7 10 -15 7 -18z m27 5 c-3 -5 -1 -10 5 -10
8 0 8 -6 0 -20 -12 -23 -2 -47 28 -69 20 -14 20 -15 -4 -33 -14 -11 -24 -30
-24 -44 0 -23 -2 -24 -15 -10 -14 14 -11 46 4 46 4 0 6 14 3 31 -3 18 -9 28
-17 26 -19 -8 -35 7 -41 39 -3 22 -2 25 6 14 5 -8 10 -10 10 -5 0 6 8 -1 16
-15 l15 -25 -5 24 c-5 22 8 61 20 61 3 0 2 -4 -1 -10z m-2398 -22 c-3 -8 -6
-5 -6 6 -1 11 2 17 5 13 3 -3 4 -12 1 -19z m1053 12 c0 -5 -5 -10 -11 -10 -5
0 -7 5 -4 10 3 6 8 10 11 10 2 0 4 -4 4 -10z m24 -5 c-4 -8 -8 -15 -10 -15 -2
0 -4 7 -4 15 0 8 4 15 10 15 5 0 7 -7 4 -15z m1126 0 c0 -8 -34 -45 -42 -45
-5 0 -8 7 -8 16 0 8 5 12 10 9 6 -3 13 1 16 9 6 15 24 23 24 11z m-782 -13
c10 -7 9 -17 -3 -52 -11 -32 -12 -45 -4 -51 6 -4 8 -12 4 -19 -5 -8 -3 -11 6
-8 7 2 16 13 19 24 5 20 40 30 40 12 0 -6 6 -5 15 2 13 10 15 9 15 -9 0 -11 5
-20 12 -19 6 2 14 -5 16 -15 4 -18 -20 -20 -46 -3 -14 8 -13 -15 1 -25 5 -3 5
-18 1 -33 -5 -23 -11 -27 -30 -22 -13 4 -24 3 -25 -1 0 -5 -2 -18 -3 -30 -1
-12 3 -24 10 -27 8 -3 11 0 7 10 -3 8 -2 14 3 13 25 -4 44 3 44 16 0 8 5 15
10 15 6 0 10 -8 10 -19 0 -10 9 -21 20 -24 12 -3 20 -14 20 -26 0 -12 6 -21
13 -21 6 0 4 -5 -5 -11 -20 -11 -24 -31 -5 -24 13 6 57 -53 56 -76 0 -12 -2
-12 -6 1 -4 10 -10 4 -20 -20 -13 -35 -13 -34 -7 20 3 30 2 52 -1 48 -4 -3 -6
-9 -5 -12 2 -10 -34 -66 -42 -66 -12 0 -10 14 4 28 8 8 8 12 1 12 -5 0 -8 11
-6 24 6 31 -7 38 -31 15 -11 -11 -14 -19 -8 -19 13 0 17 -36 5 -43 -5 -2 -2
-2 5 -1 18 5 15 -35 -5 -54 -15 -16 -16 -15 -9 11 3 15 2 27 -3 27 -5 0 -12
15 -15 32 -9 48 -8 53 11 53 9 0 18 6 21 13 3 9 -3 11 -24 6 -23 -6 -26 -4
-21 9 4 10 -3 27 -18 43 -14 15 -25 31 -25 37 0 6 -8 3 -17 -5 -23 -20 -49
-19 -68 2 -14 15 -12 18 25 29 22 6 45 9 50 6 14 -9 12 19 -2 33 -9 9 -7 13 5
18 9 3 24 4 32 0 11 -4 15 1 15 19 0 14 -4 25 -10 25 -5 0 -10 -7 -10 -15 0
-20 -6 -19 -30 5 -11 11 -15 20 -9 20 8 0 8 4 1 13 -11 12 -67 15 -78 4 -4 -4
1 -9 10 -13 27 -11 18 -27 -11 -19 -36 9 -41 14 -23 25 10 7 11 10 3 10 -7 0
-13 7 -13 15 0 8 -5 15 -11 15 -5 0 -7 -4 -4 -10 3 -5 -1 -10 -10 -10 -15 0
-15 -1 -1 -16 18 -17 21 -44 6 -44 -5 0 -10 9 -10 19 0 15 -6 19 -26 18 -16
-1 -29 4 -32 13 -5 13 -3 13 12 1 14 -12 18 -12 31 5 8 10 13 23 11 29 -3 12
23 41 44 47 8 2 26 -6 40 -19 14 -13 26 -19 28 -13 2 5 8 10 13 10 6 0 8 -4 5
-8 -2 -4 -1 -14 5 -22 7 -12 9 -11 9 5 -1 11 -7 29 -15 39 -12 16 -12 22 -2
28 15 10 19 10 35 0z m413 -15 c-10 -9 -11 -8 -5 6 3 10 9 15 12 12 3 -3 0
-11 -7 -18z m-1751 3 c13 -8 13 -10 -2 -10 -9 0 -20 5 -23 10 -8 13 5 13 25 0z
m-70 -10 c0 -5 -2 -10 -4 -10 -3 0 -8 5 -11 10 -3 6 -1 10 4 10 6 0 11 -4 11
-10z m1215 -4 c21 -21 22 -50 3 -54 -14 -3 -16 1 -12 15 6 16 5 15 -9 -2 -13
-15 -17 -17 -17 -5 -1 10 -4 9 -10 -5 -8 -19 -9 -19 -9 3 -1 12 6 25 15 29 8
3 13 12 10 19 -7 18 11 18 29 0z m471 -3 c18 -24 17 -44 -5 -72 -11 -15 -21
-20 -25 -13 -4 6 -14 8 -23 5 -11 -4 -14 -3 -9 5 4 7 2 12 -3 12 -6 0 -11 5
-11 11 0 5 5 7 12 3 8 -5 9 -2 5 10 -4 10 -3 15 3 11 5 -3 12 6 16 20 7 29 21
32 40 8z m297 4 c3 -8 -1 -14 -8 -14 -7 0 -11 6 -8 14 3 7 6 13 8 13 2 0 5 -6
8 -13z m847 -2 c0 -8 -4 -15 -10 -15 -5 0 -10 7 -10 15 0 8 5 15 10 15 6 0 10
-7 10 -15z m-900 -5 c0 -5 -2 -10 -4 -10 -3 0 -8 5 -11 10 -3 6 -1 10 4 10 6
0 11 -4 11 -10z m-474 -20 c8 0 14 -5 14 -11 0 -6 -9 -8 -22 -3 -30 9 -31 10
-22 25 6 10 9 10 12 1 2 -7 10 -12 18 -12z m607 0 c-3 -11 -7 -20 -9 -20 -2 0
-4 9 -4 20 0 11 4 20 9 20 5 0 7 -9 4 -20z m-1943 0 c0 -5 -5 -10 -11 -10 -5
0 -7 5 -4 10 3 6 8 10 11 10 2 0 4 -4 4 -10z m1850 -35 c6 -19 15 -33 20 -30
4 3 6 -4 3 -15 -5 -20 -6 -20 -18 -3 -6 10 -14 27 -17 38 -3 11 -9 29 -14 39
-5 13 -4 17 4 13 6 -4 16 -23 22 -42z m808 22 c5 -23 -10 -21 -25 2 -10 16 -9
19 5 17 9 -2 18 -10 20 -19z m-1738 -20 c0 -5 -4 -5 -10 -2 -5 3 -10 14 -10
23 0 15 2 15 10 2 5 -8 10 -19 10 -23z m80 18 c0 -8 -4 -15 -10 -15 -5 0 -7 7
-4 15 4 8 8 15 10 15 2 0 4 -7 4 -15z m737 -7 c-3 -8 -6 -5 -6 6 -1 11 2 17 5
13 3 -3 4 -12 1 -19z m68 12 c3 -5 1 -10 -4 -10 -6 0 -11 5 -11 10 0 6 2 10 4
10 3 0 8 -4 11 -10z m305 -24 c0 -5 -7 -3 -15 4 -8 7 -12 17 -9 22 7 10 24 -9
24 -26z m720 1 c0 -18 -2 -19 -10 -7 -13 20 -13 43 0 35 6 -3 10 -16 10 -28z
m-2776 14 c3 -5 -6 -8 -19 -8 -14 0 -25 3 -25 8 0 5 9 9 19 9 11 0 22 -4 25
-9z m2277 -44 c-13 -13 -15 -30 -2 -22 5 3 12 1 15 -4 4 -5 1 -13 -5 -17 -6
-3 -15 0 -20 7 -12 19 -11 52 1 44 6 -3 11 4 11 17 1 18 2 19 6 4 3 -10 0 -23
-6 -29z m309 28 c10 -12 10 -15 -2 -15 -8 0 -15 7 -15 15 0 8 1 15 2 15 2 0 8
-7 15 -15z m-2550 -20 c10 -12 9 -16 -3 -21 -9 -3 -22 -3 -29 1 -7 4 -5 0 4
-8 10 -8 15 -17 11 -20 -11 -12 -33 15 -33 39 0 28 30 33 50 9z m883 -14 c-4
-4 -12 -11 -17 -16 -5 -6 -5 0 -1 14 5 18 4 22 -5 16 -9 -5 -11 -4 -6 4 6 9
11 9 22 0 8 -7 11 -15 7 -18z m744 7 c-3 -8 -6 -5 -6 6 -1 11 2 17 5 13 3 -3
4 -12 1 -19z m-697 -14 c0 -8 -4 -12 -10 -9 -5 3 -10 13 -10 21 0 8 5 12 10 9
6 -3 10 -13 10 -21z m73 -7 c18 -7 15 -27 -4 -27 -6 0 -7 5 -4 10 3 6 1 10 -4
10 -6 0 -11 -4 -11 -10 0 -5 -4 -10 -10 -10 -5 0 -6 7 -3 17 4 10 2 14 -5 9
-7 -4 -10 1 -9 13 1 17 4 18 17 7 8 -7 23 -16 33 -19z m534 1 c6 -7 14 -24 18
-38 6 -23 5 -22 -17 7 -17 23 -28 29 -35 22 -14 -14 -27 6 -19 27 6 16 33 7
53 -18z m210 9 c7 -15 8 -29 2 -38 -7 -11 -9 -9 -9 8 0 12 -4 25 -10 28 -12 8
-13 25 -2 25 5 0 14 -11 19 -23z m-912 -1 c10 -10 11 -22 5 -42 l-8 -29 -3 30
c-1 24 -3 26 -6 8 -6 -31 -19 -29 -27 2 -11 42 11 59 39 31z m791 -12 c9 4 14
-2 14 -17 0 -12 9 -28 19 -34 18 -11 19 -10 18 15 -2 21 3 28 20 30 17 3 26
-3 33 -23 14 -36 13 -37 -12 -24 -23 12 -23 12 -4 -10 11 -11 17 -21 13 -21
-3 0 -14 -3 -24 -6 -15 -5 -15 -4 -3 5 13 9 13 11 0 11 -18 0 -40 -19 -40 -34
0 -6 5 -4 10 4 5 8 10 10 10 4 0 -7 -12 -19 -26 -29 -21 -13 -29 -14 -38 -4
-8 9 -7 11 6 6 13 -5 19 0 24 19 8 29 1 38 -29 39 -12 0 -23 7 -25 17 -2 12 2
15 20 12 13 -2 17 -2 11 2 -7 3 -13 13 -13 21 0 9 -6 13 -15 9 -18 -7 -20 5
-2 23 10 10 13 9 15 -4 2 -9 10 -14 18 -11z m-209 -6 c-3 -8 -6 -5 -6 6 -1 11
2 17 5 13 3 -3 4 -12 1 -19z m-247 -13 c0 -8 -2 -15 -4 -15 -2 0 -12 -3 -21
-6 -15 -6 -15 -4 -4 15 16 25 29 27 29 6z m284 -1 c3 -8 2 -12 -4 -9 -6 3 -10
10 -10 16 0 14 7 11 14 -7z m846 -42 c5 -29 3 -39 -7 -39 -7 0 -13 4 -13 9 0
4 -3 7 -7 7 -27 -4 -35 1 -23 16 7 8 17 12 23 8 6 -3 7 -1 3 6 -9 13 1 47 11
38 3 -3 9 -24 13 -45z m-2289 4 c-11 -28 -25 -33 -37 -14 -5 8 -2 9 9 5 20 -8
22 4 5 22 -11 10 -10 11 5 6 10 -5 17 -2 17 6 0 7 2 10 5 7 3 -3 1 -17 -4 -32z
m763 19 c-4 -8 -8 -15 -10 -15 -2 0 -4 7 -4 15 0 8 4 15 10 15 5 0 7 -7 4 -15z
m140 -9 c39 -1 52 -17 36 -46 -6 -11 -10 -23 -9 -27 1 -4 1 -15 0 -23 -2 -24
-21 9 -21 38 0 23 -30 33 -30 10 0 -10 -3 -9 -9 1 -7 11 -9 11 -14 0 -3 -8 -6
6 -6 31 0 30 2 40 8 31 5 -8 25 -15 45 -15z m531 -4 c0 -18 -20 -15 -23 4 -3
10 1 15 10 12 7 -3 13 -10 13 -16z m-754 -6 c5 3 9 0 9 -6 0 -15 -23 -7 -26 8
-1 7 0 8 3 2 2 -5 9 -8 14 -4z m322 7 c3 -5 -1 -21 -8 -38 -11 -26 -14 -28
-20 -11 -5 11 -3 21 5 26 7 4 9 13 6 19 -4 6 -3 11 3 11 5 0 12 -3 14 -7z
m922 -3 c3 -5 2 -10 -4 -10 -5 0 -13 5 -16 10 -3 6 -2 10 4 10 5 0 13 -4 16
-10z m-1115 -19 c0 -23 -26 -45 -54 -46 -17 0 -21 -6 -21 -30 0 -24 5 -31 25
-34 14 -1 28 -8 32 -15 6 -8 8 -8 8 0 0 15 -25 36 -33 27 -4 -3 -7 1 -7 9 0
12 6 14 22 10 14 -3 19 -1 14 6 -3 6 -1 14 5 18 9 5 10 -1 5 -19 -3 -14 -2
-28 3 -31 19 -12 -1 -46 -28 -46 -18 0 -22 -3 -13 -9 11 -7 10 -10 -3 -15 -23
-8 -37 2 -30 23 3 10 -1 24 -10 31 -8 7 -12 16 -9 21 3 5 -2 9 -10 9 -9 0 -16
5 -16 11 0 6 7 9 15 5 8 -3 14 -2 13 2 -1 4 2 22 6 39 6 25 15 35 39 42 46 13
47 13 47 -8z m1077 -3 c-3 -8 -6 -5 -6 6 -1 11 2 17 5 13 3 -3 4 -12 1 -19z
m107 -2 c-7 -17 -34 -23 -34 -6 0 9 32 31 38 26 1 -2 0 -11 -4 -20z m486 9
c10 -12 10 -15 0 -15 -7 0 -10 -6 -7 -13 3 -8 1 -20 -4 -28 -8 -12 -10 -12
-19 1 -5 8 -9 24 -9 35 0 11 3 14 6 7 2 -6 9 -9 14 -6 6 3 5 11 -2 20 -7 8 -7
14 -1 14 5 0 15 -7 22 -15z m-2380 -15 c0 -5 -5 -10 -11 -10 -5 0 -7 5 -4 10
3 6 8 10 11 10 2 0 4 -4 4 -10z m1350 -10 c0 -11 5 -19 11 -17 6 1 14 -4 16
-10 3 -7 0 -13 -6 -13 -6 0 -11 -15 -11 -32 0 -25 3 -29 10 -18 8 12 10 11 10
-7 0 -13 5 -23 10 -23 6 0 10 10 10 23 0 27 26 67 43 67 7 0 18 9 25 20 13 22
37 26 47 9 4 -6 -2 -17 -13 -24 -11 -8 -22 -31 -26 -54 -5 -32 -11 -42 -31
-47 -15 -4 -25 -13 -25 -25 0 -12 5 -16 15 -13 9 4 15 0 15 -10 0 -9 -4 -16
-10 -16 -5 0 -10 -4 -10 -10 0 -5 7 -10 16 -10 9 0 14 -5 12 -12 -8 -22 -26
-19 -33 4 -4 13 -11 25 -16 28 -4 3 -9 12 -11 20 -3 15 -29 35 -60 46 -10 3
-18 11 -18 16 0 5 -4 7 -9 4 -12 -8 -21 19 -21 65 0 32 4 41 23 49 33 13 37
12 37 -10z m1329 -34 c36 7 36 7 16 -13 -11 -12 -23 -16 -26 -10 -4 5 -8 4
-11 -3 -3 -9 -8 -9 -20 3 -8 9 -19 13 -24 9 -5 -4 -2 2 6 12 10 13 10 17 3 12
-7 -4 -13 -5 -13 -2 0 2 -3 13 -6 23 -5 15 -4 15 5 3 9 -13 11 -12 12 5 1 14
4 10 12 -13 9 -31 12 -32 46 -26z m-1261 16 c2 -14 -2 -22 -11 -22 -15 0 -29
34 -19 45 11 11 27 -2 30 -23z m1090 17 c-2 -6 -8 -10 -13 -10 -5 0 -11 4 -13
10 -2 6 4 11 13 11 9 0 15 -5 13 -11z m-661 -21 c-3 -8 -6 -5 -6 6 -1 11 2 17
5 13 3 -3 4 -12 1 -19z m-1962 2 c-3 -5 -12 -10 -18 -10 -7 0 -6 4 3 10 19 12
23 12 15 0z m2275 -11 c0 -5 -9 -9 -20 -9 -11 0 -20 5 -20 11 0 5 5 7 10 4 6
-3 10 -1 10 5 0 6 5 8 10 5 6 -3 10 -10 10 -16z m625 -21 c7 -26 5 -28 -23
-28 -22 0 -31 6 -35 21 -4 15 -2 19 8 15 8 -3 17 4 20 16 8 24 21 14 30 -24z
m-3885 13 c0 -5 -7 -11 -14 -14 -10 -4 -13 -1 -9 9 6 15 23 19 23 5z m1570 5
c0 -3 -4 -8 -10 -11 -5 -3 -10 -1 -10 4 0 6 5 11 10 11 6 0 10 -2 10 -4z m284
-8 c-4 -6 1 -17 11 -25 16 -11 16 -13 3 -13 -9 0 -19 7 -22 16 -6 15 0 34 10
34 3 0 2 -5 -2 -12z m1246 2 c0 -5 -4 -10 -10 -10 -5 0 -10 5 -10 10 0 6 5 10
10 10 6 0 10 -4 10 -10z m-1126 -16 c10 -25 6 -58 -8 -76 -7 -10 -16 -15 -20
-11 -3 4 -13 -2 -21 -13 -8 -10 -15 -14 -15 -7 0 6 5 15 10 18 6 3 10 11 10
16 0 6 -4 7 -10 4 -5 -3 -10 1 -10 9 0 20 19 21 26 1 4 -8 10 -15 16 -15 5 0
1 11 -9 25 l-18 24 -17 -20 c-12 -15 -18 -17 -18 -7 0 8 5 19 12 26 9 9 9 12
-1 12 -7 0 -9 5 -5 11 4 8 9 7 16 -2 7 -12 11 -11 21 4 15 21 33 22 41 1z
m-1949 -22 c-8 -2 -23 -2 -33 1 -14 3 -12 6 8 14 18 8 27 7 32 -1 4 -6 1 -12
-7 -14z m992 -9 c-3 -10 -5 -4 -5 12 0 17 2 24 5 18 2 -7 2 -21 0 -30z m89 10
c5 -19 2 -30 -10 -38 -15 -12 -15 -13 4 -18 11 -3 23 -1 26 4 3 5 16 9 30 9
14 0 22 -4 19 -10 -3 -5 -15 -10 -25 -10 -10 0 -21 -6 -23 -12 -4 -10 -8 -10
-14 -1 -4 6 -21 15 -36 18 -32 8 -47 33 -28 45 7 4 13 11 14 16 1 5 5 8 10 7
4 -2 7 2 7 7 0 21 20 9 26 -17z m415 -36 c-11 -30 -41 -35 -41 -8 0 12 6 30
13 41 11 18 13 19 24 4 7 -10 9 -24 4 -37z m153 23 c-6 -6 -15 -5 -24 1 -13 9
-12 10 3 5 9 -3 17 0 17 6 0 6 3 8 7 5 4 -4 2 -12 -3 -17z m-524 -11 c0 -5 -4
-9 -10 -9 -5 0 -10 7 -10 16 0 8 5 12 10 9 6 -3 10 -10 10 -16z m-1123 5 c-3
-3 -12 -4 -19 -1 -8 3 -5 6 6 6 11 1 17 -2 13 -5z m287 -32 c-4 -18 -13 -32
-20 -32 -17 0 -18 12 -1 29 10 11 10 13 0 7 -8 -4 -13 -1 -13 8 0 8 8 16 18
18 23 6 23 6 16 -30z m2286 17 c0 -5 -4 -9 -10 -9 -5 0 -10 7 -10 16 0 8 5 12
10 9 6 -3 10 -10 10 -16z m-2259 -20 c-5 -13 -10 -19 -10 -12 -1 15 10 45 15
40 3 -2 0 -15 -5 -28z m590 8 c-10 -9 -11 -8 -5 6 3 10 9 15 12 12 3 -3 0 -11
-7 -18z m-784 -13 c-3 -3 -12 -4 -19 -1 -8 3 -5 6 6 6 11 1 17 -2 13 -5z m100
-26 c-3 -7 -5 -2 -5 12 0 14 2 19 5 13 2 -7 2 -19 0 -25z m1638 21 c11 -16 1
-19 -13 -3 -7 8 -8 14 -3 14 5 0 13 -5 16 -11z m1697 -14 c-3 -20 0 -25 16
-25 27 0 52 -10 52 -20 0 -14 -54 -6 -67 10 -14 17 -17 60 -4 60 4 0 6 -11 3
-25z m-3388 -1 c3 -8 2 -12 -4 -9 -6 3 -13 -1 -16 -9 -3 -9 -10 -13 -15 -10
-14 8 -10 24 6 24 8 0 15 5 15 10 0 15 7 12 14 -6z m173 -6 c-3 -8 -6 -5 -6 6
-1 11 2 17 5 13 3 -3 4 -12 1 -19z m1656 -31 c5 -13 3 -17 -5 -14 -7 2 -12 12
-10 22 3 14 -1 16 -17 12 -20 -5 -29 11 -15 26 8 8 39 -23 47 -46z m727 -4 c0
-1 -7 -3 -15 -3 -8 0 -15 7 -15 15 0 8 -4 15 -10 15 -5 0 -10 8 -10 18 0 13 6
11 25 -12 14 -16 25 -31 25 -33z m200 47 c0 -5 -7 -10 -16 -10 -8 0 -12 5 -9
10 3 6 10 10 16 10 5 0 9 -4 9 -10z m-2190 -40 c0 -15 -7 -33 -15 -40 -21 -18
-42 28 -26 58 15 29 41 17 41 -18z m2750 30 c0 -5 -2 -10 -4 -10 -3 0 -8 5
-11 10 -3 6 -1 10 4 10 6 0 11 -4 11 -10z m-1713 -22 c-3 -8 -6 -5 -6 6 -1 11
2 17 5 13 3 -3 4 -12 1 -19z m1053 -3 c0 -14 -4 -25 -9 -25 -6 0 -8 36 -2 48
5 10 11 -2 11 -23z m-2540 -6 c0 -5 -8 -13 -17 -16 -10 -4 -20 -10 -23 -14
-10 -14 -48 2 -53 22 -6 22 -6 22 26 10 19 -8 27 -6 31 4 6 15 36 10 36 -6z
m916 -14 c22 -34 8 -47 -16 -15 -22 28 -25 40 -10 40 5 0 17 -11 26 -25z m280
-2 c-7 -7 -26 7 -26 19 0 6 6 6 15 -2 9 -7 13 -15 11 -17z m-849 11 c-3 -3
-12 -4 -19 -1 -8 3 -5 6 6 6 11 1 17 -2 13 -5z m36 -5 c-8 -8 -5 -18 14 -35
20 -19 22 -24 9 -24 -9 0 -16 7 -16 16 0 8 -4 12 -10 9 -5 -3 -10 0 -10 7 0 9
-3 9 -10 -2 -8 -12 -10 -12 -10 -1 0 8 8 20 18 27 21 16 30 18 15 3z m-586
-31 c-3 -8 -6 -5 -6 6 -1 11 2 17 5 13 3 -3 4 -12 1 -19z m2590 0 c-3 -8 -6
-5 -6 6 -1 11 2 17 5 13 3 -3 4 -12 1 -19z m-2549 3 c10 -6 9 -10 -7 -14 -14
-3 -21 0 -21 9 0 16 9 18 28 5z m1372 -12 c0 -11 -4 -17 -10 -14 -5 3 -10 13
-10 21 0 8 5 14 10 14 6 0 10 -9 10 -21z m1615 -8 c-3 -12 -11 -21 -16 -21
-14 0 -11 20 4 21 8 0 8 2 -2 6 -11 4 -11 7 0 14 18 11 22 5 14 -20z m44 -15
c-9 -8 -10 -7 -5 7 3 10 7 24 7 30 1 7 3 4 6 -7 3 -10 -1 -23 -8 -30z m-2959
24 c0 -5 -4 -10 -10 -10 -5 0 -10 5 -10 10 0 6 5 10 10 10 6 0 10 -4 10 -10z
m2745 -20 c3 -5 2 -10 -4 -10 -5 0 -13 5 -16 10 -3 6 -2 10 4 10 5 0 13 -4 16
-10z"/>
<path d="M1778 2833 c7 -3 16 -2 19 1 4 3 -2 6 -13 5 -11 0 -14 -3 -6 -6z"/>
<path d="M1894 2541 c4 -5 3 -11 -1 -14 -5 -2 -2 -2 5 -1 6 2 12 -2 12 -8 0
-6 2 -9 5 -6 8 8 -6 38 -17 38 -5 0 -7 -4 -4 -9z"/>
<path d="M2794 794 c3 -8 6 -18 6 -20 0 -2 5 -4 10 -4 16 0 11 27 -6 34 -12 5
-15 2 -10 -10z"/>
<path d="M2820 639 c0 -5 5 -7 10 -4 6 3 10 8 10 11 0 2 -4 4 -10 4 -5 0 -10
-5 -10 -11z"/>
<path d="M2591 713 c-1 -7 -11 -13 -23 -13 -21 -1 -22 -1 -5 -11 22 -13 42 1
34 23 -4 9 -6 10 -6 1z"/>
<path d="M2670 710 c0 -5 7 -10 16 -10 8 0 12 5 9 10 -3 6 -10 10 -16 10 -5 0
-9 -4 -9 -10z"/>
<path d="M2908 719 c-10 -5 -18 -18 -17 -27 0 -14 2 -14 6 -2 4 8 13 20 22 27
19 15 13 16 -11 2z"/>
<path d="M3070 490 c0 -5 5 -10 10 -10 6 0 10 5 10 10 0 6 -4 10 -10 10 -5 0
-10 -4 -10 -10z"/>
<path d="M2105 462 c-3 -9 -3 -13 1 -9 4 4 14 -3 22 -15 15 -20 16 -20 29 -3
15 22 17 39 3 30 -5 -3 -10 -2 -10 2 0 16 -38 12 -45 -5z"/>
<path d="M2300 233 c0 -5 11 -9 25 -9 14 -1 22 2 19 7 -6 11 -44 12 -44 2z"/>
<path d="M2365 219 c4 -6 -1 -16 -11 -24 -11 -7 -16 -17 -12 -20 10 -10 38 20
38 39 0 9 -5 16 -11 16 -5 0 -7 -5 -4 -11z"/>
<path d="M2488 423 c7 -3 16 -2 19 1 4 3 -2 6 -13 5 -11 0 -14 -3 -6 -6z"/>
<path d="M2478 273 c7 -3 16 -2 19 1 4 3 -2 6 -13 5 -11 0 -14 -3 -6 -6z"/>
<path d="M2605 209 c-4 -6 -5 -12 -2 -15 2 -3 7 2 10 11 7 17 1 20 -8 4z"/>
<path d="M3809 3972 c-13 -24 -14 -32 -3 -46 10 -15 15 -15 33 -4 12 7 21 22
22 33 0 19 1 19 9 -2 5 -12 15 -25 22 -30 7 -4 19 -18 25 -30 12 -20 8 -30
-32 -92 -25 -38 -45 -77 -45 -85 0 -20 24 -21 40 -1 11 14 14 13 26 -3 13 -19
9 -62 -6 -62 -4 0 -10 -8 -14 -17 -3 -10 -9 -24 -12 -32 -5 -10 -2 -12 9 -8
11 4 14 2 10 -9 -6 -17 -20 -18 -26 -1 -5 15 -47 -29 -47 -50 0 -7 -4 -13 -10
-13 -5 0 -7 -6 -4 -14 7 -19 -65 -116 -81 -109 -7 2 -16 0 -20 -6 -3 -6 2 -11
12 -11 17 -1 17 -1 0 -11 -9 -6 -15 -14 -12 -19 3 -5 -3 -14 -14 -19 -28 -16
-35 -13 -17 5 9 8 16 21 16 27 0 7 -11 -1 -24 -18 -23 -28 -23 -30 -5 -33 11
-2 17 -9 13 -15 -3 -7 8 3 25 22 19 22 41 35 62 37 26 3 30 1 21 -8 -7 -7 -12
-17 -12 -22 1 -13 30 24 30 37 0 5 -9 7 -20 4 -11 -3 -20 -2 -20 2 0 16 35 48
48 44 6 -3 12 2 12 10 0 9 6 22 13 29 7 7 20 25 30 41 18 27 50 36 62 16 4 -6
13 -8 21 -5 16 6 19 -10 4 -19 -6 -4 -8 -11 -4 -16 11 -18 54 53 54 88 0 31
-2 32 -20 21 -24 -15 -26 -28 -5 -28 22 0 18 -17 -5 -23 -12 -3 -18 -1 -14 5
4 6 1 13 -5 17 -8 5 -4 15 13 32 23 24 24 27 11 53 -8 16 -15 35 -15 43 0 10
-6 13 -16 9 -12 -5 -14 -1 -8 17 3 12 14 30 23 41 15 17 15 18 -4 13 -11 -4
-27 -2 -35 4 -12 8 -10 9 8 4 13 -4 22 -2 22 4 0 16 38 -10 44 -29 2 -8 4 47
5 123 l1 137 -87 0 c-86 0 -88 -1 -104 -28z m119 -258 c-3 -14 -5 -12 -10 9
-3 19 -2 25 4 19 6 -6 8 -18 6 -28z"/>
<path d="M3765 3980 c-3 -5 -1 -10 4 -10 6 0 11 5 11 10 0 6 -2 10 -4 10 -3 0
-8 -4 -11 -10z"/>
<path d="M1221 3964 c0 -11 3 -14 6 -6 3 7 2 16 -1 19 -3 4 -6 -2 -5 -13z"/>
<path d="M81 3954 c0 -11 3 -14 6 -6 3 7 2 16 -1 19 -3 4 -6 -2 -5 -13z"/>
<path d="M51 3950 c-1 -8 -4 -26 -7 -40 -5 -22 -4 -23 6 -7 6 10 9 28 7 40 -2
12 -5 15 -6 7z"/>
<path d="M11 3934 c0 -11 3 -14 6 -6 3 7 2 16 -1 19 -3 4 -6 -2 -5 -13z"/>
<path d="M1401 3943 c-1 -6 -4 -20 -7 -30 -5 -17 -5 -17 6 0 6 10 9 23 6 30
-3 9 -5 9 -5 0z"/>
<path d="M1851 3924 c0 -11 3 -14 6 -6 3 7 2 16 -1 19 -3 4 -6 -2 -5 -13z"/>
<path d="M1271 3904 c0 -11 3 -14 6 -6 3 7 2 16 -1 19 -3 4 -6 -2 -5 -13z"/>
<path d="M1621 3904 c0 -11 3 -14 6 -6 3 7 2 16 -1 19 -3 4 -6 -2 -5 -13z"/>
<path d="M3782 3888 c-14 -14 -16 -48 -3 -48 5 0 11 8 15 18 3 9 9 23 12 30 7
15 -8 16 -24 0z"/>
<path d="M3827 3882 c-19 -21 -22 -42 -7 -42 6 0 10 9 10 21 0 11 5 17 10 14
6 -3 10 1 10 9 0 20 -3 20 -23 -2z"/>
<path d="M70 3839 c0 -24 5 -51 10 -59 6 -10 8 3 4 40 -6 67 -14 78 -14 19z"/>
<path d="M1711 3834 c0 -11 3 -14 6 -6 3 7 2 16 -1 19 -3 4 -6 -2 -5 -13z"/>
<path d="M23 3800 c0 -25 2 -35 4 -22 2 12 2 32 0 45 -2 12 -4 2 -4 -23z"/>
<path d="M101 3795 c1 -40 1 -40 10 -10 5 18 5 33 -1 39 -7 7 -10 -4 -9 -29z"/>
<path d="M1371 3804 c0 -11 3 -14 6 -6 3 7 2 16 -1 19 -3 4 -6 -2 -5 -13z"/>
<path d="M51 3784 c0 -11 3 -14 6 -6 3 7 2 16 -1 19 -3 4 -6 -2 -5 -13z"/>
<path d="M127 3785 c-4 -8 -2 -17 3 -20 6 -4 10 3 10 14 0 25 -6 27 -13 6z"/>
<path d="M1711 3764 c0 -11 3 -14 6 -6 3 7 2 16 -1 19 -3 4 -6 -2 -5 -13z"/>
<path d="M3681 3744 c0 -11 3 -14 6 -6 3 7 2 16 -1 19 -3 4 -6 -2 -5 -13z"/>
<path d="M63 3705 c0 -22 2 -30 4 -17 2 12 2 30 0 40 -3 9 -5 -1 -4 -23z"/>
<path d="M31 3686 c-1 -26 2 -37 9 -30 6 6 6 21 1 39 -9 30 -9 30 -10 -9z"/>
<path d="M1666 3675 c-9 -26 -7 -32 5 -12 6 10 9 21 6 23 -2 3 -7 -2 -11 -11z"/>
<path d="M103 3645 c0 -22 2 -30 4 -17 2 12 2 30 0 40 -3 9 -5 -1 -4 -23z"/>
<path d="M3507 3620 c-18 -21 -23 -45 -8 -36 5 4 11 3 14 -1 2 -5 2 -2 1 5 -5
19 7 43 19 35 6 -3 7 -1 3 5 -9 15 -9 15 -29 -8z"/>
<path d="M1735 3560 c3 -5 8 -10 11 -10 2 0 4 5 4 10 0 6 -5 10 -11 10 -5 0
-7 -4 -4 -10z"/>
<path d="M3295 3531 c-20 -29 -24 -44 -17 -57 8 -15 10 -15 24 5 8 11 17 18
21 15 3 -3 11 -3 17 1 8 5 5 11 -7 20 -17 13 -17 13 2 12 11 -1 21 5 23 15 3
14 -1 16 -14 11 -12 -4 -15 -3 -10 5 4 7 3 12 -2 12 -5 0 -22 -18 -37 -39z"/>
<path d="M3495 3520 c-4 -17 -14 -34 -22 -39 -11 -6 -14 -14 -8 -27 8 -18 8
-18 13 1 2 11 7 22 11 25 3 3 13 14 23 25 13 17 14 22 3 32 -11 10 -15 7 -20
-17z"/>
<path d="M3921 3474 c0 -11 3 -14 6 -6 3 7 2 16 -1 19 -3 4 -6 -2 -5 -13z"/>
<path d="M3877 3473 c-13 -12 -7 -23 13 -23 11 0 20 7 20 15 0 15 -21 21 -33
8z"/>
<path d="M52 3440 c0 -19 2 -27 5 -17 2 9 2 25 0 35 -3 9 -5 1 -5 -18z"/>
<path d="M3242 3454 c-7 -8 -8 -14 -3 -14 10 0 25 19 20 25 -2 1 -10 -3 -17
-11z"/>
<path d="M163 3410 c0 -25 2 -35 4 -22 2 12 2 32 0 45 -2 12 -4 2 -4 -23z"/>
<path d="M3270 3438 c0 -25 13 -27 33 -6 9 10 13 18 8 18 -6 0 -13 -5 -17 -11
-4 -8 -9 -7 -15 2 -7 11 -9 10 -9 -3z"/>
<path d="M2950 3408 c-7 -18 -13 -42 -12 -53 0 -11 -2 -14 -4 -7 -3 6 -9 12
-14 12 -12 0 -23 -57 -13 -72 10 -17 5 -46 -14 -75 -10 -15 -11 -23 -4 -23 6
0 14 7 18 16 3 8 11 13 17 11 7 -3 23 4 37 14 14 11 18 19 10 19 -9 0 -6 7 9
20 13 11 20 23 15 28 -4 4 -10 1 -12 -5 -10 -27 -33 -13 -33 20 1 28 2 30 11
13 9 -15 13 -16 20 -5 8 12 11 12 20 -1 9 -12 10 -11 4 5 -4 11 -12 41 -18 68
-7 26 -14 47 -17 47 -3 0 -12 -15 -20 -32z m27 -60 c-3 -8 -6 -5 -6 6 -1 11 2
17 5 13 3 -3 4 -12 1 -19z m-27 -104 c0 -8 -5 -12 -10 -9 -6 4 -8 11 -5 16 9
14 15 11 15 -7z"/>
<path d="M3890 3421 c0 -12 -4 -21 -10 -21 -5 0 -10 -8 -10 -17 0 -14 3 -14
20 5 22 23 25 38 10 47 -5 3 -10 -3 -10 -14z"/>
<path d="M1565 3350 c3 -5 10 -10 16 -10 5 0 9 5 9 10 0 6 -7 10 -16 10 -8 0
-12 -4 -9 -10z"/>
<path d="M2874 3286 c-3 -8 -2 -22 3 -31 8 -13 10 -10 10 14 0 34 -5 39 -13
17z"/>
<path d="M3650 3295 c-1 -5 -2 -13 -1 -17 0 -5 -3 -8 -9 -8 -5 0 -10 5 -10 12
0 6 -2 9 -5 6 -3 -3 -2 -16 3 -29 l9 -23 12 22 c7 13 10 28 7 35 -2 7 -5 8 -6
2z"/>
<path d="M3161 3272 c0 -7 -10 -23 -22 -35 -26 -28 -52 -77 -41 -77 19 0 73
81 69 103 -2 12 -5 16 -6 9z"/>
<path d="M3030 3247 c0 -8 -9 -22 -20 -32 -11 -10 -20 -23 -20 -28 0 -5 -18
-38 -40 -73 -22 -35 -36 -64 -31 -64 5 0 12 7 15 17 13 33 98 153 105 148 5
-2 6 7 3 20 -5 27 -12 34 -12 12z"/>
<path d="M1656 3230 c7 -28 12 -35 18 -29 2 2 -2 15 -10 29 l-15 25 7 -25z"/>
<path d="M2850 3242 c0 -5 7 -15 15 -22 8 -7 15 -9 15 -6 0 4 -7 14 -15 22 -8
9 -15 11 -15 6z"/>
<path d="M3778 3220 c-33 -34 -34 -40 -8 -40 12 0 20 6 18 13 -1 6 3 22 10 35
16 29 13 27 -20 -8z"/>
<path d="M3170 3211 c0 -17 -55 -78 -68 -73 -7 2 -10 -2 -7 -11 3 -7 -1 -20
-10 -27 -8 -7 -15 -20 -16 -29 0 -9 -8 4 -18 29 -13 31 -16 49 -9 57 6 7 14
11 18 8 5 -3 6 4 3 15 -5 19 -7 19 -27 6 -11 -8 -20 -19 -18 -25 1 -7 -5 -14
-13 -17 -8 -3 -12 -10 -9 -15 7 -12 -21 -51 -31 -41 -5 4 -5 2 -2 -4 6 -11
-62 -117 -91 -141 -9 -8 -11 -11 -4 -8 12 6 12 3 1 -16 -24 -45 -66 -98 -73
-91 -4 3 -4 -1 -1 -9 3 -9 -3 -23 -15 -34 -11 -10 -20 -24 -20 -32 0 -7 -4
-13 -9 -13 -5 0 -13 -10 -17 -22 -3 -13 -26 -46 -49 -73 -38 -45 -42 -53 -31
-73 7 -13 15 -20 18 -16 4 3 4 -3 2 -13 -3 -11 2 -46 11 -79 9 -32 22 -81 29
-108 l12 -48 39 58 c21 33 64 93 94 134 31 41 64 86 74 100 98 141 197 265
210 264 9 -1 14 3 11 8 -3 5 -12 7 -19 4 -25 -9 -25 46 1 77 26 30 29 44 15
65 -6 10 -14 4 -32 -24 l-23 -38 -10 31 c-7 27 -5 37 18 65 14 18 30 38 35 44
22 27 50 124 35 124 -2 0 -4 -4 -4 -9z"/>
<path d="M2856 3178 c-9 -30 -21 -36 -30 -15 -3 6 -5 -3 -3 -20 2 -18 -1 -34
-6 -36 -6 -2 -11 -16 -13 -32 l-3 -30 20 33 c12 17 27 32 35 32 8 0 11 6 8 15
-4 9 4 23 17 35 15 12 18 18 7 14 -11 -3 -18 1 -21 13 -3 14 -5 12 -11 -9z"/>
<path d="M3180 3179 c0 -5 5 -7 10 -4 6 3 10 8 10 11 0 2 -4 4 -10 4 -5 0 -10
-5 -10 -11z"/>
<path d="M3816 3155 c4 -8 8 -15 10 -15 2 0 4 7 4 15 0 8 -4 15 -10 15 -5 0
-7 -7 -4 -15z"/>
<path d="M3230 3141 c-13 -25 -14 -52 0 -31 5 8 11 12 14 9 3 -3 -9 -27 -27
-54 -53 -80 -59 -93 -49 -112 8 -13 19 -3 66 60 l56 77 -14 35 c-17 39 -30 44
-46 16z"/>
<path d="M3746 3145 c-3 -8 -1 -15 4 -15 6 0 10 7 10 15 0 8 -2 15 -4 15 -2 0
-6 -7 -10 -15z"/>
<path d="M2891 3141 c-8 -5 -9 -11 -3 -15 5 -3 12 1 16 9 6 17 6 18 -13 6z"/>
<path d="M3440 3130 c-1 -22 -2 -23 -13 -8 -12 15 -14 15 -26 -4 -7 -11 -10
-23 -7 -26 3 -3 6 0 6 7 0 8 10 11 30 7 31 -4 38 6 20 34 -8 12 -10 10 -10
-10z"/>
<path d="M2765 3090 c-3 -5 -1 -10 4 -10 6 0 11 5 11 10 0 6 -2 10 -4 10 -3 0
-8 -4 -11 -10z"/>
<path d="M3402 3067 c-20 -19 -24 -20 -33 -7 -9 12 -10 12 -5 -3 3 -10 7 -31
7 -45 1 -27 1 -27 8 3 4 20 12 30 24 29 9 -1 14 3 11 8 -4 6 0 14 7 19 7 4 11
10 8 13 -3 3 -15 -5 -27 -17z"/>
<path d="M2496 3025 c-16 -30 -33 -55 -38 -55 -5 0 -6 5 -3 10 3 6 4 10 1 10
-3 0 -10 -9 -16 -20 -9 -16 -8 -18 5 -14 20 8 19 0 -8 -44 -12 -20 -28 -50
-36 -67 -7 -16 -17 -37 -22 -45 -29 -49 -33 -110 -7 -110 6 0 7 -11 4 -26 -4
-14 -3 -31 2 -37 5 -7 12 -29 16 -49 4 -21 10 -40 15 -42 4 -3 29 32 54 77 69
121 81 141 88 147 3 3 17 26 31 52 l27 48 -21 67 c-30 100 -50 153 -57 153 -3
0 -19 -25 -35 -55z m41 -37 c-3 -8 -6 -5 -6 6 -1 11 2 17 5 13 3 -3 4 -12 1
-19z m-24 -23 c-3 -9 -8 -14 -10 -11 -3 3 -2 9 2 15 9 16 15 13 8 -4z m20 -15
c-3 -12 -8 -19 -11 -16 -5 6 5 36 12 36 2 0 2 -9 -1 -20z m-19 -26 c3 -8 2
-12 -4 -9 -6 3 -10 10 -10 16 0 14 7 11 14 -7z m-28 -66 c-24 -47 -36 -62 -36
-46 0 9 5 20 11 23 6 4 8 14 5 22 -3 8 -1 11 5 8 6 -4 8 4 4 22 -5 26 -5 26 6
6 6 -12 9 -28 5 -35z m-50 -42 c0 -13 -3 -23 -5 -20 -2 2 -10 -4 -18 -14 -8
-10 -7 -3 4 21 9 20 18 37 19 37 1 0 1 -11 0 -24z m74 -1 c0 -8 -2 -15 -4 -15
-2 0 -6 7 -10 15 -3 8 -1 15 4 15 6 0 10 -7 10 -15z m-29 -28 c-10 -9 -11 -8
-5 6 3 10 9 15 12 12 3 -3 0 -11 -7 -18z m22 -14 c-7 -3 -13 -14 -13 -26 0
-20 0 -20 -14 -2 -12 17 -11 21 8 30 11 7 23 10 26 7 3 -3 -1 -7 -7 -9z m-43
-43 c0 -11 -4 -20 -9 -20 -5 0 -7 9 -4 20 3 11 7 20 9 20 2 0 4 -9 4 -20z"/>
<path d="M2831 3048 c-1 -10 -9 -18 -18 -18 -15 0 -16 -2 -3 -10 17 -10 35 12
26 33 -2 7 -5 4 -5 -5z"/>
<path d="M2397 2974 c-30 -59 -35 -79 -26 -88 9 -8 10 -8 5 1 -4 7 3 14 15 18
16 5 18 9 9 15 -7 4 -9 13 -5 20 6 9 10 9 17 -1 8 -11 9 -11 5 1 -2 8 7 30 21
49 14 19 20 31 13 26 -10 -5 -11 -2 -6 14 15 48 -13 16 -48 -55z"/>
<path d="M2770 3025 c0 -8 5 -15 10 -15 6 0 10 7 10 15 0 8 -4 15 -10 15 -5 0
-10 -7 -10 -15z"/>
<path d="M2687 2971 c-4 -17 -2 -18 14 -8 22 14 25 27 5 27 -7 0 -16 -9 -19
-19z"/>
<path d="M2746 2965 c-3 -8 -1 -15 4 -15 6 0 10 7 10 15 0 8 -2 15 -4 15 -2 0
-6 -7 -10 -15z"/>
<path d="M2710 2954 c0 -3 7 -12 15 -20 16 -17 18 -14 9 10 -6 15 -24 23 -24
10z"/>
<path d="M908 2863 c7 -3 16 -2 19 1 4 3 -2 6 -13 5 -11 0 -14 -3 -6 -6z"/>
<path d="M2675 2860 c-3 -5 -2 -10 4 -10 5 0 13 5 16 10 3 6 2 10 -4 10 -5 0
-13 -4 -16 -10z"/>
<path d="M2780 2850 c-6 -11 -8 -20 -6 -20 3 0 10 9 16 20 6 11 8 20 6 20 -3
0 -10 -9 -16 -20z"/>
<path d="M3280 2851 c0 -5 -12 -24 -26 -41 -15 -17 -24 -34 -20 -37 3 -4 7 -4
9 -2 2 2 15 21 30 41 29 40 32 48 17 48 -5 0 -10 -4 -10 -9z"/>
<path d="M2630 2810 c-12 -8 -10 -10 8 -10 13 0 20 4 17 10 -7 12 -6 12 -25 0z"/>
<path d="M3182 2798 c-7 -7 -12 -16 -12 -21 0 -5 7 -1 16 8 9 9 14 18 12 20
-2 3 -10 -1 -16 -7z"/>
<path d="M3300 2788 c0 -9 5 -20 10 -23 13 -8 13 5 0 25 -8 13 -10 13 -10 -2z"/>
<path d="M3648 2733 c-38 -36 -68 -69 -68 -73 0 -14 -48 -59 -55 -52 -4 4 -3
-3 3 -14 6 -12 8 -24 4 -28 -3 -4 1 -4 11 0 10 3 16 14 15 22 -2 9 2 17 7 17
19 1 35 16 29 27 -4 6 -2 8 4 4 6 -3 28 15 49 41 21 27 48 56 61 66 21 17 31
57 15 57 -5 0 -38 -30 -75 -67z m2 -27 c0 -3 -4 -8 -10 -11 -5 -3 -10 -1 -10
4 0 6 5 11 10 11 6 0 10 -2 10 -4z"/>
<path d="M2600 2769 c0 -5 5 -7 10 -4 6 3 10 8 10 11 0 2 -4 4 -10 4 -5 0 -10
-5 -10 -11z"/>
<path d="M2296 2753 c-6 -14 -5 -15 5 -6 7 7 10 15 7 18 -3 3 -9 -2 -12 -12z"/>
<path d="M171 2744 c0 -11 3 -14 6 -6 3 7 2 16 -1 19 -3 4 -6 -2 -5 -13z"/>
<path d="M2705 2734 c-9 -15 -12 -23 -6 -20 11 7 35 46 28 46 -3 0 -12 -12
-22 -26z"/>
<path d="M171 2704 c0 -11 3 -14 6 -6 3 7 2 16 -1 19 -3 4 -6 -2 -5 -13z"/>
<path d="M3393 2693 c-10 -16 -24 -33 -32 -39 -11 -8 -11 -15 -2 -33 10 -18
15 -20 27 -10 32 26 55 69 49 89 -9 27 -21 25 -42 -7z"/>
<path d="M232 2625 c0 -16 2 -22 5 -12 2 9 2 23 0 30 -3 6 -5 -1 -5 -18z"/>
<path d="M3326 2607 c-12 -17 -14 -31 -8 -47 6 -17 11 -20 17 -11 4 8 2 17 -6
23 -11 8 -11 9 2 5 9 -3 22 -2 29 3 10 6 10 12 -3 30 l-15 22 -16 -25z"/>
<path d="M3985 2570 c-3 -5 -3 -10 2 -11 4 0 -1 -4 -12 -9 -16 -7 -17 -9 -3
-9 12 -1 15 -7 11 -23 -3 -13 -2 -20 2 -15 9 8 18 77 10 77 -2 0 -7 -4 -10
-10z"/>
<path d="M171 2544 c0 -11 3 -14 6 -6 3 7 2 16 -1 19 -3 4 -6 -2 -5 -13z"/>
<path d="M242 2410 c0 -69 3 -136 7 -150 4 -14 5 34 4 105 -5 176 -10 198 -11
45z"/>
<path d="M3286 2513 c-6 -14 -5 -15 5 -6 7 7 10 15 7 18 -3 3 -9 -2 -12 -12z"/>
<path d="M2585 2503 c-5 -10 -9 -20 -9 -23 -1 -3 -19 -32 -41 -65 -22 -33 -44
-68 -50 -76 -24 -39 -51 -76 -72 -99 -25 -27 -29 -40 -13 -40 5 0 7 -6 4 -14
-3 -8 1 -27 9 -43 8 -15 12 -33 10 -39 -2 -6 6 -32 17 -59 11 -26 18 -56 15
-66 -4 -11 -2 -19 4 -19 13 0 69 85 78 118 10 42 53 102 78 108 13 3 31 21 41
39 17 33 17 35 -16 157 -35 132 -43 149 -55 121z"/>
<path d="M2436 2493 c-6 -14 -5 -15 5 -6 7 7 10 15 7 18 -3 3 -9 -2 -12 -12z"/>
<path d="M2923 2389 c-2 -23 3 -25 10 -4 4 8 3 16 -1 19 -4 3 -9 -4 -9 -15z"/>
<path d="M2411 2384 c0 -11 3 -14 6 -6 3 7 2 16 -1 19 -3 4 -6 -2 -5 -13z"/>
<path d="M291 2358 c-4 -13 -5 -43 -2 -68 l7 -45 16 36 c30 68 30 77 8 89 -17
9 -21 7 -29 -12z"/>
<path d="M2861 2337 c-13 -21 -12 -21 5 -5 10 10 16 20 13 22 -3 3 -11 -5 -18
-17z"/>
<path d="M191 2334 c0 -11 3 -14 6 -6 3 7 2 16 -1 19 -3 4 -6 -2 -5 -13z"/>
<path d="M3546 2306 c-18 -29 -21 -46 -6 -46 6 0 10 8 10 18 0 10 5 23 12 30
6 6 9 14 6 17 -3 3 -13 -6 -22 -19z"/>
<path d="M3846 2283 c-6 -14 -5 -15 5 -6 7 7 10 15 7 18 -3 3 -9 -2 -12 -12z"/>
<path d="M252 2195 c0 -16 2 -22 5 -12 2 9 2 23 0 30 -3 6 -5 -1 -5 -18z"/>
<path d="M1100 2199 c0 -5 5 -7 10 -4 6 3 10 8 10 11 0 2 -4 4 -10 4 -5 0 -10
-5 -10 -11z"/>
<path d="M2649 2073 c-13 -16 -12 -17 4 -4 16 13 21 21 13 21 -2 0 -10 -8 -17
-17z"/>
<path d="M2696 1937 l-28 -37 15 -58 c8 -31 27 -102 42 -157 15 -55 40 -152
56 -215 39 -151 38 -149 49 -129 10 17 10 14 -50 239 -84 312 -83 310 -65 330
9 10 15 29 13 42 -3 22 -5 21 -32 -15z"/>
<path d="M2545 1940 c-3 -5 -1 -10 4 -10 6 0 11 5 11 10 0 6 -2 10 -4 10 -3 0
-8 -4 -11 -10z"/>
<path d="M2221 1924 c0 -11 3 -14 6 -6 3 7 2 16 -1 19 -3 4 -6 -2 -5 -13z"/>
<path d="M3430 1932 c0 -21 203 -627 207 -616 3 10 -193 612 -203 623 -2 2 -4
-1 -4 -7z"/>
<path d="M2515 1899 c-4 -6 -5 -12 -2 -15 2 -3 7 2 10 11 7 17 1 20 -8 4z"/>
<path d="M2231 1884 c0 -11 3 -14 6 -6 3 7 2 16 -1 19 -3 4 -6 -2 -5 -13z"/>
<path d="M989 1863 c-1 -5 -1 -11 0 -15 0 -5 -4 -8 -11 -8 -9 0 -9 -3 0 -12
10 -10 15 -10 22 2 13 20 13 40 0 40 -5 0 -11 -3 -11 -7z"/>
<path d="M817 1843 c-4 -3 -7 -11 -7 -17 0 -6 5 -5 12 2 6 6 9 14 7 17 -3 3
-9 2 -12 -2z"/>
<path d="M1103 1800 c-4 -14 -14 -20 -33 -20 -16 0 -30 -5 -32 -12 -3 -7 -20
-13 -39 -13 -74 -3 -89 -5 -89 -16 0 -7 11 -9 29 -6 27 6 30 3 36 -23 6 -27
35 -44 35 -20 0 6 8 10 19 10 10 0 24 7 31 15 16 19 30 19 30 1 0 -10 10 -14
30 -14 28 1 45 18 18 18 -9 0 -9 3 0 12 16 16 15 28 -3 28 -8 0 -15 7 -15 15
0 18 17 20 22 3 2 -6 10 -8 17 -4 9 6 8 12 -5 27 -22 25 -45 24 -51 -1z"/>
<path d="M1007 1794 c-3 -3 -3 -12 0 -20 4 -11 9 -12 19 -3 8 6 11 15 8 20 -6
10 -18 12 -27 3z"/>
<path d="M1160 1730 c0 -5 7 -10 15 -10 8 0 15 5 15 10 0 6 -7 10 -15 10 -8 0
-15 -4 -15 -10z"/>
<path d="M1550 1729 c0 -5 5 -7 10 -4 6 3 10 8 10 11 0 2 -4 4 -10 4 -5 0 -10
-5 -10 -11z"/>
<path d="M1556 1675 c4 -8 8 -15 10 -15 2 0 4 7 4 15 0 8 -4 15 -10 15 -5 0
-7 -7 -4 -15z"/>
<path d="M2151 1665 c0 -11 6 -42 13 -70 8 -27 14 -41 14 -30 0 29 -25 124
-27 100z"/>
<path d="M781 1654 c0 -11 3 -14 6 -6 3 7 2 16 -1 19 -3 4 -6 -2 -5 -13z"/>
<path d="M1057 1626 c-14 -11 -15 -15 -3 -19 8 -3 16 2 19 14 3 10 4 19 4 19
-1 0 -10 -7 -20 -14z"/>
<path d="M770 1615 c0 -8 5 -15 10 -15 6 0 10 7 10 15 0 8 -4 15 -10 15 -5 0
-10 -7 -10 -15z"/>
<path d="M2541 1570 c0 -8 4 -22 9 -30 12 -18 12 -2 0 25 -6 13 -9 15 -9 5z"/>
<path d="M2182 1515 c0 -16 2 -22 5 -12 2 9 2 23 0 30 -3 6 -5 -1 -5 -18z"/>
<path d="M2192 1460 c0 -14 2 -19 5 -12 2 6 2 18 0 25 -3 6 -5 1 -5 -13z"/>
<path d="M2571 1454 c0 -11 3 -14 6 -6 3 7 2 16 -1 19 -3 4 -6 -2 -5 -13z"/>
<path d="M3615 1450 c-3 -5 -1 -10 4 -10 6 0 11 5 11 10 0 6 -2 10 -4 10 -3 0
-8 -4 -11 -10z"/>
<path d="M2591 1375 c1 -19 18 -51 18 -35 0 8 -4 22 -9 30 -5 8 -9 11 -9 5z"/>
<path d="M531 1362 c-1 -7 -6 -10 -12 -7 -15 10 -37 -24 -32 -49 3 -19 3 -19
-8 2 -12 22 -29 30 -29 12 0 -5 -7 -7 -15 -4 -9 4 -18 -1 -21 -11 -4 -9 -13
-14 -22 -10 -12 4 -12 3 -3 -9 10 -11 9 -16 -5 -24 -10 -6 -15 -16 -11 -25 4
-11 2 -14 -9 -10 -8 3 -30 -7 -48 -21 -19 -14 -40 -26 -46 -26 -6 0 -8 -5 -5
-10 4 -6 11 -8 16 -5 13 9 11 -9 -3 -24 -11 -11 -9 -12 10 -6 19 5 22 3 22
-19 0 -33 -46 -86 -69 -80 -13 5 -13 4 2 -6 9 -6 21 -9 26 -5 5 3 12 -1 14 -7
5 -12 11 16 8 35 0 4 4 7 9 7 6 0 10 -5 10 -11 0 -6 8 -8 18 -5 13 4 18 1 18
-14 0 -11 -7 -20 -14 -20 -11 0 -12 -3 -3 -14 9 -11 8 -15 -5 -20 -25 -10 -34
-7 -34 9 0 8 -5 15 -11 15 -5 0 -7 -5 -4 -10 4 -6 1 -18 -6 -26 -10 -12 -9
-13 3 -9 17 7 34 -25 19 -34 -6 -4 -6 -12 -1 -21 14 -22 12 -30 -5 -24 -8 4
-15 15 -15 26 0 14 -5 18 -16 14 -8 -3 -12 -2 -9 4 4 6 -14 9 -47 9 -29 -1
-41 -4 -27 -6 21 -3 27 -9 25 -29 -1 -19 -5 -24 -19 -20 -16 4 -16 2 -5 -12
11 -15 11 -15 -3 -5 -9 7 -20 9 -24 5 -5 -4 -5 -1 -1 6 4 7 0 24 -8 37 -12 19
-13 25 -4 25 9 0 8 3 -2 10 -11 7 -7 10 20 11 34 1 34 1 -9 10 -24 5 -48 6
-52 3 -11 -6 -12 17 -1 32 7 11 36 25 60 30 8 1 17 6 20 10 4 4 -1 4 -10 1
-27 -10 -21 0 10 18 26 15 26 16 2 9 -14 -3 -32 -14 -42 -25 -19 -22 -28 -24
-28 -6 0 7 11 21 25 31 14 10 25 23 25 29 0 6 -10 1 -23 -11 -29 -27 -53 -15
-43 22 5 19 3 26 -9 26 -8 0 -14 -5 -13 -11 2 -6 -4 -14 -12 -16 -9 -3 -11 -1
-5 4 13 10 13 29 0 42 -12 12 -13 -39 -1 -57 4 -7 4 -16 1 -22 -3 -5 0 -10 7
-10 9 0 9 -3 -2 -10 -20 -13 -28 -12 -33 3 -2 6 -2 0 0 -15 3 -16 0 -28 -5
-28 -13 0 -13 -129 0 -153 8 -16 8 -22 -1 -25 -16 -5 -13 -113 4 -136 13 -17
13 -22 -3 -39 -15 -18 -15 -20 -1 -14 13 4 16 1 12 -16 -5 -18 -3 -20 8 -9 19
17 29 15 29 -7 0 -28 -22 -31 -42 -7 -17 21 -17 21 -18 -6 0 -25 4 -28 33 -30
17 0 44 0 59 1 18 1 30 -5 38 -19 11 -20 9 -21 -18 -19 -18 2 -36 -3 -47 -15
-11 -11 -27 -16 -42 -13 -24 4 -24 4 -22 -79 1 -46 5 -84 10 -84 4 0 7 -14 7
-30 -1 -39 9 -48 26 -24 12 16 13 22 1 40 -8 13 -10 26 -4 35 7 11 9 9 9 -8 0
-14 6 -23 15 -23 8 0 12 6 9 13 -3 8 4 13 16 14 12 1 30 12 41 25 11 13 18 17
14 11 -3 -7 -1 -13 5 -13 6 0 9 -4 5 -9 -3 -6 4 -9 15 -8 11 1 20 5 20 9 0 5
12 6 28 3 15 -3 21 -2 12 2 -21 11 -17 49 8 76 l21 22 -34 -1 c-19 -1 -53 3
-76 9 -32 8 -38 12 -25 19 10 6 24 3 41 -8 14 -9 25 -12 25 -6 0 5 -8 12 -19
15 -14 3 -17 11 -14 31 4 19 2 26 -8 24 -7 -2 -13 6 -13 17 0 11 5 19 12 17 7
-1 15 5 19 13 5 13 8 12 21 -6 12 -17 12 -23 2 -29 -7 -4 -10 -15 -6 -25 5
-15 7 -15 22 -1 14 14 34 14 34 0 0 -3 -5 -2 -12 2 -7 4 -8 3 -4 -4 4 -7 14
-12 23 -12 10 0 14 -6 10 -20 -3 -11 -2 -20 3 -20 12 0 17 21 15 58 -1 21 3
36 12 39 7 3 13 9 13 15 0 5 -4 6 -10 3 -9 -6 -15 16 -11 39 1 4 -10 5 -24 2
-16 -4 -25 -2 -25 5 0 7 -3 10 -6 6 -6 -6 -34 16 -34 27 0 3 11 1 24 -4 13 -5
27 -6 31 -2 3 3 10 0 16 -8 8 -13 10 -13 18 0 5 8 7 18 5 22 -3 4 2 8 10 8 10
0 14 9 13 28 -2 28 -18 52 -36 52 -6 0 -11 5 -11 10 0 6 -5 9 -12 8 -6 -2 -13
6 -15 17 -3 14 -1 16 5 7 10 -15 45 -5 35 11 -3 6 -1 7 5 3 7 -4 12 -14 12
-22 0 -8 7 -14 16 -14 8 0 13 4 10 9 -4 5 6 14 21 20 27 11 27 11 3 6 -22 -4
-26 0 -28 20 -1 14 2 25 7 25 5 0 17 24 27 53 9 28 21 58 27 66 6 7 12 19 13
27 1 7 12 27 23 43 12 16 21 34 21 39 0 6 5 12 11 14 5 2 11 10 12 19 2 9 11
29 22 45 24 36 67 163 61 178 -3 7 -5 6 -5 -2z m-121 -122 c0 -5 -4 -10 -9
-10 -6 0 -13 5 -16 10 -3 6 1 10 9 10 9 0 16 -4 16 -10z m-71 -55 c-21 -36
-48 -40 -29 -5 8 15 35 38 47 40 1 0 -7 -16 -18 -35z m15 -43 c-6 -31 -34 -46
-34 -19 0 15 30 60 36 54 2 -2 1 -18 -2 -35z m-269 -112 c3 -5 4 -10 1 -10 -2
0 -11 -3 -19 -6 -8 -3 -17 2 -20 10 -7 18 27 23 38 6z m15 -105 c0 -8 -4 -16
-9 -19 -5 -3 -8 5 -7 18 1 25 16 26 16 1z m159 -71 c-12 -14 -14 -14 -19 2 -4
10 -2 24 4 30 17 18 31 -13 15 -32z m-189 -16 c19 -36 20 -42 6 -50 -36 -20
-47 -40 -40 -71 5 -26 4 -29 -7 -16 -15 15 -19 82 -6 95 4 5 12 2 17 -6 18
-28 24 20 7 50 -14 22 -14 40 -1 40 1 0 12 -19 24 -42z m62 -22 c-3 -5 0 -6 7
-2 7 5 10 15 6 25 -5 12 -4 13 6 4 8 -8 18 -9 31 -2 10 5 18 6 18 2 0 -4 4 -1
10 7 17 28 19 4 2 -33 -19 -40 -32 -47 -32 -17 0 24 -27 27 -32 4 -3 -13 -6
-13 -27 5 -13 12 -19 21 -13 21 7 0 11 3 11 8 -3 20 3 25 10 7 5 -11 6 -24 3
-29z m113 -36 c11 -13 14 -20 6 -20 -13 0 -41 24 -41 34 0 12 18 5 35 -14z
m-118 -14 c-13 -15 -27 -12 -27 5 0 6 5 7 10 4 6 -3 10 -1 10 5 0 6 4 8 10 5
6 -4 5 -11 -3 -19z m-17 -38 c0 -4 -7 -5 -15 -2 -8 4 -15 10 -15 14 0 5 -3 17
-6 27 -4 13 0 11 15 -7 11 -14 21 -28 21 -32z m-43 6 c-3 -4 -1 -16 5 -28 11
-21 11 -21 -10 -2 -21 19 -21 36 0 36 6 0 8 -3 5 -6z m217 -10 c3 -8 2 -12 -4
-9 -6 3 -10 10 -10 16 0 14 7 11 14 -7z m-24 -4 c0 -5 -2 -10 -4 -10 -3 0 -8
5 -11 10 -3 6 -1 10 4 10 6 0 11 -4 11 -10z m-133 -45 c16 -36 1 -39 -19 -4
-12 20 -13 29 -5 29 7 0 17 -11 24 -25z m-17 -39 c0 -2 -7 -7 -16 -10 -8 -3
-12 -2 -9 4 6 10 25 14 25 6z m-58 -158 c-7 -7 -12 -8 -12 -2 0 14 12 26 19
19 2 -3 -1 -11 -7 -17z m38 -32 c0 -3 -4 -8 -10 -11 -5 -3 -10 -1 -10 4 0 6 5
11 10 11 6 0 10 -2 10 -4z m97 -18 c-3 -8 -6 -5 -6 6 -1 11 2 17 5 13 3 -3 4
-12 1 -19z m-83 -34 c4 -11 1 -14 -11 -12 -10 2 -19 11 -21 21 -4 21 24 13 32
-9z"/>
<path d="M3642 1290 c3 -8 33 -103 68 -210 35 -107 73 -222 86 -255 12 -33 32
-91 44 -130 12 -38 51 -157 86 -262 35 -106 64 -200 65 -210 0 -12 2 -14 6 -5
5 14 -34 168 -47 187 -4 6 -12 26 -18 45 -68 223 -277 838 -288 848 -4 4 -5 0
-2 -8z"/>
<path d="M2600 1260 c-12 -8 -9 -10 12 -10 14 0 28 -6 31 -12 3 -7 4 -3 4 10
-1 23 -21 29 -47 12z"/>
<path d="M3400 1170 c0 -8 5 -22 10 -30 9 -13 10 -13 10 0 0 8 -5 22 -10 30
-9 13 -10 13 -10 0z"/>
<path d="M2960 1150 c8 -5 20 -10 25 -10 6 0 3 5 -5 10 -8 5 -19 10 -25 10 -5
0 -3 -5 5 -10z"/>
<path d="M4 1115 c-9 -37 0 -40 13 -5 6 17 7 30 2 30 -5 0 -11 -11 -15 -25z"/>
<path d="M210 1130 c0 -6 7 -10 15 -10 8 0 15 2 15 4 0 2 -7 6 -15 10 -8 3
-15 1 -15 -4z"/>
<path d="M2938 1119 c-17 -18 -17 -19 6 -17 17 2 22 7 18 20 -2 10 -5 18 -6
17 0 0 -9 -9 -18 -20z"/>
<path d="M117 1116 c-4 -10 -1 -13 8 -9 8 3 12 9 9 14 -7 12 -11 11 -17 -5z"/>
<path d="M3421 1104 c0 -11 3 -14 6 -6 3 7 2 16 -1 19 -3 4 -6 -2 -5 -13z"/>
<path d="M189 1093 c-13 -15 -12 -15 9 -4 23 12 47 6 37 -10 -6 -9 22 -25 30
-17 8 7 -35 48 -49 48 -8 0 -20 -7 -27 -17z"/>
<path d="M3450 1075 c0 -8 4 -15 10 -15 5 0 7 7 4 15 -4 8 -8 15 -10 15 -2 0
-4 -7 -4 -15z"/>
<path d="M3400 1060 c0 -8 5 -22 10 -30 9 -13 10 -13 10 0 0 8 -5 22 -10 30
-9 13 -10 13 -10 0z"/>
<path d="M3441 1034 c0 -11 3 -14 6 -6 3 7 2 16 -1 19 -3 4 -6 -2 -5 -13z"/>
<path d="M212 1004 c-14 -15 -7 -17 22 -5 15 6 16 9 5 13 -8 3 -20 -1 -27 -8z"/>
<path d="M2997 999 c6 -22 23 -26 23 -5 0 8 -6 16 -14 19 -10 4 -12 0 -9 -14z"/>
<path d="M3451 1004 c-1 -7 6 -27 14 -45 8 -19 14 -27 14 -19 0 18 -27 79 -28
64z"/>
<path d="M3481 894 c0 -11 3 -14 6 -6 3 7 2 16 -1 19 -3 4 -6 -2 -5 -13z"/>
<path d="M3451 890 c0 -8 4 -22 9 -30 12 -18 12 -2 0 25 -6 13 -9 15 -9 5z"/>
<path d="M590 860 c-9 -6 -10 -10 -3 -10 6 0 15 5 18 10 8 12 4 12 -15 0z"/>
<path d="M3211 834 c0 -11 3 -14 6 -6 3 7 2 16 -1 19 -3 4 -6 -2 -5 -13z"/>
<path d="M3395 803 c2 -16 4 -32 4 -37 1 -4 9 -5 19 -1 9 4 24 7 33 7 14 0 15
3 6 22 -13 27 -41 31 -34 4 3 -10 1 -21 -4 -24 -5 -3 -9 6 -9 20 0 14 -4 27
-9 31 -6 3 -8 -7 -6 -22z"/>
<path d="M3498 802 c20 -22 25 -21 16 2 -3 9 -12 16 -20 16 -11 0 -10 -4 4
-18z"/>
<path d="M3455 730 c3 -5 8 -10 11 -10 2 0 4 5 4 10 0 6 -5 10 -11 10 -5 0 -7
-4 -4 -10z"/>
<path d="M3515 730 c4 -6 11 -8 16 -5 14 9 11 15 -7 15 -8 0 -12 -5 -9 -10z"/>
<path d="M394 722 c3 -5 0 -13 -6 -15 -9 -4 -10 -6 -1 -6 17 -1 25 16 12 25
-7 4 -9 3 -5 -4z"/>
<path d="M485 709 c-11 -16 -1 -19 13 -3 7 8 8 14 3 14 -5 0 -13 -5 -16 -11z"/>
<path d="M531 704 c0 -11 3 -14 6 -6 3 7 2 16 -1 19 -3 4 -6 -2 -5 -13z"/>
<path d="M3456 695 c4 -8 11 -15 16 -15 6 0 5 6 -2 15 -7 8 -14 15 -16 15 -2
0 -1 -7 2 -15z"/>
<path d="M547 680 c-3 -13 -1 -18 6 -13 6 4 8 0 4 -10 -3 -10 -3 -17 2 -17 15
0 20 39 6 50 -9 8 -14 5 -18 -10z"/>
<path d="M635 640 c-3 -5 -1 -10 4 -10 6 0 11 5 11 10 0 6 -2 10 -4 10 -3 0
-8 -4 -11 -10z"/>
<path d="M328 613 c7 -3 16 -2 19 1 4 3 -2 6 -13 5 -11 0 -14 -3 -6 -6z"/>
<path d="M660 606 c0 -2 7 -7 16 -10 8 -3 12 -2 9 4 -6 10 -25 14 -25 6z"/>
<path d="M512 569 c-19 -30 -11 -32 11 -3 10 13 14 24 10 24 -5 0 -14 -9 -21
-21z"/>
<path d="M466 558 c3 -5 10 -6 15 -3 13 9 11 12 -6 12 -8 0 -12 -4 -9 -9z"/>
<path d="M20 540 c8 -5 20 -10 25 -10 6 0 3 5 -5 10 -8 5 -19 10 -25 10 -5 0
-3 -5 5 -10z"/>
<path d="M3379 511 c8 -5 11 -16 6 -30 -7 -24 7 -28 25 -6 11 13 10 18 -6 30
-10 8 -23 14 -29 15 -5 0 -4 -4 4 -9z"/>
<path d="M220 496 c0 -9 5 -16 10 -16 6 0 10 4 10 9 0 6 -4 13 -10 16 -5 3
-10 -1 -10 -9z"/>
<path d="M636 484 c-5 -14 -4 -15 9 -4 17 14 19 20 6 20 -5 0 -12 -7 -15 -16z"/>
<path d="M3437 446 c-4 -10 1 -12 14 -9 23 6 24 9 5 16 -8 3 -17 0 -19 -7z"/>
<path d="M591 434 c0 -11 3 -14 6 -6 3 7 2 16 -1 19 -3 4 -6 -2 -5 -13z"/>
<path d="M3404 439 c-3 -6 -1 -16 5 -22 8 -8 11 -5 11 11 0 24 -5 28 -16 11z"/>
<path d="M290 420 c-9 -6 -10 -10 -3 -10 6 0 15 5 18 10 8 12 4 12 -15 0z"/>
<path d="M3460 386 c0 -8 5 -18 10 -21 6 -4 8 -11 5 -16 -4 -5 -2 -9 4 -9 12
0 24 37 16 50 -9 15 -35 12 -35 -4z"/>
<path d="M3580 376 c0 -9 5 -16 10 -16 6 0 10 4 10 9 0 6 -4 13 -10 16 -5 3
-10 -1 -10 -9z"/>
<path d="M138 343 c7 -3 16 -2 19 1 4 3 -2 6 -13 5 -11 0 -14 -3 -6 -6z"/>
<path d="M90 320 c0 -5 5 -10 11 -10 5 0 7 5 4 10 -3 6 -8 10 -11 10 -2 0 -4
-4 -4 -10z"/>
<path d="M135 308 c4 -13 11 -27 16 -33 5 -5 4 5 -2 23 -12 36 -24 44 -14 10z"/>
<path d="M170 315 c0 -8 2 -15 4 -15 2 0 6 7 10 15 3 8 1 15 -4 15 -6 0 -10
-7 -10 -15z"/>
<path d="M121 284 c0 -11 3 -14 6 -6 3 7 2 16 -1 19 -3 4 -6 -2 -5 -13z"/>
<path d="M3701 268 c-1 -18 4 -28 14 -28 7 0 19 -8 24 -17 6 -10 11 -13 11 -6
0 6 -8 18 -19 25 -10 7 -21 22 -24 33 -3 15 -5 14 -6 -7z"/>
<path d="M166 265 c-3 -8 -1 -15 4 -15 6 0 10 7 10 15 0 8 -2 15 -4 15 -2 0
-6 -7 -10 -15z"/>
<path d="M3410 276 c0 -2 7 -7 16 -10 8 -3 12 -2 9 4 -6 10 -25 14 -25 6z"/>
<path d="M187 219 c4 -15 8 -17 19 -8 18 15 18 16 -5 22 -14 3 -17 0 -14 -14z"/>
<path d="M210 180 c0 -5 5 -10 10 -10 6 0 10 5 10 10 0 6 -4 10 -10 10 -5 0
-10 -4 -10 -10z"/>
<path d="M3720 177 c0 -8 7 -14 15 -14 8 0 15 6 15 14 0 7 -7 13 -15 13 -8 0
-15 -6 -15 -13z"/>
<path d="M3760 175 c0 -2 10 -10 23 -16 20 -11 21 -11 8 4 -13 16 -31 23 -31
12z"/>
<path d="M3428 154 c-9 -8 3 -44 14 -44 5 0 7 -4 4 -9 -3 -5 0 -11 8 -14 11
-4 11 1 1 29 -13 38 -19 47 -27 38z"/>
<path d="M3900 106 c0 -4 5 -16 11 -27 7 -14 7 -24 0 -33 -12 -14 -5 -26 16
-26 19 0 13 51 -9 74 -10 11 -18 16 -18 12z"/>
<path d="M3555 60 c-3 -5 -1 -10 4 -10 6 0 11 5 11 10 0 6 -2 10 -4 10 -3 0
-8 -4 -11 -10z"/>
<path d="M2807 26 c-4 -11 -5 -21 -3 -24 8 -8 36 6 36 18 0 6 -4 9 -9 6 -5 -4
-11 -1 -13 6 -3 7 -7 5 -11 -6z"/>
<path d="M2700 9 c0 -5 5 -7 10 -4 6 3 10 8 10 11 0 2 -4 4 -10 4 -5 0 -10 -5
-10 -11z"/>
<path d="M2740 10 c0 -5 5 -10 11 -10 5 0 7 5 4 10 -3 6 -8 10 -11 10 -2 0 -4
-4 -4 -10z"/>
<path d="M3120 10 c-13 -8 -13 -10 2 -10 9 0 20 5 23 10 8 13 -5 13 -25 0z"/>
<path d="M3840 8 c0 -4 7 -8 15 -8 8 0 15 4 15 8 0 5 -7 9 -15 9 -8 0 -15 -4
-15 -9z"/>
</g>
</svg>
